<svg width="40" height="41" viewBox="0 0 40 41" fill="none" xmlns="http://www.w3.org/2000/svg">
<path d="M5.00001 30.5498C6.38072 30.5498 7.50001 29.4305 7.50001 28.0498C7.50001 26.6691 6.38072 25.5498 5.00001 25.5498C3.61929 25.5498 2.50001 26.6691 2.50001 28.0498C2.50001 29.4305 3.61929 30.5498 5.00001 30.5498Z" fill="#08DEF5"/>
<path d="M16.875 38.0499C14.9856 38.0469 13.124 37.5946 11.4439 36.7302C9.76382 35.8658 8.31343 34.6142 7.2125 33.0787L9.245 31.6237C10.1139 32.8367 11.2591 33.8255 12.5859 34.5082C13.9126 35.191 15.3829 35.548 16.875 35.5499C21.8363 35.5499 25.9475 31.6749 26.2338 26.7274L28.73 26.8724C28.3675 33.1399 23.1588 38.0499 16.875 38.0499Z" fill="#08DEF5"/>
<path d="M35 31.7998C36.3807 31.7998 37.5 30.6805 37.5 29.2998C37.5 27.9191 36.3807 26.7998 35 26.7998C33.6193 26.7998 32.5 27.9191 32.5 29.2998C32.5 30.6805 33.6193 31.7998 35 31.7998Z" fill="#08DEF5"/>
<path d="M38.3013 24.4186L35.8963 23.7373C36.132 22.9036 36.2511 22.0413 36.25 21.1748C36.25 16.0061 32.045 11.7998 26.875 11.7998C25.5437 11.7951 24.227 12.0778 23.015 12.6286L21.985 10.3511C23.5207 9.65379 25.1884 9.29526 26.875 9.29985C33.4225 9.29985 38.75 14.6273 38.75 21.1748C38.75 22.2748 38.6 23.3673 38.3013 24.4186ZM25.5175 18.7811L21.7675 15.0311C21.2963 14.5611 20.6675 14.2998 20 14.2998C19.3325 14.2998 18.7038 14.5598 18.2325 15.0323L14.4825 18.7823C13.995 19.2698 13.75 19.9098 13.75 20.5498C13.75 21.1898 13.995 21.8298 14.4825 22.3173L18.2325 26.0673C18.7038 26.5398 19.3325 26.7998 20 26.7998C20.6675 26.7998 21.2963 26.5398 21.7675 26.0673L25.5175 22.3173C26.005 21.8298 26.25 21.1898 26.25 20.5498C26.25 19.9098 26.005 19.2698 25.5175 18.7823M20 24.2998L16.25 20.5498L20 16.7998L23.75 20.5498L20 24.2998Z" fill="#08DEF5"/>
<path d="M20 6.7998C21.3807 6.7998 22.5 5.68052 22.5 4.2998C22.5 2.91909 21.3807 1.7998 20 1.7998C18.6193 1.7998 17.5 2.91909 17.5 4.2998C17.5 5.68052 18.6193 6.7998 20 6.7998Z" fill="#08DEF5"/>
<path d="M10.0313 25.4022C8.1324 24.3897 6.54471 22.8798 5.43824 21.0342C4.33177 19.1885 3.74819 17.0766 3.75 14.9247C3.75 8.64095 8.66 3.43345 14.9275 3.0697L15.0725 5.56595C13.0334 5.6877 11.0898 6.47195 9.53721 7.79948C7.98464 9.12701 6.908 10.9252 6.47099 12.9207C6.03399 14.9161 6.26052 16.9997 7.11613 18.8546C7.97175 20.7095 9.40966 22.2343 11.2113 23.1972L10.0313 25.4022Z" fill="#08DEF5"/>
</svg>
