<svg width="62" height="43" viewBox="0 0 62 43" fill="none" xmlns="http://www.w3.org/2000/svg">
<g clip-path="url(#clip0_52_207)">
<path d="M11.3572 26.971C11.3572 27.4631 11.4105 27.862 11.5035 28.1546C11.6216 28.4837 11.7638 28.8037 11.9289 29.1119C11.9955 29.2182 12.022 29.3246 12.022 29.4178C12.022 29.5506 11.9423 29.6837 11.7694 29.8167L10.9318 30.3751C10.8121 30.455 10.6924 30.4948 10.5859 30.4948C10.453 30.4948 10.32 30.4283 10.187 30.3086C10.0077 30.1162 9.8474 29.9069 9.70839 29.6837C9.57537 29.4578 9.44235 29.2049 9.29616 28.8992C8.25888 30.1224 6.95577 30.7341 5.38682 30.7342C4.26996 30.7342 3.37898 30.415 2.72737 29.7768C2.07592 29.1384 1.74353 28.2874 1.74353 27.2237C1.74353 26.0935 2.14243 25.1761 2.95357 24.4846C3.76455 23.7931 4.84173 23.4474 6.2113 23.4474C6.66337 23.4474 7.12879 23.4873 7.62071 23.5538C8.11279 23.6203 8.61804 23.7266 9.14996 23.8463V22.8757C9.14996 21.865 8.9371 21.1604 8.52486 20.7481C8.09945 20.3359 7.38133 20.1364 6.35749 20.1364C5.89208 20.1364 5.41349 20.1897 4.92141 20.3094C4.42933 20.4291 3.95075 20.5753 3.48533 20.7615C3.27263 20.8545 3.1131 20.9077 3.01992 20.9343C2.92675 20.961 2.86039 20.9742 2.80722 20.9742C2.62102 20.9742 2.528 20.8411 2.528 20.5619V19.9103C2.528 19.6976 2.55467 19.5381 2.62102 19.4451C2.68753 19.3519 2.80722 19.2589 2.99341 19.1659C3.45877 18.9264 4.0172 18.7269 4.66871 18.5674C5.32047 18.3946 6.01192 18.3149 6.74322 18.3149C8.32565 18.3149 9.48251 18.6738 10.2271 19.3919C10.9584 20.1099 11.3308 21.2002 11.3308 22.663V26.971H11.3572ZM5.95859 28.9922C6.39749 28.9922 6.84957 28.9125 7.32816 28.7528C7.8069 28.5933 8.23247 28.3008 8.59137 27.9019C8.80424 27.6493 8.96377 27.3701 9.04345 27.0509C9.12329 26.7318 9.17647 26.3461 9.17647 25.894V25.3356C8.77321 25.2375 8.36478 25.162 7.9531 25.1095C7.53854 25.0569 7.1211 25.0303 6.70322 25.0297C5.81224 25.0297 5.16079 25.2026 4.72204 25.5616C4.2833 25.9207 4.07043 26.4259 4.07043 27.0907C4.07043 27.7157 4.22996 28.1811 4.56235 28.5003C4.88157 28.8327 5.34698 28.9922 5.95859 28.9922ZM16.6361 30.4283C16.3967 30.4283 16.2372 30.3884 16.1308 30.2953C16.0245 30.2156 15.9313 30.0294 15.8516 29.7768L12.7269 19.4982C12.6469 19.2322 12.6071 19.0593 12.6071 18.9663C12.6071 18.7536 12.7134 18.6338 12.9263 18.6338H14.2293C14.4819 18.6338 14.6549 18.6738 14.7479 18.7668C14.8543 18.8466 14.9341 19.0328 15.0138 19.2854L17.2477 28.0881L19.322 19.2854C19.3886 19.0195 19.4684 18.8466 19.5746 18.7668C19.6811 18.6871 19.8673 18.6339 20.1067 18.6339H21.1704C21.4229 18.6339 21.5959 18.6738 21.7021 18.7668C21.8086 18.8466 21.9016 19.0328 21.9548 19.2854L24.0558 28.1944L26.3561 19.2854C26.4358 19.0195 26.5289 18.8466 26.622 18.7668C26.7283 18.6871 26.9012 18.6339 27.1406 18.6339H28.3771C28.59 18.6339 28.7097 18.7403 28.7097 18.9663C28.7097 19.0328 28.6963 19.0993 28.683 19.179C28.6696 19.2587 28.6431 19.3652 28.59 19.5116L25.3853 29.79C25.3056 30.0561 25.2125 30.2289 25.106 30.3086C24.9997 30.3884 24.8268 30.4416 24.6009 30.4416H23.4574C23.2047 30.4416 23.0318 30.4018 22.9253 30.3086C22.819 30.2156 22.726 30.0427 22.6728 29.7768L20.6116 21.2002L18.5639 29.7633C18.4976 30.0294 18.4177 30.2022 18.3114 30.2953C18.205 30.3884 18.0188 30.4283 17.7796 30.4283H16.6361ZM33.7227 30.7873C33.0312 30.7873 32.3398 30.7075 31.675 30.548C31.01 30.3884 30.4916 30.2154 30.1459 30.0162C29.933 29.8964 29.7867 29.7635 29.7337 29.6438C29.6819 29.5264 29.6548 29.3997 29.6538 29.2714V28.5933C29.6538 28.3141 29.7602 28.1811 29.9597 28.1811C30.0411 28.1814 30.122 28.1949 30.1991 28.2211C30.2787 28.2477 30.3984 28.3008 30.5315 28.3539C31.0011 28.5606 31.4914 28.7166 31.994 28.8193C32.5149 28.925 33.045 28.9784 33.5765 28.9789C34.4141 28.9789 35.0657 28.8327 35.5178 28.5401C35.9699 28.2476 36.2093 27.8222 36.2093 27.2769C36.2093 26.9047 36.0896 26.5988 35.8502 26.3461C35.6108 26.0934 35.1587 25.8675 34.5073 25.6546L32.5791 25.0564C31.6085 24.7505 30.8905 24.2984 30.4516 23.7C30.0129 23.1149 29.7868 22.4634 29.7868 21.772C29.7868 21.2135 29.9065 20.7215 30.1459 20.2959C30.3851 19.8705 30.7043 19.4982 31.1032 19.2057C31.5021 18.8998 31.9542 18.6738 32.4861 18.5142C33.0179 18.3547 33.5763 18.2882 34.1614 18.2882C34.454 18.2882 34.7598 18.3015 35.0524 18.3414C35.3583 18.3812 35.6375 18.4344 35.9167 18.4876C36.1826 18.5541 36.4353 18.6206 36.6747 18.7004C36.9139 18.7801 37.1001 18.8599 37.2331 18.9397C37.4193 19.0462 37.5522 19.1525 37.632 19.2722C37.7118 19.3786 37.7517 19.5248 37.7517 19.711V20.3359C37.7517 20.6151 37.6453 20.7615 37.4458 20.7615C37.3395 20.7615 37.1666 20.7081 36.9407 20.6018C36.1825 20.2561 35.3315 20.0832 34.3876 20.0832C33.6297 20.0832 33.0312 20.2029 32.619 20.4556C32.2069 20.7081 31.994 21.0939 31.994 21.639C31.994 22.0113 32.1271 22.3304 32.3929 22.5831C32.6588 22.8358 33.1509 23.0884 33.8557 23.3144L35.7438 23.9128C36.7012 24.2187 37.3926 24.6441 37.8049 25.1892C38.2171 25.7343 38.4166 26.3594 38.4166 27.0509C38.4166 27.6226 38.2968 28.1412 38.0707 28.5933C37.8315 29.0454 37.5123 29.4443 37.1001 29.7635C36.6878 30.0959 36.1959 30.3353 35.6242 30.5081C35.0257 30.6943 34.4008 30.7873 33.7227 30.7873Z" fill="#252F3E"/>
<path d="M36.2358 37.2497C31.8612 40.4809 25.5051 42.1962 20.0402 42.1962C12.381 42.1962 5.48 39.3639 0.26761 34.6568C-0.144625 34.2845 0.22761 33.7793 0.719532 34.0717C6.35749 37.3429 13.3118 39.324 20.5056 39.324C25.3589 39.324 30.691 38.3135 35.5976 36.2392C36.3289 35.9066 36.9539 36.7179 36.2358 37.2497ZM38.0576 35.1753C37.4991 34.4574 34.3609 34.8296 32.9382 35.0025C32.5126 35.0558 32.4461 34.6834 32.8318 34.4042C35.3316 32.6489 39.4405 33.1543 39.9191 33.7393C40.3978 34.3377 39.786 38.4464 37.4458 40.4144C37.0869 40.7203 36.7412 40.5608 36.9007 40.1619C37.4325 38.8453 38.616 35.8801 38.0576 35.1753Z" fill="#FF9900"/>
</g>
<path d="M46.5073 2.95016H52.7098L46.271 22.0264C46.2051 22.2228 46.0793 22.3935 45.9112 22.5146C45.7432 22.6357 45.5414 22.701 45.3343 22.7014H40.5073C40.3505 22.7011 40.1961 22.6634 40.0568 22.5916C39.9175 22.5197 39.7974 22.4157 39.7062 22.2881C39.6151 22.1606 39.5557 22.0132 39.5329 21.8581C39.5101 21.7031 39.5245 21.5448 39.575 21.3964L45.575 3.62141C45.6409 3.42505 45.7667 3.2543 45.9348 3.13321C46.1028 3.01212 46.3046 2.94679 46.5118 2.94641L46.5073 2.95016Z" fill="url(#paint0_linear_52_207)"/>
<path d="M55.52 15.7452H45.6852C45.5938 15.7452 45.5045 15.7727 45.429 15.8242C45.3534 15.8756 45.2951 15.9486 45.2616 16.0336C45.2281 16.1187 45.221 16.2118 45.2412 16.301C45.2613 16.3901 45.3079 16.4712 45.3747 16.5335L51.695 22.4322C51.8785 22.6029 52.1194 22.6982 52.37 22.6992H57.9395L55.52 15.7452Z" fill="#0078D4"/>
<path d="M46.5072 2.9502C46.2982 2.94967 46.0943 3.01587 45.9255 3.13915C45.7566 3.26244 45.6315 3.43639 45.5682 3.6357L39.5795 21.3799C39.526 21.529 39.5092 21.6888 39.5305 21.8457C39.5519 22.0026 39.6107 22.1521 39.702 22.2815C39.7932 22.4109 39.9144 22.5164 40.0551 22.5891C40.1957 22.6618 40.3519 22.6996 40.5102 22.6992H45.4602C45.6447 22.6663 45.8171 22.5851 45.9598 22.4637C46.1025 22.3423 46.2104 22.1852 46.2725 22.0084L47.4665 18.4887L51.7325 22.4682C51.9114 22.616 52.1357 22.6978 52.3677 22.6999H57.9177L55.484 15.7459H48.3897L52.7322 2.9502H46.5072Z" fill="url(#paint1_linear_52_207)"/>
<path d="M54.4295 3.62141C54.3636 3.42517 54.2379 3.25451 54.07 3.13343C53.9021 3.01235 53.7005 2.94694 53.4935 2.94641H46.5815C46.7885 2.94694 46.9901 3.01235 47.158 3.13343C47.3259 3.25451 47.4516 3.42517 47.5175 3.62141L53.5175 21.3964C53.5676 21.545 53.5817 21.7034 53.5584 21.8585C53.5352 22.0136 53.4754 22.1609 53.3839 22.2883C53.2924 22.4157 53.172 22.5194 53.0324 22.591C52.8929 22.6626 52.7383 22.6999 52.5815 22.6999H59.4943C59.6506 22.6991 59.8046 22.6612 59.9434 22.5892C60.0823 22.5173 60.2021 22.4134 60.293 22.2862C60.3838 22.1589 60.4432 22.0119 60.4661 21.8572C60.4891 21.7025 60.475 21.5446 60.425 21.3964L54.4295 3.62141Z" fill="url(#paint2_linear_52_207)"/>
<defs>
<linearGradient id="paint0_linear_52_207" x1="47.2499" y1="4.43513" x2="41.3547" y2="22.4089" gradientUnits="userSpaceOnUse">
<stop stop-color="#114A8B"/>
<stop offset="1" stop-color="#0669BC"/>
</linearGradient>
<linearGradient id="paint1_linear_52_207" x1="50.4339" y1="13.5497" x2="49.2424" y2="13.8668" gradientUnits="userSpaceOnUse">
<stop stop-opacity="0.3"/>
<stop offset="0.071" stop-opacity="0.2"/>
<stop offset="0.321" stop-opacity="0.1"/>
<stop offset="0.623" stop-opacity="0.05"/>
<stop offset="1" stop-opacity="0"/>
</linearGradient>
<linearGradient id="paint2_linear_52_207" x1="51.9143" y1="3.71073" x2="58.6484" y2="21.3132" gradientUnits="userSpaceOnUse">
<stop stop-color="#3CCBF4"/>
<stop offset="1" stop-color="#2892DF"/>
</linearGradient>
<clipPath id="clip0_52_207">
<rect width="40.16" height="24" fill="white" transform="translate(0 18.2749)"/>
</clipPath>
</defs>
</svg>
