<svg width="34" height="41" viewBox="0 0 34 41" fill="none" xmlns="http://www.w3.org/2000/svg">
<path d="M15.138 19.4038C14.8773 19.143 14.4559 19.143 14.1953 19.4038C13.9346 19.6644 13.9346 20.0858 14.1953 20.3464L16.1946 22.3457C16.2559 22.4077 16.3299 22.4564 16.4119 22.4904C16.4933 22.5238 16.5799 22.5417 16.6666 22.5417C16.7533 22.5417 16.84 22.5238 16.9213 22.4904C17.0034 22.4564 17.0773 22.4077 17.1387 22.3457L19.138 20.3464C19.3987 20.0857 19.3987 19.6644 19.138 19.4038C18.8773 19.143 18.4559 19.143 18.1953 19.4038L17.3333 20.2658V15.4944L18.1953 16.3564C18.3253 16.487 18.496 16.5517 18.6666 16.5517C18.8373 16.5517 19.008 16.487 19.138 16.3564C19.3987 16.0964 19.3987 15.6744 19.138 15.4137L17.1387 13.4144C17.0773 13.3524 17.0034 13.3037 16.9213 13.2697C16.7587 13.2024 16.5747 13.2024 16.412 13.2697C16.33 13.3037 16.256 13.3524 16.1947 13.4144L14.1954 15.4137C13.9347 15.6744 13.9347 16.0964 14.1954 16.3564C14.4561 16.617 14.8774 16.617 15.138 16.3564L16.0001 15.4944V20.2657L15.138 19.4038Z" fill="#050405"/>
<path d="M28.09 1.33981C25.0327 0.830509 20.976 0.549805 16.6666 0.549805C12.3572 0.549805 8.30058 0.830509 5.24323 1.33981C0.595865 2.1145 -0.000152588 3.10583 -0.000152588 3.88318V9.21656C-0.000152588 9.9939 0.595865 10.9852 5.24323 11.7599C8.30058 12.2692 12.3572 12.5499 16.6666 12.5499C20.976 12.5499 25.0327 12.2692 28.09 11.7599C32.7374 10.9852 33.3334 9.9939 33.3334 9.21656V3.88318C33.3334 3.10583 32.7374 2.1145 28.09 1.33981ZM31.8993 3.92849C31.8733 3.95052 31.8467 3.97247 31.8133 3.99583C31.776 4.02115 31.73 4.04786 31.6826 4.07451C31.6406 4.09849 31.5973 4.12247 31.5473 4.14716C31.4913 4.17451 31.4266 4.20247 31.3613 4.23052C31.302 4.25583 31.2426 4.28115 31.176 4.30716C31.102 4.33513 31.0193 4.3638 30.936 4.39248C30.8593 4.41912 30.7833 4.44584 30.698 4.47248C30.6067 4.50177 30.5047 4.53115 30.4033 4.56044C30.31 4.58709 30.218 4.6138 30.1167 4.64115C30.0067 4.67045 29.8846 4.69982 29.7646 4.72912C29.6546 4.75576 29.546 4.7831 29.4273 4.80982C29.2993 4.83912 29.1593 4.86779 29.0213 4.89646C28.8939 4.92248 28.7686 4.94912 28.6333 4.97584C28.4853 5.00451 28.3253 5.03185 28.1686 5.05982C28.0246 5.08513 27.8846 5.11115 27.7326 5.13584C27.566 5.16318 27.386 5.18982 27.2092 5.21584C27.0486 5.24053 26.8926 5.26451 26.7246 5.28787C26.5366 5.31389 26.3346 5.33849 26.1366 5.36318C25.9626 5.38521 25.7932 5.40787 25.6119 5.42849C25.4013 5.45318 25.1766 5.47514 24.9553 5.49779C24.7673 5.51709 24.5845 5.53779 24.3886 5.55576C24.1579 5.57709 23.912 5.59646 23.6706 5.61646C23.4673 5.63311 23.2706 5.65045 23.0599 5.66576C22.8039 5.68443 22.5313 5.70045 22.2646 5.71709C22.0506 5.73045 21.8439 5.74506 21.6226 5.75639C21.3286 5.7724 21.0166 5.78436 20.7099 5.79772C20.4992 5.80639 20.2973 5.81701 20.0806 5.82506C19.7293 5.83709 19.3593 5.84506 18.992 5.85373C18.802 5.85772 18.6212 5.86443 18.4266 5.86772C17.858 5.87772 17.2719 5.88303 16.6666 5.88303C16.0613 5.88303 15.4753 5.87772 14.9066 5.86772C14.7119 5.86436 14.5313 5.85772 14.3413 5.85373C13.974 5.84506 13.604 5.83709 13.2526 5.82506C13.036 5.81709 12.834 5.80639 12.6233 5.79772C12.3167 5.78436 12.0047 5.7724 11.7107 5.75639C11.4893 5.74506 11.2827 5.73037 11.0686 5.71709C10.802 5.70045 10.5293 5.68443 10.2733 5.66576C10.0626 5.65045 9.86598 5.63311 9.66262 5.61646C9.42129 5.59646 9.17527 5.57717 8.94465 5.55576C8.74863 5.53779 8.56597 5.51709 8.378 5.49779C8.15668 5.47514 7.93199 5.4531 7.72136 5.42849C7.54003 5.40779 7.37066 5.38514 7.19667 5.36318C6.9987 5.33849 6.79667 5.31389 6.6087 5.28787C6.44073 5.26451 6.28472 5.24053 6.12401 5.21584C5.94737 5.18982 5.76737 5.16318 5.60065 5.13584C5.44862 5.11115 5.30862 5.08513 5.16463 5.05982C5.00799 5.03185 4.84799 5.00451 4.69994 4.97584C4.56463 4.9492 4.43924 4.92248 4.31197 4.89646C4.174 4.86779 4.034 4.83912 3.90596 4.80982C3.78728 4.78318 3.67861 4.75584 3.56861 4.72912C3.44861 4.69982 3.32658 4.67045 3.21658 4.64115C3.11525 4.6138 3.02322 4.58716 2.92994 4.56044C2.82861 4.53115 2.72658 4.50177 2.63525 4.47248C2.54994 4.44584 2.47392 4.41912 2.39728 4.39248C2.31392 4.3638 2.23126 4.33513 2.15728 4.30716C2.09064 4.28115 2.03126 4.25583 1.97196 4.23052C1.90665 4.20255 1.84196 4.17451 1.78595 4.14716C1.73595 4.12247 1.69259 4.09849 1.65063 4.07451C1.60329 4.04786 1.55728 4.02115 1.52001 3.99583C1.48665 3.97247 1.46001 3.95052 1.43399 3.92849C1.41399 3.91115 1.39735 3.8945 1.38196 3.87849C2.09126 3.15849 7.13128 1.88317 16.6667 1.88317C26.2021 1.88317 31.2421 3.15849 31.9515 3.87849C31.9361 3.8945 31.9193 3.91115 31.8993 3.92849Z" fill="#050405"/>
<path d="M28.09 24.0064C25.0327 23.4971 20.976 23.2164 16.6666 23.2164C12.3572 23.2164 8.30058 23.4971 5.24323 24.0064C0.595865 24.7811 -0.000152588 25.7731 -0.000152588 26.5498V31.8832V37.2166C-0.000152588 37.9939 0.595865 38.9852 5.24323 39.7599C8.30058 40.2692 12.3572 40.5499 16.6666 40.5499C20.976 40.5499 25.0327 40.2692 28.09 39.7599C32.7374 38.9852 33.3334 37.9939 33.3334 37.2166V31.8832V26.5498C33.3334 25.7731 32.7374 24.781 28.09 24.0064ZM16.6666 24.5497C26.202 24.5497 31.242 25.825 31.9514 26.545C31.9361 26.5617 31.9193 26.5784 31.8993 26.595C31.8733 26.6171 31.8467 26.639 31.8133 26.6624C31.776 26.6877 31.73 26.7144 31.6826 26.7411C31.6406 26.765 31.5973 26.789 31.5473 26.8137C31.4913 26.8411 31.4266 26.869 31.3613 26.8971C31.302 26.9224 31.2426 26.9477 31.176 26.9737C31.102 27.0017 31.0193 27.0304 30.936 27.0597C30.8593 27.0857 30.7833 27.1124 30.698 27.1397C30.6067 27.1684 30.5047 27.1977 30.4033 27.2271C30.31 27.2537 30.218 27.2804 30.1167 27.3077C30.0067 27.337 29.8846 27.3664 29.7646 27.3957C29.6546 27.4223 29.546 27.4497 29.4273 27.4764C29.2993 27.5057 29.1593 27.5343 29.0213 27.563C28.8939 27.5897 28.7686 27.6164 28.6333 27.6424C28.4853 27.6711 28.3253 27.6984 28.1686 27.7264C28.0246 27.7517 27.8846 27.7777 27.7326 27.8024C27.566 27.8297 27.386 27.8564 27.2092 27.8831C27.0486 27.9071 26.8926 27.9318 26.7246 27.9551C26.5366 27.9811 26.3346 28.0051 26.1366 28.0304C25.9626 28.0518 25.7932 28.0744 25.6119 28.0957C25.4013 28.1197 25.1766 28.1418 24.9553 28.1644C24.7673 28.1837 24.5845 28.2044 24.3886 28.2224C24.1579 28.2444 23.912 28.2631 23.6706 28.2831C23.4673 28.2997 23.2706 28.3178 23.0599 28.3331C22.8039 28.3518 22.5313 28.3671 22.2646 28.3837C22.0506 28.3971 21.8439 28.4117 21.6226 28.4237C21.3286 28.439 21.0166 28.4511 20.7099 28.4644C20.4992 28.4731 20.2973 28.4837 20.0806 28.4918C19.7293 28.5038 19.3593 28.5118 18.992 28.5204C18.802 28.5244 18.6212 28.5318 18.4266 28.5351C17.858 28.5444 17.2719 28.5498 16.6666 28.5498C16.0613 28.5498 15.4753 28.5445 14.9066 28.5351C14.7119 28.5318 14.5313 28.5244 14.3413 28.5204C13.974 28.5118 13.604 28.5038 13.2526 28.4918C13.036 28.4838 12.834 28.4731 12.6233 28.4644C12.3167 28.4511 12.0047 28.4391 11.7107 28.4237C11.4893 28.4117 11.2827 28.3971 11.0686 28.3837C10.802 28.3671 10.5293 28.3517 10.2733 28.3331C10.0626 28.3178 9.86598 28.2997 9.66262 28.2831C9.42129 28.2631 9.17527 28.2444 8.94465 28.2224C8.74863 28.2044 8.56597 28.1837 8.378 28.1644C8.15668 28.1418 7.93199 28.1197 7.72136 28.0957C7.54003 28.0744 7.37066 28.0518 7.19667 28.0304C6.9987 28.0051 6.79667 27.9811 6.6087 27.9551C6.44073 27.9318 6.28472 27.9072 6.12401 27.8831C5.94737 27.8564 5.76737 27.8297 5.60065 27.8024C5.44862 27.7777 5.30862 27.7517 5.16463 27.7264C5.00799 27.6984 4.84799 27.6711 4.69994 27.6424C4.56463 27.6164 4.43924 27.5897 4.31197 27.563C4.174 27.5343 4.034 27.5057 3.90596 27.4764C3.78728 27.4497 3.67861 27.4224 3.56861 27.3957C3.44861 27.3664 3.32658 27.337 3.21658 27.3077C3.11525 27.2804 3.02322 27.2537 2.92994 27.2271C2.82861 27.1978 2.72658 27.1684 2.63525 27.1397C2.54994 27.1124 2.47392 27.0857 2.39728 27.0597C2.31392 27.0304 2.23126 27.0018 2.15728 26.9737C2.09064 26.9477 2.03126 26.9224 1.97196 26.8971C1.90665 26.8691 1.84196 26.8411 1.78595 26.8137C1.73595 26.789 1.69259 26.765 1.65063 26.7411C1.60329 26.7144 1.55728 26.6877 1.52001 26.6624C1.48665 26.639 1.46001 26.6171 1.43399 26.595C1.41399 26.5784 1.39735 26.5617 1.38196 26.545C2.09126 25.8251 7.13128 24.5497 16.6666 24.5497ZM32 37.1658C31.5061 37.8738 26.4527 39.2165 16.6666 39.2165C6.88058 39.2165 1.82728 37.8738 1.33329 37.1658V33.3944C1.37462 33.4137 1.42259 33.4331 1.46665 33.4518C1.50665 33.4691 1.54532 33.4865 1.58728 33.5038C1.68392 33.5431 1.78798 33.5832 1.89728 33.6225C1.92657 33.6338 1.95329 33.6445 1.98392 33.6551C2.12657 33.7058 2.27993 33.7551 2.44329 33.8051C2.47994 33.8165 2.52064 33.8272 2.55861 33.8378C2.6879 33.8765 2.8233 33.9144 2.96658 33.9518C3.02861 33.9684 3.09525 33.9844 3.15994 34.0011C3.28923 34.0337 3.42392 34.0658 3.56392 34.0977C3.63791 34.1151 3.71322 34.1317 3.79056 34.1491C3.94057 34.1817 4.09854 34.2137 4.26057 34.2457C4.33455 34.261 4.40588 34.2757 4.4819 34.2904C4.72393 34.3364 4.97526 34.3817 5.24323 34.4264C8.30058 34.9357 12.3572 35.2164 16.6666 35.2164C20.976 35.2164 25.0327 34.9357 28.09 34.4264C28.358 34.3817 28.6093 34.3364 28.8514 34.2904C28.9274 34.2757 28.9987 34.2611 29.0727 34.2457C29.2347 34.2137 29.3927 34.1817 29.5427 34.1491C29.62 34.1317 29.6954 34.1151 29.7693 34.0977C29.9093 34.0657 30.044 34.0337 30.1733 34.0011C30.238 33.9844 30.3047 33.9684 30.3667 33.9518C30.51 33.9144 30.6454 33.8765 30.7747 33.8378C30.8126 33.8271 30.8533 33.8165 30.89 33.8051C31.0533 33.7551 31.2066 33.7058 31.3493 33.6551C31.38 33.6444 31.4066 33.6338 31.4359 33.6225C31.5452 33.5832 31.6493 33.5432 31.7459 33.5038C31.7879 33.4865 31.8266 33.4691 31.8665 33.4518C31.9105 33.4331 31.9586 33.4138 31.9999 33.3944V37.1658H32Z" fill="#050405"/>
</svg>
