<svg width="41" height="41" viewBox="0 0 41 41" fill="none" xmlns="http://www.w3.org/2000/svg">
<path d="M22.9 34.2997C23.5904 34.2997 24.15 33.74 24.15 33.0497C24.15 32.3593 23.5904 31.7997 22.9 31.7997C22.2097 31.7997 21.65 32.3593 21.65 33.0497C21.65 33.74 22.2097 34.2997 22.9 34.2997Z" fill="#000080"/>
<path d="M35.4 25.5497C36.7788 25.5497 37.9 24.4284 37.9 23.0497V18.0497C37.9 16.6722 36.7788 15.5497 35.4 15.5497H34.15V9.29968C34.15 7.92218 33.0288 6.79968 31.65 6.79968H25.4V5.54968C25.4 4.17218 24.2788 3.04968 22.9 3.04968H17.9C16.5213 3.04968 15.4 4.17218 15.4 5.54968V6.79968H9.15002C7.77127 6.79968 6.65002 7.92218 6.65002 9.29968V15.7272C4.50002 16.2859 2.90002 18.2272 2.90002 20.5497C2.90002 22.8722 4.50002 24.8122 6.65002 25.3722V31.7997C6.65002 33.1784 7.77127 34.2997 9.15002 34.2997H17.9V35.5497C17.9 36.9284 19.0213 38.0497 20.4 38.0497H35.4C36.7788 38.0497 37.9 36.9284 37.9 35.5497V30.5497C37.9 29.1722 36.7788 28.0497 35.4 28.0497H34.15V25.5497H35.4ZM35.4 23.0497H30.4V18.0497H35.4V23.0497ZM17.9 5.54968H22.9V10.5497H17.9V5.54968ZM15.4 9.29968V10.5497C15.4 11.9284 16.5213 13.0497 17.9 13.0497H22.9C24.2788 13.0497 25.4 11.9284 25.4 10.5497V9.29968H31.65V15.5497H30.4C29.0213 15.5497 27.9 16.6722 27.9 18.0497V19.2997H12.7225C12.4979 18.4406 12.0486 17.6569 11.4207 17.029C10.7928 16.4011 10.0091 15.9518 9.15002 15.7272V9.29968H15.4ZM5.40002 20.5497C5.40002 19.1722 6.52127 18.0497 7.90002 18.0497C9.27877 18.0497 10.4 19.1722 10.4 20.5497C10.4 21.9272 9.27877 23.0497 7.90002 23.0497C6.52127 23.0497 5.40002 21.9284 5.40002 20.5497ZM35.4 35.5497H20.4V30.5497H35.4V35.5497ZM31.65 28.0497H20.4C19.0213 28.0497 17.9 29.1722 17.9 30.5497V31.7997H9.15002V25.3722C10.0091 25.1476 10.7928 24.6982 11.4207 24.0704C12.0486 23.4425 12.4979 22.6587 12.7225 21.7997H27.9V23.0497C27.9 24.4284 29.0213 25.5497 30.4 25.5497H31.65V28.0497Z" fill="#000080"/>
</svg>
