<svg width="41" height="41" viewBox="0 0 41 41" fill="none" xmlns="http://www.w3.org/2000/svg">
<g clip-path="url(#clip0_55_94)">
<path d="M19.7 40.5498L19.25 40.3748C14.2251 38.4812 9.89912 35.097 6.85176 30.6756C3.80439 26.2542 2.1813 21.007 2.20002 15.6373V7.34976L19.7 0.624756L37.2 7.34976V15.6373C37.2162 21.0049 35.5919 26.2494 32.5447 30.6682C29.4975 35.0871 25.1729 38.4695 20.15 40.3623L19.7 40.5498ZM4.70002 9.07476V15.6373C4.68695 20.4164 6.10998 25.0893 8.7846 29.0499C11.4592 33.0106 15.2621 36.0764 19.7 37.8498C24.138 36.0764 27.9408 33.0106 30.6154 29.0499C33.2901 25.0893 34.7131 20.4164 34.7 15.6373V9.07476L19.7 3.29976L4.70002 9.07476Z" fill="#FF6B43"/>
<path d="M13.45 22.8372H15.95V29.2997H13.45V22.8372ZM15.95 13.2747V9.29968H13.45V13.2747C12.616 13.5696 11.9131 14.1498 11.4655 14.9128C11.0179 15.6758 10.8544 16.5725 11.004 17.4443C11.1536 18.3162 11.6066 19.1071 12.2829 19.6773C12.9593 20.2475 13.8154 20.5602 14.7 20.5602C15.5846 20.5602 16.4408 20.2475 17.1171 19.6773C17.7934 19.1071 18.2464 18.3162 18.396 17.4443C18.5456 16.5725 18.3822 15.6758 17.9346 14.9128C17.487 14.1498 16.784 13.5696 15.95 13.2747ZM14.7 18.0497C14.3685 18.0497 14.0506 17.918 13.8161 17.6836C13.5817 17.4491 13.45 17.1312 13.45 16.7997C13.45 16.4682 13.5817 16.1502 13.8161 15.9158C14.0506 15.6814 14.3685 15.5497 14.7 15.5497C15.0315 15.5497 15.3495 15.6814 15.5839 15.9158C15.8183 16.1502 15.95 16.4682 15.95 16.7997C15.95 17.1312 15.8183 17.4491 15.5839 17.6836C15.3495 17.918 15.0315 18.0497 14.7 18.0497ZM23.45 9.29968H25.95V15.7622H23.45V9.29968ZM28.45 21.7997C28.452 21.1117 28.2646 20.4365 27.9085 19.8479C27.5524 19.2593 27.0412 18.7801 26.4309 18.4625C25.8207 18.145 25.1348 18.0014 24.4484 18.0476C23.762 18.0938 23.1015 18.3279 22.5393 18.7243C21.977 19.1206 21.5346 19.6641 21.2605 20.295C20.9864 20.926 20.8912 21.6202 20.9852 22.3017C21.0793 22.9832 21.3589 23.6257 21.7937 24.1589C22.2284 24.6921 22.8014 25.0954 23.45 25.3247V29.2997H25.95V25.3247C26.6795 25.0668 27.3113 24.5896 27.7588 23.9585C28.2064 23.3274 28.4478 22.5734 28.45 21.7997ZM24.7 23.0497C24.3685 23.0497 24.0506 22.918 23.8161 22.6836C23.5817 22.4491 23.45 22.1312 23.45 21.7997C23.45 21.4682 23.5817 21.1502 23.8161 20.9158C24.0506 20.6814 24.3685 20.5497 24.7 20.5497C25.0315 20.5497 25.3495 20.6814 25.5839 20.9158C25.8183 21.1502 25.95 21.4682 25.95 21.7997C25.95 22.1312 25.8183 22.4491 25.5839 22.6836C25.3495 22.918 25.0315 23.0497 24.7 23.0497Z" fill="#FF6B43"/>
</g>
<defs>
<clipPath id="clip0_55_94">
<rect width="40" height="40" fill="white" transform="translate(0.199982 0.549805)"/>
</clipPath>
</defs>
</svg>
