<svg width="36" height="19" viewBox="0 0 36 19" fill="none" xmlns="http://www.w3.org/2000/svg">
<path d="M9.05005 0.799927C4.2313 0.799927 0.300049 4.73118 0.300049 9.54993C0.300049 14.3749 4.22505 18.2999 9.05005 18.2999C12.7125 18.2999 14.9488 16.2874 16.6675 13.8074C16.155 12.9824 15.725 12.1674 15.3 11.3862C13.7663 13.9199 12.0475 15.7999 9.05005 15.7999C5.60255 15.7999 2.80005 12.9974 2.80005 9.54993C2.80005 6.08368 5.5838 3.29993 9.05005 3.29993C11.0713 3.29993 12.3563 4.02243 13.5425 5.25368C14.7288 6.48368 15.73 8.26118 16.745 10.1362C17.7613 12.0112 18.7913 13.9837 20.3 15.5649C21.8088 17.1474 23.8888 18.2999 26.55 18.2999C31.3688 18.2999 35.3 14.3687 35.3 9.54993C35.3 4.72493 31.375 0.799927 26.55 0.799927C22.9075 0.799927 20.6563 2.74868 18.9325 5.17493C19.445 5.98493 19.9138 6.78118 20.3388 7.55743C21.8625 5.09618 23.5625 3.29993 26.55 3.29993C29.9975 3.29993 32.8 6.10243 32.8 9.54993C32.8 13.0162 30.0163 15.7999 26.55 15.7999C24.5625 15.7999 23.3125 15.0774 22.1363 13.8462C20.9588 12.6162 19.9538 10.8387 18.9325 8.96368C17.9125 7.08868 16.8625 5.11618 15.3388 3.53368C13.815 1.95243 11.735 0.799927 9.05005 0.799927Z" fill="#000080"/>
</svg>
