<svg width="13" height="22" viewBox="0 0 13 22" fill="none" xmlns="http://www.w3.org/2000/svg">
<path d="M7.1665 8.50001H12.4165L11.8332 10.8333H7.1665V21.3333H4.83317V10.8333H0.166504V8.50001H4.83317V6.31601C4.83317 4.23584 5.05017 3.48101 5.45617 2.72034C5.85401 1.96878 6.46861 1.35419 7.22017 0.956343C7.98084 0.550343 8.73567 0.333344 10.8158 0.333344C11.4248 0.333344 11.9592 0.391677 12.4165 0.508344V2.66668H10.8158C9.27117 2.66668 8.801 2.75768 8.32034 3.01434C7.97532 3.1946 7.69393 3.4764 7.51417 3.82168C7.2575 4.30118 7.1665 4.77134 7.1665 6.31601V8.50001Z" fill="#000080"/>
</svg>
