<svg width="56" height="60" viewBox="0 0 56 60" fill="none" xmlns="http://www.w3.org/2000/svg">
<path d="M38.6647 35.8922C38.6647 33.9008 40.3111 32.2843 42.3392 32.2843C44.3674 32.2843 46.0138 33.9008 46.0138 35.8922C46.0138 37.8836 44.3674 39.5002 42.3392 39.5002C40.3111 39.5002 38.6647 37.8836 38.6647 35.8922ZM41.4802 44.8653C41.4802 42.8739 39.8339 41.2573 37.8057 41.2573C35.7775 41.2573 34.1311 42.8739 34.1311 44.8653C34.1311 46.8567 35.7775 48.4733 37.8057 48.4733C39.8339 48.4733 41.4802 46.8567 41.4802 44.8653ZM31.9598 49.1292H27.8319H23.7279C21.2225 49.1292 19.6477 51.1675 19.6477 53.7212V60H22.4632V54.4475C22.4632 54.1898 22.678 54.0258 22.8927 54.0258C23.1552 54.0258 23.3222 54.1898 23.3222 54.4475V59.9766H32.3893V54.4475C32.3893 54.1898 32.6041 54.0258 32.8188 54.0258C33.0813 54.0258 33.2483 54.2366 33.2483 54.4475V59.9766H36.0639V53.7446C36.1116 51.1675 34.5368 49.1292 31.9598 49.1292ZM36.6604 35.8922C36.6604 33.9008 35.014 32.2843 32.9858 32.2843C30.9577 32.2843 29.3113 33.9008 29.3113 35.8922C29.3113 37.8836 30.9577 39.5002 32.9858 39.5002C35.014 39.5002 36.6604 37.8836 36.6604 35.8922ZM43.7709 44.8653C43.7709 46.8567 45.4173 48.4733 47.4454 48.4733C49.4736 48.4733 51.12 46.8567 51.12 44.8653C51.12 42.8739 49.4736 41.2573 47.4454 41.2573C45.4173 41.2573 43.7709 42.8739 43.7709 44.8653ZM51.6926 49.1058H47.5647H43.413V49.1292C40.9076 49.1292 39.3328 51.1675 39.3328 53.7212V60H42.1483V54.4475C42.1483 54.1898 42.3631 54.0258 42.5778 54.0258C42.8403 54.0258 43.0073 54.1898 43.0073 54.4475V59.9766H52.0744V54.4475C52.0744 54.1898 52.2891 54.0258 52.5039 54.0258C52.7664 54.0258 52.9334 54.2366 52.9334 54.4475V59.9766H55.7489V53.7446C55.7967 51.1441 54.2219 49.1058 51.6926 49.1058ZM9.00581 48.4733C11.034 48.4733 12.6804 46.8567 12.6804 44.8653C12.6804 42.8739 11.034 41.2573 9.00581 41.2573C6.97765 41.2573 5.33126 42.8739 5.33126 44.8653C5.33126 46.8567 6.97765 48.4733 9.00581 48.4733ZM13.086 49.1058H8.95809H4.83018C2.32481 49.1058 0.75 51.1441 0.75 53.6978V59.9766H3.5417V54.4475C3.5417 54.1898 3.75645 54.0258 3.9712 54.0258C4.23366 54.0258 4.40069 54.1898 4.40069 54.4475V59.9766H13.4678V54.4475C13.4678 54.1898 13.6825 54.0258 13.8973 54.0258C14.1597 54.0258 14.3267 54.2366 14.3267 54.4475V59.9766H17.1423V53.7446C17.2139 51.1441 15.6152 49.1058 13.086 49.1058ZM27.8558 48.4733C29.8839 48.4733 31.5303 46.8567 31.5303 44.8653C31.5303 42.8739 29.8839 41.2573 27.8558 41.2573C25.8276 41.2573 24.1812 42.8739 24.1812 44.8653C24.1812 46.8567 25.8276 48.4733 27.8558 48.4733ZM13.7064 39.5002C15.7345 39.5002 17.3809 37.8836 17.3809 35.8922C17.3809 33.9008 15.7345 32.2843 13.7064 32.2843C11.6782 32.2843 10.0318 33.9008 10.0318 35.8922C10.0318 37.8836 11.6782 39.5002 13.7064 39.5002ZM19.934 35.8922C19.934 37.8836 21.5804 39.5002 23.6086 39.5002C25.6367 39.5002 27.2831 37.8836 27.2831 35.8922C27.2831 33.9008 25.6367 32.2843 23.6086 32.2843C21.5804 32.2843 19.934 33.9242 19.934 35.8922ZM22.3439 44.8653C22.3439 42.8739 20.6976 41.2573 18.6694 41.2573C16.6412 41.2573 14.9948 42.8739 14.9948 44.8653C14.9948 46.8567 16.6412 48.4733 18.6694 48.4733C20.6976 48.4733 22.3439 46.8567 22.3439 44.8653ZM26.6627 21.7181H29.359L29.0965 20.3358H26.9252L26.6627 21.7181ZM27.3547 17.9695L27.1877 18.9067H28.8818L28.7148 17.9695H27.3547ZM19.5045 10.941C19.5045 6.23194 23.4415 2.41312 28.2614 2.41312C33.0813 2.41312 37.0183 6.20851 37.0183 10.941V21.9289H39.4998V10.941C39.4998 4.89652 34.4652 0 28.2614 0C22.0576 0 17.023 4.89652 17.023 10.941V21.9289H19.5045V10.941ZM26.0424 25.4198H30.0271L29.693 23.5689H26.3525L26.0424 25.4198ZM31.3394 12.6513C31.3394 10.8708 29.8362 9.4182 28.0228 9.4182C26.2094 9.4182 24.7062 10.8708 24.7062 12.6513V17.0558H31.3394V12.6513Z" fill="#000080" fill-opacity="0.25"/>
</svg>
