<svg width="28" height="29" viewBox="0 0 28 29" fill="none" xmlns="http://www.w3.org/2000/svg">
<path d="M9.10001 2.88306H18.9C22.6333 2.88306 25.6667 5.91639 25.6667 9.64972V19.4497C25.6667 21.2444 24.9538 22.9655 23.6848 24.2345C22.4158 25.5035 20.6946 26.2164 18.9 26.2164H9.10001C5.36668 26.2164 2.33334 23.1831 2.33334 19.4497V9.64972C2.33334 7.85509 3.04626 6.13396 4.31525 4.86497C5.58425 3.59597 7.30538 2.88306 9.10001 2.88306ZM8.86668 5.21639C7.75277 5.21639 6.68448 5.65889 5.89683 6.44654C5.10918 7.23419 4.66668 8.30248 4.66668 9.41639V19.6831C4.66668 22.0047 6.54501 23.8831 8.86668 23.8831H19.1333C20.2473 23.8831 21.3155 23.4406 22.1032 22.6529C22.8908 21.8653 23.3333 20.797 23.3333 19.6831V9.41639C23.3333 7.09472 21.455 5.21639 19.1333 5.21639H8.86668ZM20.125 6.96639C20.5118 6.96639 20.8827 7.12004 21.1562 7.39353C21.4297 7.66702 21.5833 8.03795 21.5833 8.42472C21.5833 8.8115 21.4297 9.18243 21.1562 9.45592C20.8827 9.72941 20.5118 9.88306 20.125 9.88306C19.7382 9.88306 19.3673 9.72941 19.0938 9.45592C18.8203 9.18243 18.6667 8.8115 18.6667 8.42472C18.6667 8.03795 18.8203 7.66702 19.0938 7.39353C19.3673 7.12004 19.7382 6.96639 20.125 6.96639ZM14 8.71639C15.5471 8.71639 17.0308 9.33097 18.1248 10.4249C19.2188 11.5189 19.8333 13.0026 19.8333 14.5497C19.8333 16.0968 19.2188 17.5806 18.1248 18.6745C17.0308 19.7685 15.5471 20.3831 14 20.3831C12.4529 20.3831 10.9692 19.7685 9.87522 18.6745C8.78126 17.5806 8.16668 16.0968 8.16668 14.5497C8.16668 13.0026 8.78126 11.5189 9.87522 10.4249C10.9692 9.33097 12.4529 8.71639 14 8.71639ZM14 11.0497C13.0718 11.0497 12.1815 11.4185 11.5251 12.0749C10.8688 12.7312 10.5 13.6215 10.5 14.5497C10.5 15.478 10.8688 16.3682 11.5251 17.0246C12.1815 17.681 13.0718 18.0497 14 18.0497C14.9283 18.0497 15.8185 17.681 16.4749 17.0246C17.1313 16.3682 17.5 15.478 17.5 14.5497C17.5 13.6215 17.1313 12.7312 16.4749 12.0749C15.8185 11.4185 14.9283 11.0497 14 11.0497Z" fill="#C0C0C0"/>
</svg>
