<svg width="24" height="24" viewBox="0 0 24 24" fill="none" xmlns="http://www.w3.org/2000/svg">
<path d="M7.10016 0.333344H16.9002C20.6335 0.333344 23.6668 3.36668 23.6668 7.10001V16.9C23.6668 18.6946 22.9539 20.4158 21.6849 21.6848C20.4159 22.9538 18.6948 23.6667 16.9002 23.6667H7.10016C3.36683 23.6667 0.333496 20.6333 0.333496 16.9V7.10001C0.333496 5.30538 1.04641 3.58425 2.31541 2.31525C3.5844 1.04626 5.30553 0.333344 7.10016 0.333344ZM6.86683 2.66668C5.75292 2.66668 4.68463 3.10918 3.89698 3.89683C3.10933 4.68448 2.66683 5.75277 2.66683 6.86668V17.1333C2.66683 19.455 4.54516 21.3333 6.86683 21.3333H17.1335C18.2474 21.3333 19.3157 20.8908 20.1033 20.1032C20.891 19.3155 21.3335 18.2473 21.3335 17.1333V6.86668C21.3335 4.54501 19.4552 2.66668 17.1335 2.66668H6.86683ZM18.1252 4.41668C18.5119 4.41668 18.8829 4.57032 19.1564 4.84381C19.4299 5.1173 19.5835 5.48824 19.5835 5.87501C19.5835 6.26178 19.4299 6.63272 19.1564 6.90621C18.8829 7.1797 18.5119 7.33334 18.1252 7.33334C17.7384 7.33334 17.3675 7.1797 17.094 6.90621C16.8205 6.63272 16.6668 6.26178 16.6668 5.87501C16.6668 5.48824 16.8205 5.1173 17.094 4.84381C17.3675 4.57032 17.7384 4.41668 18.1252 4.41668ZM12.0002 6.16668C13.5473 6.16668 15.031 6.78126 16.125 7.87522C17.2189 8.96918 17.8335 10.4529 17.8335 12C17.8335 13.5471 17.2189 15.0308 16.125 16.1248C15.031 17.2188 13.5473 17.8333 12.0002 17.8333C10.4531 17.8333 8.96934 17.2188 7.87537 16.1248C6.78141 15.0308 6.16683 13.5471 6.16683 12C6.16683 10.4529 6.78141 8.96918 7.87537 7.87522C8.96934 6.78126 10.4531 6.16668 12.0002 6.16668ZM12.0002 8.50001C11.0719 8.50001 10.1817 8.86876 9.52529 9.52514C8.86891 10.1815 8.50016 11.0718 8.50016 12C8.50016 12.9283 8.86891 13.8185 9.52529 14.4749C10.1817 15.1313 11.0719 15.5 12.0002 15.5C12.9284 15.5 13.8187 15.1313 14.475 14.4749C15.1314 13.8185 15.5002 12.9283 15.5002 12C15.5002 11.0718 15.1314 10.1815 14.475 9.52514C13.8187 8.86876 12.9284 8.50001 12.0002 8.50001Z" fill="#000080"/>
</svg>
