<svg width="28" height="29" viewBox="0 0 28 29" fill="none" xmlns="http://www.w3.org/2000/svg">
<path d="M14.0012 11.6914C15.071 10.5982 16.464 9.88306 18.0845 9.88306C19.7863 9.88306 21.4184 10.5591 22.6218 11.7625C23.8251 12.9658 24.5012 14.5979 24.5012 16.2997V25.0497H22.1678V16.2997C22.1678 15.2168 21.7376 14.1781 20.9719 13.4124C20.2061 12.6466 19.1675 12.2164 18.0845 12.2164C17.0015 12.2164 15.9629 12.6466 15.1971 13.4124C14.4314 14.1781 14.0012 15.2168 14.0012 16.2997V25.0497H11.6678V10.4664H14.0012V11.6914ZM5.8345 8.13306C5.37037 8.13306 4.92526 7.94868 4.59707 7.62049C4.26888 7.2923 4.0845 6.84719 4.0845 6.38306C4.0845 5.91893 4.26888 5.47381 4.59707 5.14562C4.92526 4.81743 5.37037 4.63306 5.8345 4.63306C6.29863 4.63306 6.74375 4.81743 7.07194 5.14562C7.40013 5.47381 7.5845 5.91893 7.5845 6.38306C7.5845 6.84719 7.40013 7.2923 7.07194 7.62049C6.74375 7.94868 6.29863 8.13306 5.8345 8.13306ZM4.66784 10.4664H7.00117V25.0497H4.66784V10.4664Z" fill="#C0C0C0"/>
</svg>
