<svg width="21" height="21" viewBox="0 0 21 21" fill="none" xmlns="http://www.w3.org/2000/svg">
<path d="M10.0011 7.14168C11.071 6.04851 12.464 5.33334 14.0845 5.33334C15.7863 5.33334 17.4184 6.00938 18.6217 7.21274C19.8251 8.4161 20.5011 10.0482 20.5011 11.75V20.5H18.1678V11.75C18.1678 10.667 17.7376 9.62843 16.9718 8.86266C16.2061 8.09688 15.1674 7.66668 14.0845 7.66668C13.0015 7.66668 11.9629 8.09688 11.1971 8.86266C10.4313 9.62843 10.0011 10.667 10.0011 11.75V20.5H7.66781V5.91668H10.0011V7.14168ZM1.83447 3.58334C1.37034 3.58334 0.925224 3.39897 0.597036 3.07078C0.268847 2.74259 0.0844727 2.29747 0.0844727 1.83334C0.0844727 1.36921 0.268847 0.924095 0.597036 0.595907C0.925224 0.267718 1.37034 0.0833435 1.83447 0.0833435C2.2986 0.0833435 2.74372 0.267718 3.07191 0.595907C3.4001 0.924095 3.58447 1.36921 3.58447 1.83334C3.58447 2.29747 3.4001 2.74259 3.07191 3.07078C2.74372 3.39897 2.2986 3.58334 1.83447 3.58334ZM0.667806 5.91668H3.00114V20.5H0.667806V5.91668Z" fill="#000080"/>
</svg>
