<svg width="29" height="30" viewBox="0 0 29 30" fill="none" xmlns="http://www.w3.org/2000/svg">
<path d="M12.0243 10.6293V6.02037C12.0243 5.5792 11.9692 5.52618 11.5344 5.62374C10.0497 5.95462 8.76434 6.69061 7.60838 7.64931C6.32942 8.71193 5.41102 10.0588 4.78956 11.5901C4.39505 12.5658 4.16386 13.5945 4.11508 14.6571C4.05145 16.04 4.22113 17.389 4.72169 18.6786C5.12256 19.7051 5.64433 20.6744 6.38668 21.508C7.29448 22.5282 8.32104 23.4127 9.54699 24.0235C11.5768 25.0374 13.7254 25.2728 15.9376 24.8359C17.7405 24.4795 19.3058 23.6651 20.6653 22.3946C22.2773 20.8887 23.2148 19.0519 23.6623 16.9287C23.7217 16.6466 23.7684 16.3539 23.7726 16.0676C23.8002 14.0611 23.8235 12.0546 23.8299 10.0482C23.8341 8.94949 23.7938 7.84868 23.7917 6.75C23.7917 6.46366 23.7238 6.32155 23.4099 6.26429C22.7057 6.13491 22.5785 5.81887 22.956 5.18469C23.6814 3.97147 24.4216 2.76674 25.1555 1.55564C25.3252 1.27567 25.4694 0.982971 25.6518 0.713603C25.7642 0.548164 25.9148 0.450598 26.0675 0.70724C26.8184 1.9756 27.5735 3.23973 28.3285 4.50597C28.5025 4.79655 28.67 5.08925 28.8503 5.37346C29.09 5.751 28.9776 6.05006 28.5449 6.16248C28.1313 6.27065 27.9234 6.54214 27.9213 6.97483C27.9213 9.79365 27.9383 12.6104 27.9149 15.4292C27.898 17.6796 27.3189 19.79 26.2542 21.7795C25.4694 23.2472 24.4619 24.5304 23.2233 25.627C21.6643 27.0078 19.8975 28.0152 17.8741 28.5752C16.4657 28.9655 15.0468 29.2242 13.5833 29.15C11.0932 29.0248 8.75373 28.4098 6.62636 27.0438C5.49798 26.3184 4.46929 25.4849 3.5721 24.4986C2.49887 23.3172 1.67592 21.9661 1.0587 20.4941C0.354529 18.8101 -0.0124059 17.0348 0.000320129 15.2298C0.0194092 12.551 0.685407 10.027 2.16799 7.74051C3.23062 6.10309 4.52231 4.70534 6.13004 3.6109C7.30508 2.80916 8.6095 2.27042 9.94574 1.7932C11.3753 1.27991 12.8452 1.18871 14.3384 1.2078C14.7838 1.21416 15.2313 1.18659 15.6767 1.15689C15.9015 1.14205 16.0288 1.23749 16.0649 1.44323C16.0924 1.59594 16.0945 1.75502 16.0924 1.91197C16.0712 3.82088 16.0288 5.73191 16.0288 7.64082C16.0288 10.0227 16.0733 12.4046 16.0882 14.7844C16.0882 15.0962 16.0585 15.4122 16.0139 15.7219C15.9079 16.4812 15.4052 16.9499 14.7604 17.2532C13.9269 17.6456 12.4061 17.1663 12.1092 15.8788C12.0455 15.5989 12.0243 15.304 12.0222 15.0156C12.0137 13.5521 12.018 12.0886 12.018 10.6251L12.0243 10.6293Z" fill="white"/>
<path d="M18.5316 14.2202C18.5613 13.5818 18.6037 12.9412 18.6143 12.3028C18.6249 11.8086 18.61 11.3123 18.5719 10.8202C18.5655 10.7311 18.3958 10.6081 18.2834 10.5827C17.522 10.413 17.418 10.2454 17.8019 9.55397C18.3067 8.64617 18.8561 7.76383 19.3842 6.86877C19.6663 6.39154 19.9357 5.90583 20.2263 5.43284C20.2941 5.32255 20.4256 5.17832 20.5274 5.18044C20.6335 5.18044 20.7714 5.32043 20.8392 5.43072C21.518 6.57395 22.1818 7.72566 22.8563 8.86888C23.0154 9.13825 23.219 9.38429 23.3696 9.6579C23.6326 10.1351 23.5032 10.4193 22.9687 10.5021C22.5997 10.5593 22.4597 10.7205 22.466 11.1002C22.4873 12.3919 22.5 13.6836 22.4745 14.9731C22.4364 16.7739 21.9931 18.4643 20.9601 19.966C19.5454 22.017 17.5983 23.2302 15.1295 23.5675C13.0678 23.8475 11.1356 23.4529 9.37729 22.3203C7.92652 21.385 6.91904 20.0869 6.19578 18.5174C5.68673 17.4166 5.5319 16.2712 5.51493 15.1004C5.49372 13.673 5.89459 12.3367 6.56483 11.0747C7.07175 10.1182 7.78653 9.33974 8.58403 8.63133C8.7622 8.47225 8.97854 8.35347 9.18216 8.22409C9.35396 8.1138 9.46001 8.17107 9.4791 8.36832C9.49395 8.51255 9.48758 8.6589 9.48546 8.80313C9.46425 10.0354 9.44728 11.2677 9.41971 12.5C9.3985 13.4545 9.3476 14.4068 9.34548 15.3613C9.33911 17.4144 10.9956 19.3552 13.0212 19.72C14.7307 20.0275 16.1857 19.5291 17.382 18.3116C18.1159 17.565 18.5061 16.6275 18.5528 15.5713C18.5719 15.1237 18.557 14.6762 18.557 14.2287H18.5337V14.2202H18.5316Z" fill="white"/>
</svg>
