<svg width="172" height="31" viewBox="0 0 172 31" fill="none" xmlns="http://www.w3.org/2000/svg">
<path d="M12.0243 10.6293V6.02034C12.0243 5.57917 11.9692 5.52614 11.5344 5.62371C10.0497 5.95459 8.76434 6.69058 7.60838 7.64928C6.32942 8.7119 5.41102 10.0587 4.78956 11.5901C4.39505 12.5658 4.16386 13.5945 4.11508 14.6571C4.05145 16.04 4.22113 17.389 4.72169 18.6785C5.12256 19.7051 5.64433 20.6744 6.38668 21.508C7.29448 22.5282 8.32104 23.4126 9.54699 24.0235C11.5768 25.0373 13.7254 25.2728 15.9376 24.8358C17.7405 24.4795 19.3058 23.665 20.6653 22.3945C22.2773 20.8886 23.2148 19.0518 23.6623 16.9287C23.7217 16.6466 23.7684 16.3539 23.7726 16.0676C23.8002 14.0611 23.8235 12.0546 23.8299 10.0481C23.8341 8.94946 23.7938 7.84865 23.7917 6.74997C23.7917 6.46363 23.7238 6.32152 23.4099 6.26426C22.7057 6.13487 22.5785 5.81884 22.956 5.18466C23.6814 3.97144 24.4216 2.76671 25.1555 1.55561C25.3252 1.27564 25.4694 0.982941 25.6518 0.713572C25.7642 0.548133 25.9148 0.450567 26.0675 0.707209C26.8184 1.97557 27.5735 3.2397 28.3285 4.50594C28.5025 4.79652 28.67 5.08922 28.8503 5.37343C29.09 5.75097 28.9776 6.05003 28.5449 6.16245C28.1313 6.27062 27.9234 6.54211 27.9213 6.9748C27.9213 9.79362 27.9383 12.6103 27.9149 15.4291C27.898 17.6795 27.3189 19.7899 26.2542 21.7794C25.4694 23.2472 24.4619 24.5304 23.2233 25.627C21.6643 27.0077 19.8975 28.0152 17.8741 28.5752C16.4657 28.9654 15.0468 29.2242 13.5833 29.15C11.0932 29.0248 8.75373 28.4097 6.62636 27.0438C5.49798 26.3184 4.46929 25.4849 3.5721 24.4986C2.49887 23.3172 1.67592 21.9661 1.0587 20.4941C0.354529 18.81 -0.0124059 17.0347 0.000320129 15.2298C0.0194092 12.5509 0.685407 10.0269 2.16799 7.74048C3.23062 6.10306 4.52231 4.70531 6.13004 3.61087C7.30508 2.80913 8.6095 2.27039 9.94574 1.79317C11.3753 1.27988 12.8452 1.18868 14.3384 1.20777C14.7838 1.21413 15.2313 1.18656 15.6767 1.15686C15.9015 1.14202 16.0288 1.23746 16.0649 1.4432C16.0924 1.59591 16.0945 1.75499 16.0924 1.91194C16.0712 3.82085 16.0288 5.73188 16.0288 7.64079C16.0288 10.0227 16.0733 12.4046 16.0882 14.7844C16.0882 15.0961 16.0585 15.4122 16.0139 15.7218C15.9079 16.4812 15.4052 16.9499 14.7604 17.2532C13.9269 17.6456 12.4061 17.1663 12.1092 15.8788C12.0455 15.5988 12.0243 15.304 12.0222 15.0155C12.0137 13.552 12.018 12.0886 12.018 10.6251L12.0243 10.6293Z" fill="#F6F5F6"/>
<path d="M18.5316 14.2202C18.5613 13.5817 18.6037 12.9412 18.6143 12.3028C18.6249 11.8086 18.6101 11.3123 18.5719 10.8202C18.5655 10.7311 18.3959 10.6081 18.2834 10.5826C17.522 10.4129 17.4181 10.2454 17.802 9.55394C18.3068 8.64614 18.8561 7.7638 19.3842 6.86874C19.6663 6.39151 19.9357 5.9058 20.2263 5.43281C20.2942 5.32252 20.4257 5.17829 20.5275 5.18041C20.6335 5.18041 20.7714 5.3204 20.8393 5.43069C21.518 6.57392 22.1819 7.72563 22.8563 8.86885C23.0154 9.13822 23.219 9.38425 23.3696 9.65787C23.6326 10.1351 23.5033 10.4193 22.9688 10.502C22.5997 10.5593 22.4597 10.7205 22.4661 11.1002C22.4873 12.3918 22.5 13.6835 22.4746 14.9731C22.4364 16.7739 21.9931 18.4643 20.9602 19.966C19.5454 22.017 17.5984 23.2302 15.1295 23.5675C13.0679 23.8474 11.1356 23.4529 9.37732 22.3203C7.92655 21.3849 6.91907 20.0869 6.19581 18.5173C5.68676 17.4165 5.53193 16.2712 5.51496 15.1004C5.49375 13.6729 5.89462 12.3367 6.56486 11.0747C7.07178 10.1181 7.78656 9.33971 8.58406 8.6313C8.76223 8.47222 8.97857 8.35344 9.18219 8.22406C9.35399 8.11377 9.46004 8.17104 9.47913 8.36829C9.49398 8.51252 9.48761 8.65887 9.48549 8.8031C9.46428 10.0354 9.44731 11.2677 9.41974 12.5C9.39853 13.4545 9.34763 14.4068 9.34551 15.3613C9.33914 17.4144 10.9957 19.3551 13.0212 19.7199C14.7308 20.0275 16.1858 19.529 17.382 18.3116C18.1159 17.565 18.5062 16.6275 18.5528 15.5712C18.5719 15.1237 18.5571 14.6762 18.5571 14.2286H18.5337V14.2202H18.5316Z" fill="#F6F5F6"/>
<path d="M97.9239 23.4009C97.7125 23.2932 97.5573 23.1481 97.4581 22.9656L90.2773 9.91909C90.1652 9.73668 90.1091 9.52939 90.1091 9.29308C90.1091 8.99459 90.2299 8.74169 90.4714 8.53026C90.7129 8.32297 91.0321 8.21933 91.4288 8.21933H92.6839C92.9383 8.21933 93.1669 8.26908 93.3739 8.37272C93.5809 8.47636 93.7319 8.61733 93.831 8.79974L99.6964 19.2594L105.519 8.79974C105.618 8.61733 105.769 8.47636 105.976 8.37272C106.183 8.27322 106.411 8.21933 106.666 8.21933H107.623C108.128 8.21933 108.533 8.33541 108.844 8.55928C109.154 8.78315 109.31 9.13555 109.279 9.47964C109.266 9.64133 109.215 9.78643 109.137 9.91909L101.892 22.9781C101.792 23.1605 101.641 23.3014 101.434 23.4051C101.227 23.5087 100.999 23.5585 100.744 23.5585H98.6398C98.3853 23.5585 98.1524 23.5046 97.9368 23.3968L97.9239 23.4009Z" fill="#F6F5F6"/>
<path d="M143.469 23.4009C143.258 23.2932 143.103 23.1481 143.003 22.9656L135.823 9.91909C135.711 9.73668 135.654 9.52939 135.654 9.29308C135.654 8.99459 135.775 8.74169 136.017 8.53026C136.258 8.32297 136.577 8.21933 136.974 8.21933H138.229C138.484 8.21933 138.712 8.26908 138.919 8.37272C139.126 8.47636 139.277 8.61733 139.376 8.79974L145.242 19.2594L151.064 8.79974C151.163 8.61733 151.314 8.47636 151.521 8.37272C151.728 8.27322 151.957 8.21933 152.211 8.21933H153.169C153.673 8.21933 154.079 8.33541 154.389 8.55928C154.7 8.78315 154.855 9.13555 154.825 9.47964C154.812 9.64133 154.76 9.78643 154.682 9.91909L147.437 22.9781C147.338 23.1605 147.187 23.3014 146.98 23.4051C146.773 23.5087 146.544 23.5585 146.29 23.5585H144.185C143.931 23.5585 143.698 23.5046 143.482 23.3968L143.469 23.4009Z" fill="#F6F5F6"/>
<path d="M67.3886 30.3795C67.7848 29.4421 68.0873 28.5942 68.5134 27.8102C68.654 27.5503 69.11 27.3415 69.4295 27.3245C71.0231 27.2478 72.6209 27.2563 74.2187 27.2094C74.9687 27.1881 75.7228 27.1668 76.46 27.0433C77.8874 26.8046 78.9824 25.3005 78.7225 23.8902C78.6799 23.6644 78.1643 23.3746 77.866 23.3704C75.578 23.3278 73.2899 23.3491 71.0018 23.3448C66.9667 23.3363 64.6105 21.0695 64.5252 17.0387C64.4954 15.6965 64.5082 14.3331 64.7042 13.0079C65.0025 10.9798 66.1103 9.46715 68.0916 8.75132C68.85 8.47863 69.6681 8.24427 70.4649 8.23575C72.7786 8.21444 75.1093 8.17611 77.4059 8.40619C80.2905 8.69593 82.0374 10.7156 82.0801 13.5959C82.1354 17.3839 82.1781 21.176 82.0801 24.9597C81.9906 28.509 80.38 30.2261 76.5494 30.4647C73.831 30.6309 71.0998 30.5031 68.3728 30.4988C68.049 30.4988 67.7252 30.4264 67.3928 30.3838L67.3886 30.3795ZM74.1932 19.8807C74.1932 19.8807 74.1932 19.9148 74.1932 19.9319C75.4757 19.9319 76.7582 19.9659 78.0365 19.902C78.2793 19.8892 78.7054 19.5058 78.7054 19.2885C78.7225 17.6012 78.6799 15.9096 78.6074 14.2223C78.5478 12.829 77.9342 11.9299 76.5793 11.8405C74.4105 11.6956 72.2161 11.7382 70.0431 11.8745C68.9012 11.947 68.2024 12.9227 68.147 14.0859C68.1001 15.083 68.1385 16.0885 68.1086 17.0856C68.0575 18.8411 68.7393 19.5526 70.8228 19.8466C71.9264 20 73.0683 19.8722 74.1932 19.8722V19.8807Z" fill="#F6F5F6"/>
<path d="M158.981 17.6405C159.214 19.2646 159.78 19.9518 161.092 20.0088C163.22 20.1007 165.357 20.1357 167.485 20.07C168.616 20.035 169.311 20.4115 169.657 21.6066C169.834 22.2238 170.162 22.7885 170.494 23.5414C170.019 23.5414 169.708 23.5414 169.393 23.5414C166.644 23.5414 163.894 23.5896 161.144 23.5239C159.085 23.4758 157.086 22.8235 156.236 20.6654C154.975 17.4522 154.833 14.0508 156.374 10.8508C157.173 9.19172 158.744 8.41251 160.389 8.31183C162.625 8.17612 164.904 8.163 167.123 8.4563C169.795 8.81088 171.414 11.1091 171.444 14.0333C171.478 17.1327 171.077 17.531 168.215 17.4829C165.612 17.4391 163.009 17.461 160.406 17.4741C159.948 17.4741 159.491 17.5748 158.977 17.6361L158.981 17.6405ZM168.133 14.0333C168.193 13.867 168.254 13.7006 168.314 13.5343C167.766 13.0265 167.248 12.1378 166.661 12.0765C164.649 11.8664 162.607 11.8664 160.583 11.9627C159.642 12.0065 159.085 12.974 159.059 14.1603C162.085 14.0421 165.115 14.3748 168.133 14.0333Z" fill="#F6F5F6"/>
<path d="M62.4405 8.17726V23.5462C61.3667 23.5462 60.408 23.6016 59.4621 23.5121C59.1809 23.4866 58.823 23.1031 58.7122 22.8176C58.5716 22.4427 58.6227 21.9995 58.6227 21.5862C58.6227 17.4489 58.644 13.3116 58.6184 9.17429C58.6142 8.43716 58.8571 8.12186 59.6794 8.16447C60.5316 8.21134 61.388 8.173 62.4405 8.173V8.17726Z" fill="#F6F5F6"/>
<path d="M60.5869 1.82855C61.9845 1.80725 62.7557 2.55716 62.8068 3.98455C62.8537 5.22021 62.0697 5.89344 60.5869 5.89344C59.1595 5.89344 58.2818 5.13926 58.2477 3.88656C58.2178 2.63386 59.1084 1.84986 60.5869 1.82855Z" fill="#F6F5F6"/>
<path d="M88.0365 8.17726V23.5462C86.9628 23.5462 86.0041 23.6016 85.0582 23.5121C84.777 23.4866 84.419 23.1031 84.3083 22.8176C84.1676 22.4427 84.2188 21.9995 84.2188 21.5862C84.2188 17.4489 84.2401 13.3116 84.2145 9.17429C84.2103 8.43716 84.4531 8.12186 85.2755 8.16447C86.1276 8.21134 86.9841 8.173 88.0365 8.173V8.17726Z" fill="#F6F5F6"/>
<path d="M86.183 1.82855C87.5805 1.80725 88.3518 2.55716 88.4029 3.98455C88.4498 5.22021 87.6657 5.89344 86.183 5.89344C84.7556 5.89344 83.8778 5.13926 83.8437 3.88656C83.8139 2.63386 84.7044 1.84986 86.183 1.82855Z" fill="#F6F5F6"/>
<path d="M133.951 0.573229V23.5351C132.89 23.5351 131.935 23.616 131.002 23.484C130.725 23.4456 130.367 22.8747 130.261 22.4443C130.12 21.8861 130.171 21.2257 130.171 20.6079C130.171 14.4253 130.193 8.24283 130.167 2.0603C130.163 0.96099 130.401 0.488021 131.215 0.556195C132.059 0.624369 132.907 0.573229 133.951 0.573229Z" fill="#F6F5F6"/>
<path d="M123.109 8.21933H116.335C113.395 8.21933 110.987 10.746 110.987 13.8313V17.9465C110.987 21.0361 113.395 23.5585 116.335 23.5585H123.109C126.049 23.5585 128.457 21.0318 128.457 17.9465V13.8313C128.457 10.7417 126.049 8.21933 123.109 8.21933ZM124.89 18.1385C124.89 19.1684 124.086 20.0106 123.109 20.0106H116.335C115.354 20.0106 114.554 19.1684 114.554 18.1385V13.648C114.554 12.6182 115.358 11.7759 116.335 11.7759H123.109C124.091 11.7759 124.89 12.6182 124.89 13.648V18.1385Z" fill="#F6F5F6"/>
<path d="M56.5386 0.549774C56.5386 1.3636 56.5386 1.90898 56.5386 2.45437C56.5386 7.55464 56.5428 12.6549 56.5386 17.7594C56.5343 20.9295 54.4806 23.2645 51.319 23.4264C48.5409 23.567 45.7458 23.5329 42.9634 23.4136C40.5816 23.3114 38.6258 21.5559 38.1742 19.1229C37.7396 16.7837 37.697 14.3976 38.3105 12.0669C38.9241 9.74047 40.556 8.30456 42.9677 8.16396C45.8821 7.99352 48.8051 7.95944 51.7238 7.95518C52.6356 7.95518 52.9893 7.75066 52.9381 6.78344C52.8572 5.32622 52.9381 3.86046 52.9126 2.39898C52.904 1.86211 53.0702 1.58516 53.6284 1.44455C54.5573 1.21446 55.4648 0.886383 56.5428 0.549774H56.5386ZM48.6389 11.4832C48.6389 11.4406 48.6389 11.398 48.6389 11.3553C47.8592 11.3553 47.0794 11.3255 46.3039 11.3639C45.5285 11.398 44.7487 11.432 43.9903 11.5812C42.4308 11.8922 41.7192 12.7827 41.6979 14.355C41.6851 15.2966 41.6937 16.234 41.7065 17.1757C41.732 18.9312 42.4819 19.8941 44.2374 19.9794C46.2698 20.0816 48.3236 20.0475 50.3518 19.8814C52.3203 19.7237 52.8359 19.0675 52.8955 17.0607C52.9466 15.4714 52.8955 13.8821 52.9211 12.2927C52.9296 11.7175 52.7293 11.4619 52.1371 11.4746C50.9696 11.4959 49.8021 11.4832 48.6389 11.4832Z" fill="#F6F5F6"/>
</svg>
