<svg width="57" height="58" viewBox="0 0 57 58" fill="none" xmlns="http://www.w3.org/2000/svg">
<rect y="29" width="40" height="40" rx="4" transform="rotate(-45 0 29)" fill="#181818"/>
<path d="M23.6875 18.5C23.041 18.5 22.421 18.7568 21.9639 19.2139C21.5068 19.671 21.25 20.291 21.25 20.9375V37.0625C21.25 37.709 21.5068 38.329 21.9639 38.7861C22.421 39.2432 23.041 39.5 23.6875 39.5H32.3125C32.959 39.5 33.579 39.2432 34.0361 38.7861C34.4932 38.329 34.75 37.709 34.75 37.0625V20.9375C34.75 20.291 34.4932 19.671 34.0361 19.2139C33.579 18.7568 32.959 18.5 32.3125 18.5H23.6875ZM22.75 20.9375C22.75 20.42 23.17 20 23.6875 20H32.3125C32.83 20 33.25 20.42 33.25 20.9375V37.0625C33.25 37.58 32.83 38 32.3125 38H23.6875C23.17 38 22.75 37.58 22.75 37.0625V20.9375ZM26.5 35C26.3011 35 26.1103 35.079 25.9697 35.2197C25.829 35.3603 25.75 35.5511 25.75 35.75C25.75 35.9489 25.829 36.1397 25.9697 36.2803C26.1103 36.421 26.3011 36.5 26.5 36.5H29.5C29.6989 36.5 29.8897 36.421 30.0303 36.2803C30.171 36.1397 30.25 35.9489 30.25 35.75C30.25 35.5511 30.171 35.3603 30.0303 35.2197C29.8897 35.079 29.6989 35 29.5 35H26.5Z" fill="white"/>
</svg>
