<svg width="41" height="41" viewBox="0 0 41 41" fill="none" xmlns="http://www.w3.org/2000/svg">
<path d="M38.1001 38.0499H28.1001V28.0499H38.1001V38.0499ZM30.6001 35.5499H35.6001V30.5499H30.6001V35.5499ZM25.6001 34.2999H10.6001C8.61097 34.2999 6.70332 33.5098 5.2968 32.1032C3.89027 30.6967 3.1001 28.7891 3.1001 26.7999C3.1001 24.8108 3.89027 22.9031 5.2968 21.4966C6.70332 20.0901 8.61097 19.2999 10.6001 19.2999H13.1001V21.7999H10.6001C9.27402 21.7999 8.00225 22.3267 7.06456 23.2644C6.12688 24.2021 5.6001 25.4738 5.6001 26.7999C5.6001 28.126 6.12688 29.3978 7.06456 30.3355C8.00225 31.2731 9.27402 31.7999 10.6001 31.7999H25.6001V34.2999Z" fill="#FF6B43"/>
<path d="M25.6001 25.5499H15.6001V15.5499H25.6001V25.5499ZM18.1001 23.0499H23.1001V18.0499H18.1001V23.0499Z" fill="#FF6B43"/>
<path d="M30.6001 21.7999H28.1001V19.2999H30.6001C31.9262 19.2999 33.1979 18.7731 34.1356 17.8355C35.0733 16.8978 35.6001 15.626 35.6001 14.2999C35.6001 12.9738 35.0733 11.7021 34.1356 10.7644C33.1979 9.82671 31.9262 9.29993 30.6001 9.29993H15.6001V6.79993H30.6001C32.5892 6.79993 34.4969 7.5901 35.9034 8.99663C37.3099 10.4031 38.1001 12.3108 38.1001 14.2999C38.1001 16.2891 37.3099 18.1967 35.9034 19.6032C34.4969 21.0098 32.5892 21.7999 30.6001 21.7999ZM13.1001 13.0499H3.1001V3.04993H13.1001V13.0499ZM5.6001 10.5499H10.6001V5.54993H5.6001V10.5499Z" fill="#FF6B43"/>
</svg>
