<svg width="1440" height="387" viewBox="0 0 1440 387" fill="none" xmlns="http://www.w3.org/2000/svg">
<path d="M1408 387C1408 321.226 1333.57 258.147 1201.07 211.638C1068.58 165.129 888.876 139 701.5 139C514.125 139 334.424 165.128 201.929 211.637C69.4347 258.147 -4.99997 321.226 -5 387" stroke="url(#paint0_linear_159_791)" stroke-width="4"/>
<path d="M1408 262C1408 196.226 1333.57 133.147 1201.07 86.6375C1068.58 40.1285 888.876 14 701.5 14C514.125 14 334.424 40.1285 201.929 86.6375C69.4347 133.147 -4.99997 196.226 -5 262" stroke="url(#paint1_linear_159_791)" stroke-width="4"/>
<path d="M977.352 155H1057.35" stroke="#000080" stroke-opacity="0.25"/>
<path d="M929.352 155H849.352" stroke="url(#paint2_linear_159_791)" stroke-opacity="0.8"/>
<g filter="url(#filter0_b_159_791)">
<rect x="929.352" y="130" width="48" height="48" rx="8" fill="#F6F5F6"/>
<rect x="930.102" y="130.75" width="46.5" height="46.5" rx="7.25" stroke="url(#paint3_linear_159_791)" stroke-opacity="0.8" stroke-width="1.5"/>
</g>
<g clip-path="url(#clip0_159_791)">
<path d="M954.351 163C952.924 161.974 950.761 159.146 950.351 157C949.865 157.77 948.85 159 948.351 159C946.852 158.112 947.777 155.027 948.351 153C946.755 151.567 945.883 150.542 945.851 149C942.501 145.56 945.407 143.73 948.351 146H949.351C957.833 146.5 955.772 154.07 958.351 157.5C960.646 158.022 962.016 159.754 963.351 161C961.265 160.8 960.567 160.656 959.851 161C960.329 162.64 961.974 163.2 963.351 164" stroke="#FF6B43" stroke-width="1.5" stroke-linecap="round" stroke-linejoin="round"/>
<path d="M950.352 149H950.362" stroke="#E8FEFF" stroke-linecap="round" stroke-linejoin="round"/>
</g>
<path d="M467 155H547" stroke="#000080" stroke-opacity="0.25"/>
<path d="M419 155H339" stroke="url(#paint4_linear_159_791)" stroke-opacity="0.8"/>
<g filter="url(#filter1_b_159_791)">
<rect x="419" y="130" width="48" height="48" rx="8" fill="#F6F5F6"/>
<rect x="419.75" y="130.75" width="46.5" height="46.5" rx="7.25" stroke="url(#paint5_linear_159_791)" stroke-opacity="0.8" stroke-width="1.5"/>
</g>
<g clip-path="url(#clip1_159_791)">
<path d="M452 156L443 163L434 156L437 145L440 152H446L449 145L452 156Z" stroke="#B0B0B0" stroke-width="1.5" stroke-linecap="round" stroke-linejoin="round"/>
</g>
<path d="M1365 298H1445" stroke="#000080" stroke-opacity="0.25"/>
<path d="M1317 298H1237" stroke="url(#paint6_linear_159_791)" stroke-opacity="0.8"/>
<g filter="url(#filter2_b_159_791)">
<rect x="1317" y="273" width="48" height="48" rx="8" fill="#F6F5F6"/>
<rect x="1317.75" y="273.75" width="46.5" height="46.5" rx="7.25" stroke="url(#paint7_linear_159_791)" stroke-opacity="0.8" stroke-width="1.5"/>
</g>
<g clip-path="url(#clip2_159_791)">
<path d="M1338 304C1333.7 305.4 1333.7 301.5 1332 301M1344 306V302.5C1344 301.5 1344.1 301.1 1343.5 300.5C1346.3 300.2 1349 299.1 1349 294.5C1349 293.305 1348.53 292.157 1347.7 291.3C1348.09 290.262 1348.05 289.112 1347.6 288.1C1347.6 288.1 1346.5 287.8 1344.1 289.4C1342.07 288.871 1339.93 288.871 1337.9 289.4C1335.5 287.8 1334.4 288.1 1334.4 288.1C1333.95 289.112 1333.91 290.262 1334.3 291.3C1333.47 292.157 1333 293.305 1333 294.5C1333 299.1 1335.7 300.2 1338.5 300.5C1337.9 301.1 1337.9 301.7 1338 302.5V306" stroke="#08DEF5" stroke-width="1.5" stroke-linecap="round" stroke-linejoin="round"/>
</g>
<path d="M532 25H612" stroke="#000080" stroke-opacity="0.25"/>
<path d="M484 25H404" stroke="url(#paint8_linear_159_791)" stroke-opacity="0.8"/>
<g filter="url(#filter3_b_159_791)">
<rect x="484" width="48" height="48" rx="8" fill="#F6F5F6"/>
<rect x="484.75" y="0.75" width="46.5" height="46.5" rx="7.25" stroke="url(#paint9_linear_159_791)" stroke-opacity="0.8" stroke-width="1.5"/>
</g>
<g clip-path="url(#clip3_159_791)">
<path d="M505 31C500.7 32.4 500.7 28.5 499 28M511 33V29.5C511 28.5 511.1 28.1 510.5 27.5C513.3 27.2 516 26.1 516 21.5C515.999 20.305 515.533 19.1573 514.7 18.3C515.09 17.262 515.055 16.1116 514.6 15.1C514.6 15.1 513.5 14.8 511.1 16.4C509.067 15.8706 506.933 15.8706 504.9 16.4C502.5 14.8 501.4 15.1 501.4 15.1C500.945 16.1116 500.91 17.262 501.3 18.3C500.467 19.1573 500.001 20.305 500 21.5C500 26.1 502.7 27.2 505.5 27.5C504.9 28.1 504.9 28.7 505 29.5V33" stroke="#08DEF5" stroke-width="1.5" stroke-linecap="round" stroke-linejoin="round"/>
</g>
<path d="M45 258.001C45 235.908 62.9076 218 84.9999 218C107.091 218 125 235.908 125 258.001C125 280.092 107.091 298 84.9999 298C62.9079 298 45 280.092 45 258.001Z" fill="#95C11F"/>
<mask id="mask0_159_791" style="mask-type:luminance" maskUnits="userSpaceOnUse" x="45" y="218" width="80" height="80">
<path d="M45 258.001C45 235.908 62.9076 218 84.9999 218C107.091 218 125 235.908 125 258.001C125 280.092 107.091 298 84.9999 298C62.9079 298 45 280.092 45 258.001Z" fill="white"/>
</mask>
<g mask="url(#mask0_159_791)">
<path d="M97.2418 262.52C92.4451 268.215 86.3693 270.103 83.989 270.093C81.5564 270.082 74.9833 268.382 70.1009 262.413C67.3336 259.034 66.2122 252.391 65.5 247.756C65.0911 245.093 64.7373 236.794 65.8547 233.592C62.5293 229.777 64.1534 226.191 64.1534 226.191C64.1534 226.191 65.5258 229.711 73.8429 227.738C76.3088 227.153 80.7005 226.559 83.4564 226.082C87.5132 225.382 91.7964 226 92.3689 228.307C97.0514 228.16 99.4138 230.6 100.563 232.687C102.236 235.727 102.847 239.984 102.398 244.029C101.806 249.371 100.12 259.106 97.2418 262.52Z" fill="#301B16"/>
<path d="M68.6493 251.612C68.6493 251.612 69.2351 247.191 65.3931 248.256C62.4384 249.077 65.4387 257.29 67.3815 257.997C69.041 258.606 69.408 257.332 69.408 257.332L68.6493 251.612Z" fill="#F9BB8D"/>
<path d="M98.9248 251.732C98.9248 251.732 98.3732 247.306 102.204 248.401C105.154 249.247 102.088 257.434 100.14 258.127C98.474 258.722 98.1182 257.447 98.1182 257.447L98.9248 251.732Z" fill="#F9BB8D"/>
<path d="M105.291 301.586L107.47 279.163C107.47 279.163 99.4531 275.61 94.8447 274.485C90.5056 273.426 85.4177 273.521 84.886 273.535C84.3553 273.517 79.2686 273.381 74.9217 274.407C70.3048 275.495 62.3926 278.985 62.3926 278.985C62.3926 278.985 63.9047 289.454 65.3777 301.586H105.291Z" fill="#F9BB8D"/>
<path d="M83.953 281.844C83.953 281.844 94.5467 274.633 93.904 274.276C90.1648 272.205 90.609 266.342 90.609 266.342L77.0452 265.58C77.0452 265.58 77.8706 273.873 73.849 274.883C73.5531 274.957 83.953 281.844 83.953 281.844Z" fill="#F9BB8D"/>
<path d="M76.8418 270.536C77.4039 270.723 77.9611 271.028 78.4878 271.479C80.27 273.006 84.4104 275.295 86.8944 274.526C88.7336 273.957 90.0023 272.534 91.2917 271.058C90.4168 268.836 90.6078 266.342 90.6078 266.342L77.044 265.58C77.044 265.58 77.2916 268.102 76.8418 270.536Z" fill="#E09D72"/>
<path d="M99.3054 253.73C98.6369 258.58 98.4305 261.383 95.609 264.803C93.6471 267.18 89.3658 270.765 86.2332 272.222C85.3534 272.631 82.53 272.677 81.6439 272.334C78.2204 271.011 73.4084 267.509 71.7319 264.708C69.4999 260.982 68.9046 258.013 68.2598 253.608C67.483 248.314 67.4135 250.18 67.4334 245.188C67.4723 235.021 71.4265 227.694 82.8241 227.738C94.2328 227.784 100.025 234.197 100.158 244.633C100.23 250.352 100.04 248.413 99.3054 253.73Z" fill="#F9BB8D"/>
<path d="M76.3394 263.554C75.5995 266.042 76.9928 269.777 77.4681 270.095C78.8975 271.045 80.3677 271.842 81.6439 272.334C82.5302 272.677 85.3536 272.631 86.2332 272.222C87.2128 271.767 88.3025 271.105 89.3999 270.335C89.9297 269.962 91.5378 265.983 91.2618 263.554C90.9852 261.124 86.8797 260.141 83.6397 260.2C80.4001 260.257 77.0792 261.067 76.3394 263.554Z" fill="#301B16"/>
<path d="M77.566 263.776C77.0894 265.379 79.3796 268.57 79.6866 268.774C80.6071 269.386 81.5562 269.9 82.378 270.218C82.6281 270.314 83.2813 266.965 83.8024 266.966C84.4682 266.969 85.0177 270.292 85.3373 270.145C85.9677 269.852 86.6706 269.423 87.3761 268.928C87.7183 268.69 90.1776 264.816 90.0008 263.248C89.8229 261.683 86.5886 262.976 83.4086 262.976C81.3205 262.976 78.0434 262.172 77.566 263.776Z" fill="#F9BB8D"/>
<path d="M73.1699 241.451C74.7067 239.866 86.3846 245.709 88.6461 245.393C91.9537 244.93 91.946 242.146 94.1276 242.154C99.1783 242.173 97.7345 248.385 98.5154 252.448C98.7255 253.54 98.9891 252.773 99.2818 253.901C99.2894 253.843 99.2971 253.788 99.3048 253.73C100.04 248.414 100.229 250.352 100.157 244.633C100.025 234.197 94.5576 227.091 83.1496 227.045C71.7522 227.001 67.4718 235.021 67.4328 245.188C67.4147 249.949 68.7652 248.461 69.4451 252.904C70.4284 250.85 71.3545 243.327 73.1699 241.451Z" fill="#E7DCD6"/>
<path d="M72.0137 239.957C75.3622 236.608 87.3207 249.178 92.2124 240.792C98.0058 240.889 97.2004 243.516 98.1179 245.6C98.5421 246.565 98.5277 254.538 98.5277 254.538C98.5277 254.538 99.2913 253.826 99.3048 253.73C100.04 248.413 100.874 250.496 100.802 244.776C100.67 234.34 94.5574 227.091 83.1493 227.045C71.752 227 66.9086 235.014 66.8686 245.182C66.8486 250.175 67.4821 248.313 68.2589 253.607C68.2703 253.689 69.4077 253.256 69.4077 253.256C69.4077 253.256 67.7333 244.236 72.0137 239.957Z" fill="#301B16"/>
<path d="M62.683 301.586L64.6658 295.654C64.6658 295.654 70.2642 276.661 62.3929 278.985C57.5105 280.427 54.2194 292.018 52.3096 301.586H62.683Z" fill="#F9BB8D"/>
<path d="M107.311 301.586H117.691C115.851 292.056 112.664 280.63 107.838 279.164C99.9863 276.778 105.434 295.817 105.434 295.817L107.311 301.586Z" fill="#F9BB8D"/>
<path d="M95.2996 251.657C95.2996 251.657 95.1476 252.505 94.38 253.224C93.8028 253.767 90.2879 254.119 89.9172 253.952C89.3655 253.702 88.6484 252.511 88.6484 252.511C88.6484 252.511 89.8923 250.818 91.4195 250.821C92.9432 250.828 95.2996 251.657 95.2996 251.657Z" fill="white"/>
<path d="M91.416 251.156C92.5192 251.161 94.0532 251.593 94.8186 251.833C94.9937 251.888 94.9023 252.491 94.6055 252.99C95.2361 252.415 95.2996 251.657 95.2996 251.657C95.2996 251.657 92.9432 250.828 91.4195 250.821C89.8923 250.818 88.6484 252.511 88.6484 252.511C88.6484 252.511 88.6961 252.681 88.8253 252.785C89.0994 252.445 90.0959 251.15 91.416 251.156Z" fill="#432918"/>
<path d="M93.0956 252.377C93.0919 253.231 92.3966 253.922 91.5426 253.918C90.6877 253.914 89.9973 253.22 90.001 252.364C90.0038 251.509 90.699 250.818 91.5549 250.823C92.4092 250.826 93.0996 251.521 93.0956 252.377Z" fill="#432918"/>
<path d="M92.8728 252.378C92.871 253.032 91.0374 251.185 91.6936 251.187C92.3479 251.19 92.8765 251.723 92.8728 252.378Z" fill="white"/>
<path d="M70.877 248.983C70.877 248.983 71.7519 248.427 73.7012 247.828C75.8238 247.181 78.7206 248.2 78.8326 248.201C79.0304 248.201 79.3233 248.151 79.3252 247.633C79.3271 247.112 79.1692 246.691 78.9714 246.69C78.8603 246.69 75.989 245.999 73.8323 246.629C72.1836 247.112 70.877 248.983 70.877 248.983Z" fill="#301B16"/>
<path d="M96.9881 249.086C96.9881 249.086 96.1303 248.522 94.2131 247.911C92.1247 247.244 89.2584 248.242 89.1472 248.242C88.9522 248.24 88.6651 248.187 88.667 247.669C88.6689 247.149 88.8286 246.729 89.0245 246.73C89.1331 246.73 91.9687 246.062 94.0913 246.71C95.7156 247.206 96.9881 249.086 96.9881 249.086Z" fill="#301B16"/>
<path d="M72.6621 251.568C72.6621 251.568 72.8067 252.416 73.5684 253.144C74.1419 253.69 77.6538 254.069 78.0245 253.904C78.5799 253.658 79.3056 252.474 79.3056 252.474C79.3056 252.474 78.0759 250.769 76.5496 250.764C75.0252 250.756 72.6621 251.568 72.6621 251.568Z" fill="white"/>
<path d="M76.5487 251.097C75.4455 251.092 73.9088 251.514 73.1414 251.746C72.9645 251.801 73.054 252.404 73.3451 252.904C72.7193 252.326 72.6621 251.568 72.6621 251.568C72.6621 251.568 75.0252 250.756 76.5496 250.764C78.0759 250.769 79.3056 252.474 79.3056 252.474C79.3056 252.474 79.2542 252.642 79.1259 252.747C78.8558 252.404 77.8697 251.103 76.5487 251.097Z" fill="#432918"/>
<path d="M74.8594 252.304C74.8547 253.158 75.5461 253.854 76.4001 253.859C77.255 253.862 77.9512 253.171 77.954 252.315C77.9577 251.462 77.2674 250.766 76.4124 250.762C75.5584 250.76 74.8624 251.45 74.8594 252.304Z" fill="#432918"/>
<path d="M75.0811 252.307C75.0783 252.961 76.9258 251.128 76.2698 251.127C75.6155 251.124 75.0827 251.652 75.0811 252.307Z" fill="white"/>
<path d="M83.7832 258.876L82.4004 257.772L83.8002 254.539L83.7832 258.876Z" fill="#E09D72"/>
<path d="M80.1842 264.827L79.1582 263.9L80.8737 264.346L86.844 264.302L88.5176 263.776L87.2206 264.829L80.1842 264.827Z" fill="#E09D72"/>
<path d="M80.5135 256.569C79.126 257.658 74.8077 257.717 73.1111 256.569C71.4146 255.42 69.41 250.983 71.1826 249.499C72.9572 248.018 80.5135 248.053 81.748 249.499C82.9821 250.949 81.9019 255.481 80.5135 256.569Z" stroke="#301B16" stroke-width="0.925415" stroke-miterlimit="10"/>
<path d="M87.4546 256.569C88.843 257.658 93.1615 257.717 94.858 256.569C96.5544 255.42 98.56 250.983 96.7864 249.499C95.0118 248.018 87.4544 248.053 86.221 249.499C84.9869 250.949 86.0671 255.481 87.4546 256.569Z" stroke="#301B16" stroke-width="0.925415" stroke-miterlimit="10"/>
<path d="M82.2881 250.861H85.6812" stroke="#301B16" stroke-width="0.925415" stroke-miterlimit="10"/>
<path d="M105.291 301.586L107.47 279.163C107.47 279.163 99.4531 275.611 94.8447 274.485C94.5519 280.674 89.0781 284.144 84.2965 284.144C79.5131 284.144 74.5652 280.045 74.5993 274.24C69.9824 275.328 62.3926 278.985 62.3926 278.985C62.3926 278.985 63.9047 289.454 65.3777 301.586H105.291Z" fill="#FDFDFD"/>
<path d="M105.292 301.586L106.059 293.685C106.025 293.704 105.989 293.718 105.953 293.735C102.617 295.561 102.847 298.318 102.715 301.586H105.292Z" fill="#E9E9E9"/>
<path d="M66.9544 301.586C65.7733 297.56 64.8051 294.324 64.3525 293.423C64.6836 295.975 65.0306 298.739 65.3777 301.586H66.9544Z" fill="#E9E9E9"/>
<path d="M62.683 301.586L64.6658 295.654C64.6658 295.654 70.2642 276.661 62.3929 278.985C57.5105 280.427 54.2194 292.018 52.3096 301.586H62.683Z" fill="#004B74"/>
<path d="M62.6826 301.586L64.6655 295.654C64.6655 295.654 65.5014 292.809 66.073 289.458C63.9779 292.741 61.049 295.141 60.1227 299.277C59.9476 300.053 59.7433 300.823 59.5273 301.586H62.6826Z" fill="#E9E9E9"/>
<path d="M107.311 301.586H117.691C115.851 292.056 112.664 280.63 107.838 279.164C99.9863 276.778 105.434 295.817 105.434 295.817L107.311 301.586Z" fill="#004B74"/>
<path d="M107.311 301.586H111.031C110.776 300.563 110.495 299.553 110.171 298.572C109.147 295.477 106.801 293.96 104.521 292.02C104.979 294.222 105.433 295.817 105.433 295.817L107.311 301.586Z" fill="#E9E9E9"/>
<path d="M93.4809 273.711C93.4809 273.711 91.7882 282.323 84.3135 282.12C76.812 281.917 75.7822 273.184 75.7822 273.184L74.5993 274.24C74.5993 274.24 73.9935 285.298 84.4599 285.068C94.9275 284.838 94.8445 274.485 94.8445 274.485L93.4809 273.711Z" fill="#E9E9E9"/>
<path d="M77.6245 301.586V295.557C74.7704 285.608 74.5833 277.132 74.5993 274.24C69.9824 275.328 62.3926 278.985 62.3926 278.985C62.3926 278.985 63.4777 289.111 64.4096 301.586H77.6245Z" fill="#004B74"/>
<path d="M105.642 301.586C106.502 289.122 107.47 279.163 107.47 279.163C107.47 279.163 99.4533 275.61 94.8449 274.485C94.709 277.363 94.4361 286.997 91.6592 295.477L91.7305 301.586H105.642Z" fill="#004B74"/>
<path d="M105.642 301.586C105.817 299.055 105.996 296.624 106.17 294.363C106.112 294.459 106.057 294.556 105.989 294.654C104.581 296.687 103.585 299.063 102.877 301.586H105.642Z" fill="#E9E9E9"/>
<path d="M94.2136 301.586L96.6337 295.171L93.5097 294.169L98.9856 292.781L101.608 276.2L94.8449 274.485C94.8449 274.485 94.5379 285.766 91.6592 295.477C91.6782 297.122 91.7059 299.413 91.7296 301.586H94.2136Z" fill="#01324F"/>
<path d="M75.9305 293.923L72.8075 294.926L75.321 301.586H77.709C77.7346 299.342 77.7622 296.939 77.7813 295.232C74.9035 285.52 74.5955 274.24 74.5955 274.24L67.834 275.956L70.4558 292.536L75.9305 293.923Z" fill="#01324F"/>
</g>
<path d="M1197 102C1197 79.9086 1214.91 62 1237 62C1259.09 62 1277 79.9086 1277 102C1277 124.092 1259.09 142 1237 142C1214.91 142 1197 124.092 1197 102Z" fill="#F59D16"/>
<mask id="mask1_159_791" style="mask-type:luminance" maskUnits="userSpaceOnUse" x="1197" y="62" width="80" height="80">
<path d="M1197 102C1197 79.9086 1214.91 62 1237 62C1259.09 62 1277 79.9086 1277 102C1277 124.092 1259.09 142 1237 142C1214.91 142 1197 124.092 1197 102Z" fill="white"/>
</mask>
<g mask="url(#mask1_159_791)">
<path d="M1247.1 121.728L1237.18 126.429L1227.25 121.728L1229 112.664H1244.86L1247.1 121.728Z" fill="#DBA87B"/>
<path d="M1251.83 93.1395C1251.35 99.0184 1250.22 105.917 1248.1 109.771C1246.68 112.365 1240.86 118.23 1236.93 118.23C1232.99 118.23 1227.46 112.571 1225.68 109.605C1223.91 106.64 1222.61 100.19 1222.03 93.1392C1221.1 81.6602 1228.7 76.5744 1236.93 76.5744C1245.16 76.5744 1252.75 81.6583 1251.83 93.1395Z" fill="#E4B58B"/>
<path d="M1254.73 97.9733C1254.52 99.2522 1253.42 101.495 1252.94 102.302C1252.62 102.845 1250.95 103.934 1250.21 103.865C1249.47 103.797 1249.75 101.8 1249.48 101.119C1249.2 100.438 1249.09 99.003 1249.13 97.4482C1249.19 94.9187 1250.72 93.94 1252.27 94.0837C1253.82 94.2292 1255.14 95.4758 1254.73 97.9733Z" fill="#E4B58B"/>
<path d="M1219.19 97.9733C1219.4 99.2522 1220.5 101.495 1220.98 102.302C1221.3 102.845 1222.97 103.934 1223.71 103.865C1224.45 103.797 1224.17 101.8 1224.44 101.119C1224.72 100.438 1224.83 99.003 1224.79 97.4482C1224.73 94.9187 1223.2 93.94 1221.65 94.0837C1220.1 94.2292 1218.78 95.4758 1219.19 97.9733Z" fill="#E4B58B"/>
<path d="M1223.26 92.9833C1223.26 92.9833 1224.35 91.3647 1225.01 91.1451C1226.57 90.6288 1229.27 89.8052 1229.79 89.8043C1230.69 89.8024 1232.17 90.4242 1232.17 90.4242L1231.64 91.554C1231.64 91.554 1230.48 90.8778 1229.45 90.8882C1228.9 90.8938 1227.03 91.1156 1225.27 91.6014C1224.64 91.7748 1223.26 92.9833 1223.26 92.9833Z" fill="#331B19"/>
<path d="M1250.52 93.0795C1250.52 93.0795 1249.48 91.4286 1248.83 91.1918C1247.28 90.6288 1244.61 89.7246 1244.09 89.7092C1243.19 89.6827 1241.69 90.2599 1241.69 90.2599L1242.19 91.4038C1242.19 91.4038 1243.36 90.7629 1244.4 90.8045C1244.95 90.8245 1246.81 91.1011 1248.55 91.6395C1249.18 91.8308 1250.52 93.0795 1250.52 93.0795Z" fill="#331B19"/>
<path d="M1221.95 94.0714L1223.4 99.5888L1224.55 99.2599C1224.55 99.2599 1221.87 89.6655 1223.25 87.0428C1224.63 84.4179 1225.86 83.2701 1227.42 83.1058C1228.98 82.943 1232.5 84.4182 1235.54 84.2545C1238.57 84.09 1242.51 81.7136 1243.98 81.7136C1245.46 81.7136 1248.98 84.09 1249.48 85.7295C1249.97 87.3717 1249.97 97.4026 1249.97 97.4026L1250.52 98.1948L1251.9 94.0714L1253.51 94.4851C1253.51 94.4851 1254.81 81.0565 1252.35 77.9412C1249.88 74.8238 1242.75 70.9717 1235.29 70.9717C1229 70.9717 1221.24 76.7106 1219.85 80.3196C1218.16 84.6778 1219.96 94.8408 1219.96 94.8408L1221.95 94.0714Z" fill="#331B19"/>
<path d="M1248.87 144.498V121.924L1236.62 125.719L1224.8 121.924V144.498H1248.87Z" fill="#E7E7E7"/>
<path d="M1236.97 125.719C1236.97 125.719 1233.62 126.88 1233.62 127.928C1233.62 128.975 1235.45 131.684 1235.45 131.684H1238.8C1238.8 131.684 1240.32 128.982 1240.32 127.928C1240.32 126.875 1236.97 125.719 1236.97 125.719Z" fill="#00B5CF"/>
<path d="M1239.98 144.498L1238.8 131.684H1235.45L1234.19 144.498H1239.98Z" fill="#00B5CF"/>
<path d="M1251.83 120.963L1241.19 127.96L1237.03 125.729L1246.14 116.498L1251.83 120.963Z" fill="white"/>
<path d="M1222.22 120.907L1232.57 127.96L1237.03 125.729L1227.89 116.464L1222.22 120.907Z" fill="white"/>
<path d="M1266.32 144.498C1265.37 134.956 1264.12 125.78 1262.74 124.142C1259.7 120.536 1247.46 117.533 1247.46 117.533L1243.59 144.498H1266.32Z" fill="#272127"/>
<path d="M1248.66 144.498L1255.17 131.526L1250.09 128.857L1253.81 126.615L1247.46 117.533L1243.68 144.498H1248.66Z" fill="#352E35"/>
<path d="M1230.41 144.498L1226.54 117.533C1226.54 117.533 1214.3 120.536 1211.26 124.142C1209.88 125.78 1208.63 134.957 1207.68 144.498H1230.41Z" fill="#272127"/>
<path d="M1225.34 144.498H1230.32L1226.54 117.533L1220.19 126.615L1223.91 128.857L1218.83 131.526L1225.34 144.498Z" fill="#352E35"/>
<path d="M1235.12 109.718C1235.12 109.718 1237.43 109.416 1237.92 109.718C1238.43 110.018 1239.23 110.317 1239.23 110.317" fill="#DBA87B"/>
<path d="M1248.07 94.4317C1248.07 94.4317 1247.92 95.2743 1247.17 95.9932C1246.59 96.5334 1243.11 96.8947 1242.74 96.7301C1242.19 96.4839 1241.47 95.3075 1241.47 95.3075C1241.47 95.3075 1242.7 93.6185 1244.22 93.6185C1245.73 93.6188 1248.07 94.4317 1248.07 94.4317Z" fill="white"/>
<path d="M1244.22 93.9505C1245.31 93.9505 1246.83 94.3738 1247.6 94.6076C1247.77 94.6636 1247.68 95.2598 1247.39 95.7573C1248.01 95.1857 1248.07 94.4317 1248.07 94.4317C1248.07 94.4317 1245.73 93.6185 1244.22 93.6185C1242.7 93.6185 1241.47 95.3075 1241.47 95.3075C1241.47 95.3075 1241.52 95.473 1241.65 95.5786C1241.92 95.2401 1242.9 93.9505 1244.22 93.9505Z" fill="#432918"/>
<path d="M1245.89 95.1546C1245.89 96.0049 1245.2 96.6913 1244.35 96.6913C1243.5 96.6913 1242.81 96.0046 1242.81 95.1546C1242.81 94.3064 1243.5 93.6188 1244.35 93.6188C1245.2 93.6188 1245.89 94.3061 1245.89 95.1546Z" fill="#432918"/>
<path d="M1245.67 95.1564C1245.67 95.8077 1243.84 93.9811 1244.49 93.9811C1245.14 93.9809 1245.67 94.5079 1245.67 95.1564Z" fill="white"/>
<path d="M1225.6 94.4317C1225.6 94.4317 1225.75 95.2743 1226.51 95.9933C1227.08 96.5335 1230.57 96.8947 1230.93 96.7301C1231.48 96.484 1232.2 95.3075 1232.2 95.3075C1232.2 95.3075 1230.97 93.6186 1229.46 93.6186C1227.94 93.6188 1225.6 94.4317 1225.6 94.4317Z" fill="white"/>
<path d="M1229.46 93.9505C1228.36 93.9505 1226.84 94.3738 1226.08 94.6076C1225.9 94.6637 1225.99 95.2599 1226.28 95.7573C1225.66 95.1857 1225.6 94.4317 1225.6 94.4317C1225.6 94.4317 1227.94 93.6186 1229.46 93.6186C1230.97 93.6186 1232.2 95.3075 1232.2 95.3075C1232.2 95.3075 1232.15 95.4731 1232.02 95.5786C1231.75 95.2401 1230.77 93.9505 1229.46 93.9505Z" fill="#432918"/>
<path d="M1227.79 95.1546C1227.79 96.0049 1228.47 96.6913 1229.32 96.6913C1230.17 96.6913 1230.86 96.0047 1230.86 95.1546C1230.86 94.3064 1230.17 93.6188 1229.32 93.6188C1228.47 93.6188 1227.79 94.3062 1227.79 95.1546Z" fill="#432918"/>
<path d="M1228.01 95.1564C1228.01 95.8078 1229.83 93.9812 1229.18 93.9812C1228.53 93.9809 1228.01 94.5079 1228.01 95.1564Z" fill="white"/>
<path d="M1236.97 102.084L1235.59 100.993L1236.97 97.7783V102.084Z" fill="#E09D72"/>
<path d="M1233.06 108.075L1232.54 107.574L1241.81 107.074L1240.15 108.075H1233.06Z" fill="#E09D72"/>
</g>
<rect x="61.5" y="102.5" width="161" height="27" rx="13.5" fill="#E5E0EF"/>
<rect x="61.5" y="102.5" width="161" height="27" rx="13.5" stroke="#000080"/>
<path d="M82.5394 112.624H85.3474C85.8674 112.624 86.3394 112.712 86.7634 112.888C87.1874 113.064 87.5474 113.328 87.8434 113.68C88.1474 114.024 88.3794 114.46 88.5394 114.988C88.6994 115.508 88.7794 116.116 88.7794 116.812C88.7794 117.508 88.6994 118.12 88.5394 118.648C88.3794 119.168 88.1474 119.604 87.8434 119.956C87.5474 120.3 87.1874 120.56 86.7634 120.736C86.3394 120.912 85.8674 121 85.3474 121H82.5394V112.624ZM85.3474 120.112C85.6914 120.112 86.0074 120.056 86.2954 119.944C86.5834 119.824 86.8314 119.652 87.0394 119.428C87.2474 119.204 87.4074 118.932 87.5194 118.612C87.6394 118.284 87.6994 117.912 87.6994 117.496V116.128C87.6994 115.712 87.6394 115.344 87.5194 115.024C87.4074 114.696 87.2474 114.42 87.0394 114.196C86.8314 113.972 86.5834 113.804 86.2954 113.692C86.0074 113.572 85.6914 113.512 85.3474 113.512H83.5474V120.112H85.3474ZM91.2742 113.356C91.0662 113.356 90.9142 113.308 90.8182 113.212C90.7302 113.108 90.6862 112.976 90.6862 112.816V112.66C90.6862 112.5 90.7302 112.372 90.8182 112.276C90.9142 112.172 91.0662 112.12 91.2742 112.12C91.4822 112.12 91.6302 112.172 91.7182 112.276C91.8142 112.372 91.8622 112.5 91.8622 112.66V112.816C91.8622 112.976 91.8142 113.108 91.7182 113.212C91.6302 113.308 91.4822 113.356 91.2742 113.356ZM90.7942 114.808H91.7542V121H90.7942V114.808ZM99.3142 121.684C99.3142 122.324 99.0622 122.792 98.5582 123.088C98.0622 123.392 97.3142 123.544 96.3142 123.544C95.3462 123.544 94.6502 123.412 94.2262 123.148C93.8022 122.884 93.5902 122.508 93.5902 122.02C93.5902 121.684 93.6782 121.42 93.8542 121.228C94.0302 121.044 94.2702 120.908 94.5742 120.82V120.688C94.2062 120.512 94.0222 120.224 94.0222 119.824C94.0222 119.512 94.1222 119.276 94.3222 119.116C94.5222 118.948 94.7782 118.824 95.0902 118.744V118.696C94.7222 118.52 94.4342 118.268 94.2262 117.94C94.0262 117.612 93.9262 117.232 93.9262 116.8C93.9262 116.488 93.9822 116.2 94.0942 115.936C94.2062 115.672 94.3622 115.448 94.5622 115.264C94.7702 115.072 95.0142 114.924 95.2942 114.82C95.5822 114.716 95.9022 114.664 96.2542 114.664C96.6942 114.664 97.0862 114.744 97.4302 114.904V114.796C97.4302 114.556 97.4862 114.36 97.5982 114.208C97.7102 114.048 97.8942 113.968 98.1502 113.968H99.0742V114.808H97.8982V115.204C98.1222 115.396 98.2942 115.628 98.4142 115.9C98.5422 116.164 98.6062 116.464 98.6062 116.8C98.6062 117.112 98.5502 117.4 98.4382 117.664C98.3262 117.928 98.1662 118.156 97.9582 118.348C97.7582 118.532 97.5142 118.676 97.2262 118.78C96.9382 118.884 96.6182 118.936 96.2662 118.936C96.0662 118.936 95.8662 118.916 95.6662 118.876C95.4582 118.932 95.2702 119.016 95.1022 119.128C94.9342 119.232 94.8502 119.38 94.8502 119.572C94.8502 119.756 94.9382 119.88 95.1142 119.944C95.2902 120.008 95.5182 120.04 95.7982 120.04H97.1182C97.8862 120.04 98.4422 120.188 98.7862 120.484C99.1382 120.772 99.3142 121.172 99.3142 121.684ZM98.4142 121.756C98.4142 121.508 98.3182 121.308 98.1262 121.156C97.9422 121.012 97.6102 120.94 97.1302 120.94H95.0662C94.6822 121.116 94.4902 121.396 94.4902 121.78C94.4902 122.052 94.5902 122.284 94.7902 122.476C94.9982 122.668 95.3462 122.764 95.8342 122.764H96.7222C97.2582 122.764 97.6742 122.68 97.9702 122.512C98.2662 122.344 98.4142 122.092 98.4142 121.756ZM96.2662 118.168C96.6742 118.168 96.9982 118.072 97.2382 117.88C97.4782 117.68 97.5982 117.376 97.5982 116.968V116.632C97.5982 116.224 97.4782 115.924 97.2382 115.732C96.9982 115.532 96.6742 115.432 96.2662 115.432C95.8582 115.432 95.5342 115.532 95.2942 115.732C95.0542 115.924 94.9342 116.224 94.9342 116.632V116.968C94.9342 117.376 95.0542 117.68 95.2942 117.88C95.5342 118.072 95.8582 118.168 96.2662 118.168ZM101.214 113.356C101.006 113.356 100.854 113.308 100.758 113.212C100.67 113.108 100.626 112.976 100.626 112.816V112.66C100.626 112.5 100.67 112.372 100.758 112.276C100.854 112.172 101.006 112.12 101.214 112.12C101.422 112.12 101.57 112.172 101.658 112.276C101.754 112.372 101.802 112.5 101.802 112.66V112.816C101.802 112.976 101.754 113.108 101.658 113.212C101.57 113.308 101.422 113.356 101.214 113.356ZM100.734 114.808H101.694V121H100.734V114.808ZM106.038 121L103.254 112.624H104.334L105.714 116.848L106.638 119.992H106.698L107.646 116.848L109.038 112.624H110.082L107.262 121H106.038ZM113.623 121.144C113.207 121.144 112.827 121.068 112.483 120.916C112.139 120.764 111.843 120.548 111.595 120.268C111.355 119.98 111.167 119.64 111.031 119.248C110.895 118.848 110.827 118.4 110.827 117.904C110.827 117.416 110.895 116.972 111.031 116.572C111.167 116.172 111.355 115.832 111.595 115.552C111.843 115.264 112.139 115.044 112.483 114.892C112.827 114.74 113.207 114.664 113.623 114.664C114.039 114.664 114.415 114.74 114.751 114.892C115.095 115.044 115.391 115.264 115.639 115.552C115.887 115.832 116.079 116.172 116.215 116.572C116.351 116.972 116.419 117.416 116.419 117.904C116.419 118.4 116.351 118.848 116.215 119.248C116.079 119.64 115.887 119.98 115.639 120.268C115.391 120.548 115.095 120.764 114.751 120.916C114.415 121.068 114.039 121.144 113.623 121.144ZM113.623 120.292C114.143 120.292 114.567 120.132 114.895 119.812C115.223 119.492 115.387 119.004 115.387 118.348V117.46C115.387 116.804 115.223 116.316 114.895 115.996C114.567 115.676 114.143 115.516 113.623 115.516C113.103 115.516 112.679 115.676 112.351 115.996C112.023 116.316 111.859 116.804 111.859 117.46V118.348C111.859 119.004 112.023 119.492 112.351 119.812C112.679 120.132 113.103 120.292 113.623 120.292ZM119.318 121C118.982 121 118.726 120.908 118.55 120.724C118.382 120.532 118.298 120.292 118.298 120.004V112.12H119.258V120.16H120.17V121H119.318ZM123.118 121L120.946 114.808H121.906L122.986 117.88L123.658 119.992H123.718L124.39 117.88L125.494 114.808H126.418L124.234 121H123.118ZM130.191 121.144C129.767 121.144 129.383 121.068 129.039 120.916C128.703 120.764 128.411 120.548 128.163 120.268C127.923 119.98 127.735 119.64 127.599 119.248C127.471 118.848 127.407 118.4 127.407 117.904C127.407 117.416 127.471 116.972 127.599 116.572C127.735 116.172 127.923 115.832 128.163 115.552C128.411 115.264 128.703 115.044 129.039 114.892C129.383 114.74 129.767 114.664 130.191 114.664C130.607 114.664 130.979 114.74 131.307 114.892C131.635 115.044 131.915 115.256 132.147 115.528C132.379 115.792 132.555 116.108 132.675 116.476C132.803 116.844 132.867 117.248 132.867 117.688V118.144H128.415V118.432C128.415 118.696 128.455 118.944 128.535 119.176C128.623 119.4 128.743 119.596 128.895 119.764C129.055 119.932 129.247 120.064 129.471 120.16C129.703 120.256 129.963 120.304 130.251 120.304C130.643 120.304 130.983 120.212 131.271 120.028C131.567 119.844 131.795 119.58 131.955 119.236L132.639 119.728C132.439 120.152 132.127 120.496 131.703 120.76C131.279 121.016 130.775 121.144 130.191 121.144ZM130.191 115.468C129.927 115.468 129.687 115.516 129.471 115.612C129.255 115.7 129.067 115.828 128.907 115.996C128.755 116.164 128.635 116.364 128.547 116.596C128.459 116.82 128.415 117.068 128.415 117.34V117.424H131.835V117.292C131.835 116.74 131.683 116.3 131.379 115.972C131.083 115.636 130.687 115.468 130.191 115.468ZM143.225 121L142.385 118.528H139.001L138.161 121H137.141L140.069 112.624H141.353L144.281 121H143.225ZM140.717 113.56H140.657L139.241 117.64H142.133L140.717 113.56ZM149.688 119.992H149.64C149.576 120.136 149.496 120.28 149.4 120.424C149.312 120.56 149.2 120.684 149.064 120.796C148.928 120.9 148.764 120.984 148.572 121.048C148.38 121.112 148.156 121.144 147.9 121.144C147.26 121.144 146.752 120.94 146.376 120.532C146 120.116 145.812 119.532 145.812 118.78V114.808H146.772V118.612C146.772 119.724 147.244 120.28 148.188 120.28C148.38 120.28 148.564 120.256 148.74 120.208C148.924 120.16 149.084 120.088 149.22 119.992C149.364 119.896 149.476 119.776 149.556 119.632C149.644 119.48 149.688 119.3 149.688 119.092V114.808H150.648V121H149.688V119.992ZM154.361 121C154.025 121 153.769 120.908 153.593 120.724C153.425 120.532 153.341 120.284 153.341 119.98V115.648H152.321V114.808H152.897C153.105 114.808 153.245 114.768 153.317 114.688C153.397 114.6 153.437 114.452 153.437 114.244V113.092H154.301V114.808H155.657V115.648H154.301V120.16H155.561V121H154.361ZM159.793 121.144C159.377 121.144 158.997 121.068 158.653 120.916C158.309 120.764 158.013 120.548 157.765 120.268C157.525 119.98 157.337 119.64 157.201 119.248C157.065 118.848 156.997 118.4 156.997 117.904C156.997 117.416 157.065 116.972 157.201 116.572C157.337 116.172 157.525 115.832 157.765 115.552C158.013 115.264 158.309 115.044 158.653 114.892C158.997 114.74 159.377 114.664 159.793 114.664C160.209 114.664 160.585 114.74 160.921 114.892C161.265 115.044 161.561 115.264 161.809 115.552C162.057 115.832 162.249 116.172 162.385 116.572C162.521 116.972 162.589 117.416 162.589 117.904C162.589 118.4 162.521 118.848 162.385 119.248C162.249 119.64 162.057 119.98 161.809 120.268C161.561 120.548 161.265 120.764 160.921 120.916C160.585 121.068 160.209 121.144 159.793 121.144ZM159.793 120.292C160.313 120.292 160.737 120.132 161.065 119.812C161.393 119.492 161.557 119.004 161.557 118.348V117.46C161.557 116.804 161.393 116.316 161.065 115.996C160.737 115.676 160.313 115.516 159.793 115.516C159.273 115.516 158.849 115.676 158.521 115.996C158.193 116.316 158.029 116.804 158.029 117.46V118.348C158.029 119.004 158.193 119.492 158.521 119.812C158.849 120.132 159.273 120.292 159.793 120.292ZM164.468 121V114.808H165.428V115.816H165.476C165.548 115.656 165.628 115.508 165.716 115.372C165.812 115.228 165.924 115.104 166.052 115C166.188 114.896 166.344 114.816 166.52 114.76C166.696 114.696 166.904 114.664 167.144 114.664C167.552 114.664 167.928 114.764 168.272 114.964C168.616 115.156 168.872 115.476 169.04 115.924H169.064C169.176 115.588 169.384 115.296 169.688 115.048C170 114.792 170.42 114.664 170.948 114.664C171.58 114.664 172.072 114.872 172.424 115.288C172.784 115.696 172.964 116.276 172.964 117.028V121H172.004V117.196C172.004 116.644 171.896 116.228 171.68 115.948C171.464 115.668 171.12 115.528 170.648 115.528C170.456 115.528 170.272 115.552 170.096 115.6C169.928 115.648 169.776 115.72 169.64 115.816C169.504 115.912 169.396 116.036 169.316 116.188C169.236 116.332 169.196 116.504 169.196 116.704V121H168.236V117.196C168.236 116.644 168.128 116.228 167.912 115.948C167.696 115.668 167.36 115.528 166.904 115.528C166.712 115.528 166.528 115.552 166.352 115.6C166.176 115.648 166.02 115.72 165.884 115.816C165.748 115.912 165.636 116.036 165.548 116.188C165.468 116.332 165.428 116.504 165.428 116.704V121H164.468ZM179.744 121C179.384 121 179.124 120.904 178.964 120.712C178.812 120.52 178.716 120.28 178.676 119.992H178.616C178.48 120.376 178.256 120.664 177.944 120.856C177.632 121.048 177.26 121.144 176.828 121.144C176.172 121.144 175.66 120.976 175.292 120.64C174.932 120.304 174.752 119.848 174.752 119.272C174.752 118.688 174.964 118.24 175.388 117.928C175.82 117.616 176.488 117.46 177.392 117.46H178.616V116.848C178.616 116.408 178.496 116.072 178.256 115.84C178.016 115.608 177.648 115.492 177.152 115.492C176.776 115.492 176.46 115.576 176.204 115.744C175.956 115.912 175.748 116.136 175.58 116.416L175.004 115.876C175.172 115.54 175.44 115.256 175.808 115.024C176.176 114.784 176.64 114.664 177.2 114.664C177.952 114.664 178.536 114.848 178.952 115.216C179.368 115.584 179.576 116.096 179.576 116.752V120.16H180.284V121H179.744ZM176.984 120.328C177.224 120.328 177.444 120.3 177.644 120.244C177.844 120.188 178.016 120.108 178.16 120.004C178.304 119.9 178.416 119.78 178.496 119.644C178.576 119.508 178.616 119.36 178.616 119.2V118.18H177.344C176.792 118.18 176.388 118.26 176.132 118.42C175.884 118.58 175.76 118.812 175.76 119.116V119.368C175.76 119.672 175.868 119.908 176.084 120.076C176.308 120.244 176.608 120.328 176.984 120.328ZM183.322 121C182.986 121 182.73 120.908 182.554 120.724C182.386 120.532 182.302 120.284 182.302 119.98V115.648H181.282V114.808H181.858C182.066 114.808 182.206 114.768 182.278 114.688C182.358 114.6 182.398 114.452 182.398 114.244V113.092H183.262V114.808H184.618V115.648H183.262V120.16H184.522V121H183.322ZM186.941 113.356C186.733 113.356 186.581 113.308 186.485 113.212C186.397 113.108 186.353 112.976 186.353 112.816V112.66C186.353 112.5 186.397 112.372 186.485 112.276C186.581 112.172 186.733 112.12 186.941 112.12C187.149 112.12 187.297 112.172 187.385 112.276C187.481 112.372 187.529 112.5 187.529 112.66V112.816C187.529 112.976 187.481 113.108 187.385 113.212C187.297 113.308 187.149 113.356 186.941 113.356ZM186.461 114.808H187.421V121H186.461V114.808ZM192.101 121.144C191.685 121.144 191.305 121.068 190.961 120.916C190.617 120.764 190.321 120.548 190.073 120.268C189.833 119.98 189.645 119.64 189.509 119.248C189.373 118.848 189.305 118.4 189.305 117.904C189.305 117.416 189.373 116.972 189.509 116.572C189.645 116.172 189.833 115.832 190.073 115.552C190.321 115.264 190.617 115.044 190.961 114.892C191.305 114.74 191.685 114.664 192.101 114.664C192.517 114.664 192.893 114.74 193.229 114.892C193.573 115.044 193.869 115.264 194.117 115.552C194.365 115.832 194.557 116.172 194.693 116.572C194.829 116.972 194.897 117.416 194.897 117.904C194.897 118.4 194.829 118.848 194.693 119.248C194.557 119.64 194.365 119.98 194.117 120.268C193.869 120.548 193.573 120.764 193.229 120.916C192.893 121.068 192.517 121.144 192.101 121.144ZM192.101 120.292C192.621 120.292 193.045 120.132 193.373 119.812C193.701 119.492 193.865 119.004 193.865 118.348V117.46C193.865 116.804 193.701 116.316 193.373 115.996C193.045 115.676 192.621 115.516 192.101 115.516C191.581 115.516 191.157 115.676 190.829 115.996C190.501 116.316 190.337 116.804 190.337 117.46V118.348C190.337 119.004 190.501 119.492 190.829 119.812C191.157 120.132 191.581 120.292 192.101 120.292ZM196.776 121V114.808H197.736V115.816H197.784C197.936 115.464 198.148 115.184 198.42 114.976C198.7 114.768 199.072 114.664 199.536 114.664C200.176 114.664 200.68 114.872 201.048 115.288C201.424 115.696 201.612 116.276 201.612 117.028V121H200.652V117.196C200.652 116.084 200.184 115.528 199.248 115.528C199.056 115.528 198.868 115.552 198.684 115.6C198.508 115.648 198.348 115.72 198.204 115.816C198.06 115.912 197.944 116.036 197.856 116.188C197.776 116.332 197.736 116.504 197.736 116.704V121H196.776Z" fill="#050405"/>
<rect x="687.5" y="0.5" width="177" height="27" rx="13.5" fill="#F6F5F6"/>
<rect x="687.5" y="0.5" width="177" height="27" rx="13.5" stroke="#685D69"/>
<path d="M708.41 10.624H711.218C711.738 10.624 712.21 10.712 712.634 10.888C713.058 11.064 713.418 11.328 713.714 11.68C714.018 12.024 714.25 12.46 714.41 12.988C714.57 13.508 714.65 14.116 714.65 14.812C714.65 15.508 714.57 16.12 714.41 16.648C714.25 17.168 714.018 17.604 713.714 17.956C713.418 18.3 713.058 18.56 712.634 18.736C712.21 18.912 711.738 19 711.218 19H708.41V10.624ZM711.218 18.112C711.562 18.112 711.878 18.056 712.166 17.944C712.454 17.824 712.702 17.652 712.91 17.428C713.118 17.204 713.278 16.932 713.39 16.612C713.51 16.284 713.57 15.912 713.57 15.496V14.128C713.57 13.712 713.51 13.344 713.39 13.024C713.278 12.696 713.118 12.42 712.91 12.196C712.702 11.972 712.454 11.804 712.166 11.692C711.878 11.572 711.562 11.512 711.218 11.512H709.418V18.112H711.218ZM717.145 11.356C716.937 11.356 716.785 11.308 716.689 11.212C716.601 11.108 716.557 10.976 716.557 10.816V10.66C716.557 10.5 716.601 10.372 716.689 10.276C716.785 10.172 716.937 10.12 717.145 10.12C717.353 10.12 717.501 10.172 717.589 10.276C717.685 10.372 717.733 10.5 717.733 10.66V10.816C717.733 10.976 717.685 11.108 717.589 11.212C717.501 11.308 717.353 11.356 717.145 11.356ZM716.665 12.808H717.625V19H716.665V12.808ZM725.185 19.684C725.185 20.324 724.933 20.792 724.429 21.088C723.933 21.392 723.185 21.544 722.185 21.544C721.217 21.544 720.521 21.412 720.097 21.148C719.673 20.884 719.461 20.508 719.461 20.02C719.461 19.684 719.549 19.42 719.725 19.228C719.901 19.044 720.141 18.908 720.445 18.82V18.688C720.077 18.512 719.893 18.224 719.893 17.824C719.893 17.512 719.993 17.276 720.193 17.116C720.393 16.948 720.649 16.824 720.961 16.744V16.696C720.593 16.52 720.305 16.268 720.097 15.94C719.897 15.612 719.797 15.232 719.797 14.8C719.797 14.488 719.853 14.2 719.965 13.936C720.077 13.672 720.233 13.448 720.433 13.264C720.641 13.072 720.885 12.924 721.165 12.82C721.453 12.716 721.773 12.664 722.125 12.664C722.565 12.664 722.957 12.744 723.301 12.904V12.796C723.301 12.556 723.357 12.36 723.469 12.208C723.581 12.048 723.765 11.968 724.021 11.968H724.945V12.808H723.769V13.204C723.993 13.396 724.165 13.628 724.285 13.9C724.413 14.164 724.477 14.464 724.477 14.8C724.477 15.112 724.421 15.4 724.309 15.664C724.197 15.928 724.037 16.156 723.829 16.348C723.629 16.532 723.385 16.676 723.097 16.78C722.809 16.884 722.489 16.936 722.137 16.936C721.937 16.936 721.737 16.916 721.537 16.876C721.329 16.932 721.141 17.016 720.973 17.128C720.805 17.232 720.721 17.38 720.721 17.572C720.721 17.756 720.809 17.88 720.985 17.944C721.161 18.008 721.389 18.04 721.669 18.04H722.989C723.757 18.04 724.313 18.188 724.657 18.484C725.009 18.772 725.185 19.172 725.185 19.684ZM724.285 19.756C724.285 19.508 724.189 19.308 723.997 19.156C723.813 19.012 723.481 18.94 723.001 18.94H720.937C720.553 19.116 720.361 19.396 720.361 19.78C720.361 20.052 720.461 20.284 720.661 20.476C720.869 20.668 721.217 20.764 721.705 20.764H722.593C723.129 20.764 723.545 20.68 723.841 20.512C724.137 20.344 724.285 20.092 724.285 19.756ZM722.137 16.168C722.545 16.168 722.869 16.072 723.109 15.88C723.349 15.68 723.469 15.376 723.469 14.968V14.632C723.469 14.224 723.349 13.924 723.109 13.732C722.869 13.532 722.545 13.432 722.137 13.432C721.729 13.432 721.405 13.532 721.165 13.732C720.925 13.924 720.805 14.224 720.805 14.632V14.968C720.805 15.376 720.925 15.68 721.165 15.88C721.405 16.072 721.729 16.168 722.137 16.168ZM727.085 11.356C726.877 11.356 726.725 11.308 726.629 11.212C726.541 11.108 726.497 10.976 726.497 10.816V10.66C726.497 10.5 726.541 10.372 726.629 10.276C726.725 10.172 726.877 10.12 727.085 10.12C727.293 10.12 727.441 10.172 727.529 10.276C727.625 10.372 727.673 10.5 727.673 10.66V10.816C727.673 10.976 727.625 11.108 727.529 11.212C727.441 11.308 727.293 11.356 727.085 11.356ZM726.605 12.808H727.565V19H726.605V12.808ZM731.909 19L729.125 10.624H730.205L731.585 14.848L732.509 17.992H732.569L733.517 14.848L734.909 10.624H735.953L733.133 19H731.909ZM739.494 19.144C739.078 19.144 738.698 19.068 738.354 18.916C738.01 18.764 737.714 18.548 737.466 18.268C737.226 17.98 737.038 17.64 736.902 17.248C736.766 16.848 736.698 16.4 736.698 15.904C736.698 15.416 736.766 14.972 736.902 14.572C737.038 14.172 737.226 13.832 737.466 13.552C737.714 13.264 738.01 13.044 738.354 12.892C738.698 12.74 739.078 12.664 739.494 12.664C739.91 12.664 740.286 12.74 740.622 12.892C740.966 13.044 741.262 13.264 741.51 13.552C741.758 13.832 741.95 14.172 742.086 14.572C742.222 14.972 742.29 15.416 742.29 15.904C742.29 16.4 742.222 16.848 742.086 17.248C741.95 17.64 741.758 17.98 741.51 18.268C741.262 18.548 740.966 18.764 740.622 18.916C740.286 19.068 739.91 19.144 739.494 19.144ZM739.494 18.292C740.014 18.292 740.438 18.132 740.766 17.812C741.094 17.492 741.258 17.004 741.258 16.348V15.46C741.258 14.804 741.094 14.316 740.766 13.996C740.438 13.676 740.014 13.516 739.494 13.516C738.974 13.516 738.55 13.676 738.222 13.996C737.894 14.316 737.73 14.804 737.73 15.46V16.348C737.73 17.004 737.894 17.492 738.222 17.812C738.55 18.132 738.974 18.292 739.494 18.292ZM745.189 19C744.853 19 744.597 18.908 744.421 18.724C744.253 18.532 744.169 18.292 744.169 18.004V10.12H745.129V18.16H746.041V19H745.189ZM748.989 19L746.817 12.808H747.777L748.857 15.88L749.529 17.992H749.589L750.261 15.88L751.365 12.808H752.289L750.105 19H748.989ZM756.062 19.144C755.638 19.144 755.254 19.068 754.91 18.916C754.574 18.764 754.282 18.548 754.034 18.268C753.794 17.98 753.606 17.64 753.47 17.248C753.342 16.848 753.278 16.4 753.278 15.904C753.278 15.416 753.342 14.972 753.47 14.572C753.606 14.172 753.794 13.832 754.034 13.552C754.282 13.264 754.574 13.044 754.91 12.892C755.254 12.74 755.638 12.664 756.062 12.664C756.478 12.664 756.85 12.74 757.178 12.892C757.506 13.044 757.786 13.256 758.018 13.528C758.25 13.792 758.426 14.108 758.546 14.476C758.674 14.844 758.738 15.248 758.738 15.688V16.144H754.286V16.432C754.286 16.696 754.326 16.944 754.406 17.176C754.494 17.4 754.614 17.596 754.766 17.764C754.926 17.932 755.118 18.064 755.342 18.16C755.574 18.256 755.834 18.304 756.122 18.304C756.514 18.304 756.854 18.212 757.142 18.028C757.438 17.844 757.666 17.58 757.826 17.236L758.51 17.728C758.31 18.152 757.998 18.496 757.574 18.76C757.15 19.016 756.646 19.144 756.062 19.144ZM756.062 13.468C755.798 13.468 755.558 13.516 755.342 13.612C755.126 13.7 754.938 13.828 754.778 13.996C754.626 14.164 754.506 14.364 754.418 14.596C754.33 14.82 754.286 15.068 754.286 15.34V15.424H757.706V15.292C757.706 14.74 757.554 14.3 757.25 13.972C756.954 13.636 756.558 13.468 756.062 13.468ZM766.804 19.144C765.74 19.144 764.912 18.784 764.32 18.064C763.728 17.336 763.432 16.268 763.432 14.86C763.432 13.452 763.728 12.372 764.32 11.62C764.912 10.86 765.74 10.48 766.804 10.48C767.508 10.48 768.096 10.64 768.568 10.96C769.048 11.28 769.42 11.732 769.684 12.316L768.868 12.808C768.7 12.376 768.444 12.032 768.1 11.776C767.756 11.512 767.324 11.38 766.804 11.38C766.444 11.38 766.12 11.448 765.832 11.584C765.552 11.72 765.312 11.916 765.112 12.172C764.92 12.42 764.772 12.72 764.668 13.072C764.564 13.416 764.512 13.804 764.512 14.236V15.484C764.512 16.348 764.712 17.024 765.112 17.512C765.512 18 766.076 18.244 766.804 18.244C767.34 18.244 767.788 18.108 768.148 17.836C768.508 17.556 768.772 17.188 768.94 16.732L769.744 17.236C769.48 17.828 769.1 18.296 768.604 18.64C768.108 18.976 767.508 19.144 766.804 19.144ZM772.529 19C772.193 19 771.937 18.908 771.761 18.724C771.593 18.532 771.509 18.292 771.509 18.004V10.12H772.469V18.16H773.381V19H772.529ZM777.418 19.144C777.002 19.144 776.622 19.068 776.278 18.916C775.934 18.764 775.638 18.548 775.39 18.268C775.15 17.98 774.962 17.64 774.826 17.248C774.69 16.848 774.622 16.4 774.622 15.904C774.622 15.416 774.69 14.972 774.826 14.572C774.962 14.172 775.15 13.832 775.39 13.552C775.638 13.264 775.934 13.044 776.278 12.892C776.622 12.74 777.002 12.664 777.418 12.664C777.834 12.664 778.21 12.74 778.546 12.892C778.89 13.044 779.186 13.264 779.434 13.552C779.682 13.832 779.874 14.172 780.01 14.572C780.146 14.972 780.214 15.416 780.214 15.904C780.214 16.4 780.146 16.848 780.01 17.248C779.874 17.64 779.682 17.98 779.434 18.268C779.186 18.548 778.89 18.764 778.546 18.916C778.21 19.068 777.834 19.144 777.418 19.144ZM777.418 18.292C777.938 18.292 778.362 18.132 778.69 17.812C779.018 17.492 779.182 17.004 779.182 16.348V15.46C779.182 14.804 779.018 14.316 778.69 13.996C778.362 13.676 777.938 13.516 777.418 13.516C776.898 13.516 776.474 13.676 776.146 13.996C775.818 14.316 775.654 14.804 775.654 15.46V16.348C775.654 17.004 775.818 17.492 776.146 17.812C776.474 18.132 776.898 18.292 777.418 18.292ZM785.909 17.992H785.861C785.797 18.136 785.717 18.28 785.621 18.424C785.533 18.56 785.421 18.684 785.285 18.796C785.149 18.9 784.985 18.984 784.793 19.048C784.601 19.112 784.377 19.144 784.121 19.144C783.481 19.144 782.973 18.94 782.597 18.532C782.221 18.116 782.033 17.532 782.033 16.78V12.808H782.993V16.612C782.993 17.724 783.465 18.28 784.409 18.28C784.601 18.28 784.785 18.256 784.961 18.208C785.145 18.16 785.305 18.088 785.441 17.992C785.585 17.896 785.697 17.776 785.777 17.632C785.865 17.48 785.909 17.3 785.909 17.092V12.808H786.869V19H785.909V17.992ZM793.173 17.992H793.125C792.749 18.76 792.145 19.144 791.313 19.144C790.929 19.144 790.581 19.068 790.269 18.916C789.957 18.764 789.689 18.548 789.465 18.268C789.249 17.988 789.081 17.648 788.961 17.248C788.849 16.848 788.793 16.4 788.793 15.904C788.793 15.408 788.849 14.96 788.961 14.56C789.081 14.16 789.249 13.82 789.465 13.54C789.689 13.26 789.957 13.044 790.269 12.892C790.581 12.74 790.929 12.664 791.313 12.664C791.745 12.664 792.113 12.76 792.417 12.952C792.729 13.136 792.965 13.424 793.125 13.816H793.173V10.12H794.133V19H793.173V17.992ZM791.577 18.28C791.793 18.28 791.997 18.252 792.189 18.196C792.389 18.14 792.561 18.06 792.705 17.956C792.849 17.844 792.961 17.712 793.041 17.56C793.129 17.4 793.173 17.22 793.173 17.02V14.716C793.173 14.548 793.129 14.392 793.041 14.248C792.961 14.096 792.849 13.968 792.705 13.864C792.561 13.76 792.389 13.68 792.189 13.624C791.997 13.56 791.793 13.528 791.577 13.528C791.033 13.528 790.605 13.7 790.293 14.044C789.981 14.38 789.825 14.824 789.825 15.376V16.432C789.825 16.984 789.981 17.432 790.293 17.776C790.605 18.112 791.033 18.28 791.577 18.28ZM802.058 19.144C801.378 19.144 800.798 19.016 800.318 18.76C799.838 18.496 799.43 18.136 799.094 17.68L799.838 17.056C800.134 17.448 800.462 17.748 800.822 17.956C801.182 18.156 801.606 18.256 802.094 18.256C802.694 18.256 803.15 18.112 803.462 17.824C803.782 17.536 803.942 17.152 803.942 16.672C803.942 16.272 803.822 15.964 803.582 15.748C803.342 15.532 802.946 15.36 802.394 15.232L801.71 15.076C800.942 14.9 800.354 14.636 799.946 14.284C799.546 13.924 799.346 13.42 799.346 12.772C799.346 12.404 799.414 12.076 799.55 11.788C799.686 11.5 799.874 11.26 800.114 11.068C800.362 10.876 800.654 10.732 800.99 10.636C801.334 10.532 801.71 10.48 802.118 10.48C802.75 10.48 803.29 10.596 803.738 10.828C804.194 11.06 804.578 11.4 804.89 11.848L804.134 12.4C803.902 12.08 803.622 11.828 803.294 11.644C802.966 11.46 802.558 11.368 802.07 11.368C801.534 11.368 801.11 11.484 800.798 11.716C800.494 11.94 800.342 12.28 800.342 12.736C800.342 13.136 800.47 13.44 800.726 13.648C800.99 13.848 801.386 14.008 801.914 14.128L802.598 14.284C803.422 14.468 804.018 14.748 804.386 15.124C804.754 15.5 804.938 16 804.938 16.624C804.938 17.008 804.87 17.356 804.734 17.668C804.606 17.98 804.418 18.244 804.17 18.46C803.922 18.676 803.618 18.844 803.258 18.964C802.906 19.084 802.506 19.144 802.058 19.144ZM809.211 19.144C808.787 19.144 808.403 19.068 808.059 18.916C807.723 18.764 807.431 18.548 807.183 18.268C806.943 17.98 806.755 17.64 806.619 17.248C806.491 16.848 806.427 16.4 806.427 15.904C806.427 15.416 806.491 14.972 806.619 14.572C806.755 14.172 806.943 13.832 807.183 13.552C807.431 13.264 807.723 13.044 808.059 12.892C808.403 12.74 808.787 12.664 809.211 12.664C809.627 12.664 809.999 12.74 810.327 12.892C810.655 13.044 810.935 13.256 811.167 13.528C811.399 13.792 811.575 14.108 811.695 14.476C811.823 14.844 811.887 15.248 811.887 15.688V16.144H807.435V16.432C807.435 16.696 807.475 16.944 807.555 17.176C807.643 17.4 807.763 17.596 807.915 17.764C808.075 17.932 808.267 18.064 808.491 18.16C808.723 18.256 808.983 18.304 809.271 18.304C809.663 18.304 810.003 18.212 810.291 18.028C810.587 17.844 810.815 17.58 810.975 17.236L811.659 17.728C811.459 18.152 811.147 18.496 810.723 18.76C810.299 19.016 809.795 19.144 809.211 19.144ZM809.211 13.468C808.947 13.468 808.707 13.516 808.491 13.612C808.275 13.7 808.087 13.828 807.927 13.996C807.775 14.164 807.655 14.364 807.567 14.596C807.479 14.82 807.435 15.068 807.435 15.34V15.424H810.855V15.292C810.855 14.74 810.703 14.3 810.399 13.972C810.103 13.636 809.707 13.468 809.211 13.468ZM816.073 19.144C815.641 19.144 815.253 19.068 814.909 18.916C814.565 18.764 814.273 18.548 814.033 18.268C813.801 17.988 813.621 17.648 813.493 17.248C813.373 16.848 813.313 16.4 813.313 15.904C813.313 15.408 813.373 14.96 813.493 14.56C813.621 14.16 813.801 13.82 814.033 13.54C814.273 13.26 814.565 13.044 814.909 12.892C815.253 12.74 815.641 12.664 816.073 12.664C816.689 12.664 817.181 12.8 817.549 13.072C817.925 13.336 818.205 13.684 818.389 14.116L817.585 14.524C817.473 14.204 817.289 13.956 817.033 13.78C816.777 13.604 816.457 13.516 816.073 13.516C815.785 13.516 815.533 13.564 815.317 13.66C815.101 13.748 814.921 13.876 814.777 14.044C814.633 14.204 814.525 14.4 814.453 14.632C814.381 14.856 814.345 15.104 814.345 15.376V16.432C814.345 16.976 814.489 17.424 814.777 17.776C815.073 18.12 815.505 18.292 816.073 18.292C816.849 18.292 817.409 17.932 817.753 17.212L818.449 17.68C818.249 18.128 817.949 18.484 817.549 18.748C817.157 19.012 816.665 19.144 816.073 19.144ZM823.92 17.992H823.872C823.808 18.136 823.728 18.28 823.632 18.424C823.544 18.56 823.432 18.684 823.296 18.796C823.16 18.9 822.996 18.984 822.804 19.048C822.612 19.112 822.388 19.144 822.132 19.144C821.492 19.144 820.984 18.94 820.608 18.532C820.232 18.116 820.044 17.532 820.044 16.78V12.808H821.004V16.612C821.004 17.724 821.476 18.28 822.42 18.28C822.612 18.28 822.796 18.256 822.972 18.208C823.156 18.16 823.316 18.088 823.452 17.992C823.596 17.896 823.708 17.776 823.788 17.632C823.876 17.48 823.92 17.3 823.92 17.092V12.808H824.88V19H823.92V17.992ZM827.224 19V12.808H828.184V13.948H828.244C828.356 13.652 828.556 13.388 828.844 13.156C829.132 12.924 829.528 12.808 830.032 12.808H830.404V13.768H829.84C829.32 13.768 828.912 13.868 828.616 14.068C828.328 14.26 828.184 14.504 828.184 14.8V19H827.224ZM832.411 11.356C832.203 11.356 832.051 11.308 831.955 11.212C831.867 11.108 831.823 10.976 831.823 10.816V10.66C831.823 10.5 831.867 10.372 831.955 10.276C832.051 10.172 832.203 10.12 832.411 10.12C832.619 10.12 832.767 10.172 832.855 10.276C832.951 10.372 832.999 10.5 832.999 10.66V10.816C832.999 10.976 832.951 11.108 832.855 11.212C832.767 11.308 832.619 11.356 832.411 11.356ZM831.931 12.808H832.891V19H831.931V12.808ZM836.599 19C836.263 19 836.007 18.908 835.831 18.724C835.663 18.532 835.579 18.284 835.579 17.98V13.648H834.559V12.808H835.135C835.343 12.808 835.483 12.768 835.555 12.688C835.635 12.6 835.675 12.452 835.675 12.244V11.092H836.539V12.808H837.895V13.648H836.539V18.16H837.799V19H836.599ZM843.554 12.808H844.502L841.73 20.44C841.658 20.624 841.586 20.776 841.514 20.896C841.442 21.024 841.354 21.124 841.25 21.196C841.146 21.268 841.014 21.32 840.854 21.352C840.702 21.384 840.514 21.4 840.29 21.4H839.798V20.56H840.77L841.238 19.24L838.922 12.808H839.882L841.37 17.02L841.658 18.028H841.718L842.054 17.02L843.554 12.808Z" fill="#050405"/>
<path d="M782.001 130C782.001 152.091 764.092 170 742 170C719.908 170 702 152.091 702 130C702 107.909 719.909 90 742 90C764.092 89.9998 782.001 107.908 782.001 130Z" fill="#259DAB"/>
<mask id="mask2_159_791" style="mask-type:luminance" maskUnits="userSpaceOnUse" x="702" y="90" width="81" height="80">
<path d="M782.002 130C782.002 152.091 764.093 170 742.001 170C719.909 170 702.001 152.091 702.001 130C702.001 107.909 719.91 90 742.001 90C764.093 89.9998 782.002 107.908 782.002 130Z" fill="white"/>
</mask>
<g mask="url(#mask2_159_791)">
<path d="M757.064 135.391C752.556 140.786 746.826 142.591 744.578 142.591C742.279 142.591 736.068 141.01 731.435 135.391C728.81 132.21 726.965 123.089 726.275 118.714C725.878 116.203 725.556 110.868 727.317 108.192C730.083 103.99 735.26 101.037 743.91 101.037C747.182 101.037 751.784 100.928 752.334 103.103C756.756 102.949 758.994 105.243 760.086 107.209C761.679 110.074 762.271 114.089 761.862 117.914C761.324 122.957 759.768 132.157 757.064 135.391Z" fill="#432918"/>
<path d="M730.023 125.198C730.023 125.198 730.559 121.021 726.938 122.043C724.15 122.828 727.014 130.571 728.849 131.233C730.42 131.801 730.762 130.597 730.762 130.597L730.023 125.198Z" fill="#F9BB8D"/>
<path d="M758.611 125.198C758.611 125.198 758.074 121.021 761.696 122.043C764.484 122.828 761.62 130.571 759.783 131.233C758.212 131.801 757.871 130.597 757.871 130.597L758.611 125.198Z" fill="#F9BB8D"/>
<path d="M766.569 172.343C767.37 160.748 767.422 151.066 767.422 151.066C767.422 151.066 759.839 147.742 755.483 146.697C751.382 145.713 746.578 145.822 746.076 145.837C745.575 145.822 740.771 145.713 736.671 146.697C732.315 147.742 724.858 151.066 724.858 151.066C724.858 151.066 724.464 159.984 725.603 172.343H766.569Z" fill="#EDEDED"/>
<path d="M744.586 153.687C744.586 153.687 752.96 146.605 752.431 146.154C749.982 144.073 750.668 138.679 750.668 138.679H738.608C738.608 138.679 739.727 145.216 736.67 146.697C736.412 146.822 744.586 153.687 744.586 153.687Z" fill="#F9BB8D"/>
<path d="M758.981 127.084C758.365 131.667 757.91 134.108 755.529 137.553C751.564 143.295 746.523 145.216 744.545 145.216C742.524 145.216 737.059 143.533 732.983 137.553C730.674 134.165 730.289 131.241 729.663 127.084C728.91 122.089 728.851 123.851 728.851 119.137C728.851 109.537 732.557 102.603 743.32 102.603C754.092 102.603 759.586 108.636 759.749 118.491C759.839 123.891 759.653 122.061 758.981 127.084Z" fill="#F9BB8D"/>
<path d="M731.376 119.888C732.821 118.384 736.385 118.448 738.409 118.387C740.314 118.33 744.899 118.368 746.304 116.729C747.55 115.277 749.835 113.161 751.893 113.161C756.663 113.161 757.46 120.267 758.214 124.101C758.416 125.132 758.677 126.181 758.957 127.244C758.964 127.189 758.971 127.139 758.98 127.084C759.652 122.061 759.838 123.891 759.748 118.491C759.585 108.636 754.396 101.947 743.624 101.947C732.861 101.947 728.85 109.536 728.85 119.137C728.85 123.633 728.905 122.252 729.565 126.446C730.483 124.501 729.669 121.665 731.376 119.888Z" fill="#E7DCD6"/>
<path d="M729.853 128.344C730.39 131.851 730.438 134.377 732.505 137.41C736.582 143.39 742.523 145.216 744.544 145.216C746.522 145.216 752.078 143.317 756.044 137.574C758.194 134.46 758.259 132.139 758.803 128.344L754.406 135.552C754.406 135.552 751.323 139.515 747.368 140.98C746.52 141.296 745.167 138.284 744.309 138.284C743.23 138.284 742.142 141.366 741.052 140.895C737.248 139.249 733.815 135.552 733.815 135.552L729.853 128.344Z" fill="#432918"/>
<path d="M729.775 118.404C733.343 115.711 746.012 119.277 750.601 111.341C756.072 111.411 757.227 116.802 758.101 118.768C758.974 120.735 758.955 127.254 758.98 127.084C759.652 122.061 760.448 124.023 760.359 118.623C760.194 108.767 754.396 101.947 743.623 101.947C732.86 101.947 728.318 109.532 728.318 119.133C728.318 123.848 728.909 122.089 729.661 127.084C729.688 127.255 728.458 119.399 729.775 118.404Z" fill="#432918"/>
<path d="M767.824 172.343H777.655C775.369 163.016 771.765 152.367 767.421 151.066C759.999 148.843 767.685 171.708 767.685 171.708L767.824 172.343Z" fill="#EDEDED"/>
<path d="M767.824 172.343H771.268C769.937 169.707 768.261 167.566 765.848 165.398C766.751 168.926 767.685 171.708 767.685 171.708L767.824 172.343Z" fill="#EDEDED"/>
<path d="M724.456 172.343L724.593 171.708C724.593 171.708 732.279 148.843 724.857 151.066C720.512 152.367 716.909 163.016 714.624 172.343L724.456 172.343Z" fill="#EDEDED"/>
<path d="M724.456 172.343L724.593 171.708C724.593 171.708 725.527 168.926 726.43 165.398C724.018 167.566 722.341 169.707 721.01 172.343H724.456Z" fill="#EDEDED"/>
<path d="M754.168 154.086C751.54 150.053 746.631 151.903 746.631 151.903C746.631 151.903 751.689 147.153 752.431 146.154C753.173 145.156 758.247 145.216 759.505 147.479C760.144 148.629 755.467 152.327 754.168 154.086Z" fill="#DADADA"/>
<path d="M735.428 154.374C738.057 150.342 742.965 152.192 742.965 152.192C742.965 152.192 737.907 147.442 737.165 146.443C736.423 145.444 731.349 145.505 730.092 147.767C729.453 148.917 734.13 152.615 735.428 154.374Z" fill="#DADADA"/>
<path d="M747.032 157.763H743.065C743.065 157.763 740.793 153.409 741.536 152.411C742.278 151.411 747.215 151.427 748.09 152.411C748.963 153.393 747.032 157.763 747.032 157.763Z" fill="#B55A3A"/>
<path d="M744.414 151.675C743.103 151.71 741.876 151.952 741.536 152.411C740.793 153.409 743.065 157.763 743.065 157.763H747.032C747.032 157.763 747.101 157.608 747.206 157.35C744.657 156.678 743.726 153.894 744.414 151.675Z" fill="#E7DCD6"/>
<path d="M748.24 172.343L747.032 157.763H743.065L741.737 172.343H748.24Z" fill="#D15D36"/>
<path d="M744.581 172.343C744.636 171.979 744.691 171.615 744.744 171.25C745.398 166.767 745.051 162.278 746.024 157.803C746.027 157.788 746.032 157.776 746.036 157.763H743.065L741.737 172.343H744.581Z" fill="#E7DCD6"/>
<path d="M754.983 124.834C754.983 124.834 754.843 125.636 754.122 126.318C753.578 126.832 750.26 127.178 749.91 127.02C749.388 126.786 748.707 125.666 748.707 125.666C748.707 125.666 749.876 124.06 751.316 124.06C752.755 124.06 754.983 124.834 754.983 124.834Z" fill="white"/>
<path d="M751.316 124.376C752.356 124.376 753.807 124.778 754.53 125.002C754.697 125.053 754.611 125.622 754.334 126.095C754.926 125.55 754.983 124.834 754.983 124.834C754.983 124.834 752.755 124.06 751.316 124.06C749.876 124.06 748.707 125.666 748.707 125.666C748.707 125.666 748.754 125.824 748.875 125.924C749.132 125.601 750.068 124.376 751.316 124.376Z" fill="#432918"/>
<path d="M752.906 125.521C752.906 126.329 752.251 126.983 751.444 126.983C750.638 126.983 749.982 126.329 749.982 125.521C749.982 124.714 750.638 124.061 751.444 124.061C752.251 124.061 752.906 124.714 752.906 125.521Z" fill="#432918"/>
<path d="M752.697 125.523C752.697 126.141 750.959 124.404 751.577 124.404C752.196 124.404 752.697 124.905 752.697 125.523Z" fill="white"/>
<path d="M732.296 122.4C732.296 122.4 733.079 121.871 734.829 121.301C736.735 120.679 739.343 121.632 739.445 121.632C739.622 121.632 739.885 121.582 739.885 121.092C739.885 120.601 739.74 120.204 739.561 120.204C739.464 120.204 736.881 119.562 734.944 120.166C733.462 120.628 732.296 122.4 732.296 122.4Z" fill="#432918"/>
<path d="M756.295 122.4C756.295 122.4 755.513 121.871 753.761 121.301C751.856 120.679 749.248 121.632 749.147 121.632C748.969 121.632 748.707 121.582 748.707 121.092C748.707 120.601 748.85 120.204 749.029 120.204C749.128 120.204 751.711 119.562 753.647 120.166C755.13 120.628 756.295 122.4 756.295 122.4Z" fill="#432918"/>
<path d="M733.608 124.834C733.608 124.834 733.748 125.636 734.47 126.318C735.014 126.832 738.332 127.178 738.681 127.02C739.204 126.786 739.885 125.666 739.885 125.666C739.885 125.666 738.717 124.06 737.277 124.06C735.837 124.061 733.608 124.834 733.608 124.834Z" fill="white"/>
<path d="M737.277 124.376C736.235 124.376 734.786 124.778 734.061 125.002C733.895 125.053 733.981 125.622 734.258 126.095C733.665 125.55 733.608 124.834 733.608 124.834C733.608 124.834 735.837 124.06 737.277 124.06C738.717 124.06 739.885 125.666 739.885 125.666C739.885 125.666 739.839 125.824 739.718 125.924C739.46 125.601 738.525 124.376 737.277 124.376Z" fill="#432918"/>
<path d="M735.687 125.521C735.687 126.329 736.341 126.983 737.148 126.983C737.955 126.983 738.609 126.329 738.609 125.521C738.609 124.714 737.955 124.061 737.148 124.061C736.341 124.061 735.687 124.714 735.687 125.521Z" fill="#432918"/>
<path d="M735.896 125.523C735.896 126.141 737.633 124.404 737.015 124.404C736.397 124.404 735.896 124.905 735.896 125.523Z" fill="white"/>
<path d="M743.77 131.423L742.46 130.386L743.77 127.326V131.423Z" fill="#E09D72"/>
<path d="M740.217 135.763L739.727 135.286L748.548 134.808L746.963 135.763H740.217Z" fill="#E09D72"/>
</g>
<rect x="618.5" y="125.5" width="89" height="27" rx="13.5" fill="#E5E0EF"/>
<rect x="618.5" y="125.5" width="89" height="27" rx="13.5" stroke="#000080"/>
<path d="M644.363 144L643.523 141.528H640.139L639.299 144H638.279L641.207 135.624H642.491L645.419 144H644.363ZM641.855 136.56H641.795L640.379 140.64H643.271L641.855 136.56ZM647.01 135.12H647.97V138.816H648.018C648.178 138.424 648.41 138.136 648.714 137.952C649.026 137.76 649.398 137.664 649.83 137.664C650.214 137.664 650.562 137.74 650.874 137.892C651.186 138.044 651.45 138.26 651.666 138.54C651.89 138.82 652.058 139.16 652.17 139.56C652.29 139.96 652.35 140.408 652.35 140.904C652.35 141.4 652.29 141.848 652.17 142.248C652.058 142.648 651.89 142.988 651.666 143.268C651.45 143.548 651.186 143.764 650.874 143.916C650.562 144.068 650.214 144.144 649.83 144.144C648.99 144.144 648.386 143.76 648.018 142.992H647.97V144H647.01V135.12ZM649.566 143.28C650.11 143.28 650.538 143.112 650.85 142.776C651.162 142.432 651.318 141.984 651.318 141.432V140.376C651.318 139.824 651.162 139.38 650.85 139.044C650.538 138.7 650.11 138.528 649.566 138.528C649.35 138.528 649.142 138.56 648.942 138.624C648.75 138.68 648.582 138.76 648.438 138.864C648.294 138.968 648.178 139.096 648.09 139.248C648.01 139.392 647.97 139.548 647.97 139.716V142.02C647.97 142.22 648.01 142.4 648.09 142.56C648.178 142.712 648.294 142.844 648.438 142.956C648.582 143.06 648.75 143.14 648.942 143.196C649.142 143.252 649.35 143.28 649.566 143.28ZM656.611 144.144C656.195 144.144 655.815 144.068 655.471 143.916C655.127 143.764 654.831 143.548 654.583 143.268C654.343 142.98 654.155 142.64 654.019 142.248C653.883 141.848 653.815 141.4 653.815 140.904C653.815 140.416 653.883 139.972 654.019 139.572C654.155 139.172 654.343 138.832 654.583 138.552C654.831 138.264 655.127 138.044 655.471 137.892C655.815 137.74 656.195 137.664 656.611 137.664C657.027 137.664 657.403 137.74 657.739 137.892C658.083 138.044 658.379 138.264 658.627 138.552C658.875 138.832 659.067 139.172 659.203 139.572C659.339 139.972 659.407 140.416 659.407 140.904C659.407 141.4 659.339 141.848 659.203 142.248C659.067 142.64 658.875 142.98 658.627 143.268C658.379 143.548 658.083 143.764 657.739 143.916C657.403 144.068 657.027 144.144 656.611 144.144ZM656.611 143.292C657.131 143.292 657.555 143.132 657.883 142.812C658.211 142.492 658.375 142.004 658.375 141.348V140.46C658.375 139.804 658.211 139.316 657.883 138.996C657.555 138.676 657.131 138.516 656.611 138.516C656.091 138.516 655.667 138.676 655.339 138.996C655.011 139.316 654.847 139.804 654.847 140.46V141.348C654.847 142.004 655.011 142.492 655.339 142.812C655.667 143.132 656.091 143.292 656.611 143.292ZM665.102 142.992H665.054C664.99 143.136 664.91 143.28 664.814 143.424C664.726 143.56 664.614 143.684 664.478 143.796C664.342 143.9 664.178 143.984 663.986 144.048C663.794 144.112 663.57 144.144 663.314 144.144C662.674 144.144 662.166 143.94 661.79 143.532C661.414 143.116 661.226 142.532 661.226 141.78V137.808H662.186V141.612C662.186 142.724 662.658 143.28 663.602 143.28C663.794 143.28 663.978 143.256 664.154 143.208C664.338 143.16 664.498 143.088 664.634 142.992C664.778 142.896 664.89 142.776 664.97 142.632C665.058 142.48 665.102 142.3 665.102 142.092V137.808H666.062V144H665.102V142.992ZM669.774 144C669.438 144 669.182 143.908 669.006 143.724C668.838 143.532 668.754 143.284 668.754 142.98V138.648H667.734V137.808H668.31C668.518 137.808 668.658 137.768 668.73 137.688C668.81 137.6 668.85 137.452 668.85 137.244V136.092H669.714V137.808H671.07V138.648H669.714V143.16H670.974V144H669.774ZM679.865 142.992H679.817C679.753 143.136 679.673 143.28 679.577 143.424C679.489 143.56 679.377 143.684 679.241 143.796C679.105 143.9 678.941 143.984 678.749 144.048C678.557 144.112 678.333 144.144 678.077 144.144C677.437 144.144 676.929 143.94 676.553 143.532C676.177 143.116 675.989 142.532 675.989 141.78V137.808H676.949V141.612C676.949 142.724 677.421 143.28 678.365 143.28C678.557 143.28 678.741 143.256 678.917 143.208C679.101 143.16 679.261 143.088 679.397 142.992C679.541 142.896 679.653 142.776 679.733 142.632C679.821 142.48 679.865 142.3 679.865 142.092V137.808H680.825V144H679.865V142.992ZM685.03 144.144C684.454 144.144 683.97 144.036 683.578 143.82C683.194 143.596 682.862 143.3 682.582 142.932L683.266 142.38C683.506 142.684 683.774 142.92 684.07 143.088C684.366 143.248 684.71 143.328 685.102 143.328C685.51 143.328 685.826 143.24 686.05 143.064C686.282 142.888 686.398 142.64 686.398 142.32C686.398 142.08 686.318 141.876 686.158 141.708C686.006 141.532 685.726 141.412 685.318 141.348L684.826 141.276C684.538 141.236 684.274 141.176 684.034 141.096C683.794 141.008 683.582 140.896 683.398 140.76C683.222 140.616 683.082 140.44 682.978 140.232C682.882 140.024 682.834 139.776 682.834 139.488C682.834 139.184 682.89 138.92 683.002 138.696C683.114 138.464 683.266 138.272 683.458 138.12C683.658 137.968 683.894 137.856 684.166 137.784C684.438 137.704 684.73 137.664 685.042 137.664C685.546 137.664 685.966 137.752 686.302 137.928C686.646 138.104 686.946 138.348 687.202 138.66L686.566 139.236C686.43 139.044 686.23 138.872 685.966 138.72C685.702 138.56 685.37 138.48 684.97 138.48C684.57 138.48 684.266 138.568 684.058 138.744C683.858 138.912 683.758 139.144 683.758 139.44C683.758 139.744 683.858 139.964 684.058 140.1C684.266 140.236 684.562 140.336 684.946 140.4L685.426 140.472C686.114 140.576 686.602 140.776 686.89 141.072C687.178 141.36 687.322 141.74 687.322 142.212C687.322 142.812 687.118 143.284 686.71 143.628C686.302 143.972 685.742 144.144 685.03 144.144Z" fill="#050405"/>
<defs>
<filter id="filter0_b_159_791" x="921.352" y="122" width="64" height="64" filterUnits="userSpaceOnUse" color-interpolation-filters="sRGB">
<feFlood flood-opacity="0" result="BackgroundImageFix"/>
<feGaussianBlur in="BackgroundImageFix" stdDeviation="4"/>
<feComposite in2="SourceAlpha" operator="in" result="effect1_backgroundBlur_159_791"/>
<feBlend mode="normal" in="SourceGraphic" in2="effect1_backgroundBlur_159_791" result="shape"/>
</filter>
<filter id="filter1_b_159_791" x="411" y="122" width="64" height="64" filterUnits="userSpaceOnUse" color-interpolation-filters="sRGB">
<feFlood flood-opacity="0" result="BackgroundImageFix"/>
<feGaussianBlur in="BackgroundImageFix" stdDeviation="4"/>
<feComposite in2="SourceAlpha" operator="in" result="effect1_backgroundBlur_159_791"/>
<feBlend mode="normal" in="SourceGraphic" in2="effect1_backgroundBlur_159_791" result="shape"/>
</filter>
<filter id="filter2_b_159_791" x="1309" y="265" width="64" height="64" filterUnits="userSpaceOnUse" color-interpolation-filters="sRGB">
<feFlood flood-opacity="0" result="BackgroundImageFix"/>
<feGaussianBlur in="BackgroundImageFix" stdDeviation="4"/>
<feComposite in2="SourceAlpha" operator="in" result="effect1_backgroundBlur_159_791"/>
<feBlend mode="normal" in="SourceGraphic" in2="effect1_backgroundBlur_159_791" result="shape"/>
</filter>
<filter id="filter3_b_159_791" x="476" y="-8" width="64" height="64" filterUnits="userSpaceOnUse" color-interpolation-filters="sRGB">
<feFlood flood-opacity="0" result="BackgroundImageFix"/>
<feGaussianBlur in="BackgroundImageFix" stdDeviation="4"/>
<feComposite in2="SourceAlpha" operator="in" result="effect1_backgroundBlur_159_791"/>
<feBlend mode="normal" in="SourceGraphic" in2="effect1_backgroundBlur_159_791" result="shape"/>
</filter>
<linearGradient id="paint0_linear_159_791" x1="597.389" y1="26.6408" x2="593.686" y2="263.501" gradientUnits="userSpaceOnUse">
<stop offset="0.081072" stop-color="#685D69"/>
<stop offset="1" stop-color="#CDB7CF" stop-opacity="0.3"/>
</linearGradient>
<linearGradient id="paint1_linear_159_791" x1="597.389" y1="-98.3592" x2="593.686" y2="138.501" gradientUnits="userSpaceOnUse">
<stop offset="0.081072" stop-color="#685D69"/>
<stop offset="1" stop-color="#CDB7CF" stop-opacity="0.3"/>
</linearGradient>
<linearGradient id="paint2_linear_159_791" x1="929.352" y1="155.5" x2="849.352" y2="155.5" gradientUnits="userSpaceOnUse">
<stop stop-color="#BFAE97"/>
<stop offset="1" stop-color="#4CCD99" stop-opacity="0"/>
</linearGradient>
<linearGradient id="paint3_linear_159_791" x1="929.352" y1="154" x2="977.352" y2="154" gradientUnits="userSpaceOnUse">
<stop stop-color="#BB96BA" stop-opacity="0.3"/>
<stop offset="1" stop-color="#AF78AD"/>
</linearGradient>
<linearGradient id="paint4_linear_159_791" x1="419" y1="155.5" x2="339" y2="155.5" gradientUnits="userSpaceOnUse">
<stop stop-color="#BFAE97"/>
<stop offset="1" stop-color="#4CCD99" stop-opacity="0"/>
</linearGradient>
<linearGradient id="paint5_linear_159_791" x1="419" y1="154" x2="467" y2="154" gradientUnits="userSpaceOnUse">
<stop stop-color="#B57DB3"/>
<stop offset="1" stop-color="#BFAE97"/>
</linearGradient>
<linearGradient id="paint6_linear_159_791" x1="1317" y1="298.5" x2="1237" y2="298.5" gradientUnits="userSpaceOnUse">
<stop stop-color="#BFAE97"/>
<stop offset="1" stop-color="#4CCD99" stop-opacity="0"/>
</linearGradient>
<linearGradient id="paint7_linear_159_791" x1="1317" y1="297" x2="1365" y2="297" gradientUnits="userSpaceOnUse">
<stop stop-color="#BB96BA" stop-opacity="0.3"/>
<stop offset="1" stop-color="#AF78AD"/>
</linearGradient>
<linearGradient id="paint8_linear_159_791" x1="484" y1="25.5" x2="404" y2="25.5" gradientUnits="userSpaceOnUse">
<stop stop-color="#BFAE97"/>
<stop offset="1" stop-color="#4CCD99" stop-opacity="0"/>
</linearGradient>
<linearGradient id="paint9_linear_159_791" x1="484" y1="24" x2="532" y2="24" gradientUnits="userSpaceOnUse">
<stop stop-color="#BB96BA" stop-opacity="0.3"/>
<stop offset="1" stop-color="#AF78AD"/>
</linearGradient>
<clipPath id="clip0_159_791">
<rect width="24" height="24" fill="white" transform="translate(941.352 142)"/>
</clipPath>
<clipPath id="clip1_159_791">
<rect width="24" height="24" fill="white" transform="translate(431 142)"/>
</clipPath>
<clipPath id="clip2_159_791">
<rect width="24" height="24" fill="white" transform="translate(1329 285)"/>
</clipPath>
<clipPath id="clip3_159_791">
<rect width="24" height="24" fill="white" transform="translate(496 12)"/>
</clipPath>
</defs>
</svg>
