<svg width="57" height="58" viewBox="0 0 57 58" fill="none" xmlns="http://www.w3.org/2000/svg">
<rect y="29" width="40" height="40" rx="4" transform="rotate(-45 0 29)" fill="#181818"/>
<path d="M34.93 37.5C33.2447 37.5 31.5167 37.078 29.746 36.234C27.9753 35.39 26.3273 34.205 24.802 32.679C23.2887 31.1537 22.11 29.5087 21.266 27.744C20.422 25.9793 20 24.2547 20 22.57C20 22.27 20.1 22.0167 20.3 21.81C20.5 21.6033 20.75 21.5 21.05 21.5H23.523C23.795 21.5 24.0323 21.5857 24.235 21.757C24.4377 21.9283 24.5747 22.148 24.646 22.416L25.142 24.8C25.1887 25.08 25.1803 25.3243 25.117 25.533C25.0537 25.7417 24.9427 25.9127 24.784 26.046L22.59 28.092C23.0007 28.8367 23.4543 29.5287 23.951 30.168C24.4477 30.8073 24.9777 31.413 25.541 31.985C26.121 32.565 26.7457 33.105 27.415 33.605C28.0843 34.1043 28.819 34.5757 29.619 35.019L31.758 32.842C31.9207 32.6667 32.1037 32.551 32.307 32.495C32.5097 32.4397 32.7343 32.4287 32.981 32.462L35.084 32.892C35.356 32.9587 35.5767 33.0957 35.746 33.303C35.9153 33.5103 36 33.7477 36 34.015V36.45C36 36.75 35.8967 37 35.69 37.2C35.4833 37.4 35.23 37.5 34.93 37.5Z" fill="white"/>
</svg>
