<svg width="13" height="13" viewBox="0 0 13 13" fill="none" xmlns="http://www.w3.org/2000/svg">
<path d="M6.5 0.549805C6.69891 0.549805 6.88968 0.628822 7.03033 0.769475C7.17098 0.910127 7.25 1.10089 7.25 1.2998V5.7998H11.75C11.9489 5.7998 12.1397 5.87882 12.2803 6.01947C12.421 6.16013 12.5 6.35089 12.5 6.5498C12.5 6.74872 12.421 6.93948 12.2803 7.08014C12.1397 7.22079 11.9489 7.2998 11.75 7.2998H7.25V11.7998C7.25 11.9987 7.17098 12.1895 7.03033 12.3301C6.88968 12.4708 6.69891 12.5498 6.5 12.5498C6.30109 12.5498 6.11032 12.4708 5.96967 12.3301C5.82902 12.1895 5.75 11.9987 5.75 11.7998V7.2998H1.25C1.05109 7.2998 0.860322 7.22079 0.71967 7.08014C0.579018 6.93948 0.5 6.74872 0.5 6.5498C0.5 6.35089 0.579018 6.16013 0.71967 6.01947C0.860322 5.87882 1.05109 5.7998 1.25 5.7998H5.75V1.2998C5.75 1.10089 5.82902 0.910127 5.96967 0.769475C6.11032 0.628822 6.30109 0.549805 6.5 0.549805Z" fill="#000080"/>
</svg>
