<svg width="413" height="418" viewBox="0 0 413 418" fill="none" xmlns="http://www.w3.org/2000/svg">
<line x1="4.37114e-08" y1="77.5" x2="413" y2="77.5" stroke="#E5E0EF"/>
<line x1="301.5" y1="6.49474e-08" x2="301.5" y2="418" stroke="#E5E0EF"/>
<line x1="302.5" y1="6.49474e-08" x2="302.5" y2="418" stroke="#E5E0EF"/>
<line x1="206.5" y1="6.49474e-08" x2="206.5" y2="418" stroke="#E5E0EF"/>
<line x1="110.5" y1="6.49474e-08" x2="110.5" y2="418" stroke="#E5E0EF"/>
<line x1="4.37114e-08" y1="165.5" x2="413" y2="165.5" stroke="#E5E0EF"/>
<line x1="4.37114e-08" y1="253.5" x2="413" y2="253.5" stroke="#E5E0EF"/>
<line x1="4.37114e-08" y1="341.5" x2="413" y2="341.5" stroke="#E5E0EF"/>
<path d="M134 78H214" stroke="#000080" stroke-opacity="0.25"/>
<path d="M86 78H6" stroke="url(#paint0_linear_269_3660)" stroke-opacity="0.8"/>
<g filter="url(#filter0_b_269_3660)">
<rect x="86" y="53" width="48" height="48" rx="8" fill="#F6F5F6"/>
<rect x="86.75" y="53.75" width="46.5" height="46.5" rx="7.25" stroke="url(#paint1_linear_269_3660)" stroke-opacity="0.8" stroke-width="1.5"/>
</g>
<g clip-path="url(#clip0_269_3660)">
<path d="M111 68V87" stroke="#E8FEFF" stroke-width="1.5" stroke-linecap="round" stroke-linejoin="round"/>
<path d="M117 76.227C117 79.5 115.188 80.997 111 85.5C106.812 80.997 105 79.5 105 76.227C105 71.773 108.071 69.3 111 67C113.929 69.3 117 71.773 117 76.227Z" stroke="#FF6B43" stroke-width="1.5" stroke-linecap="round" stroke-linejoin="round"/>
</g>
<path d="M325.852 25H405.852" stroke="#000080" stroke-opacity="0.25"/>
<path d="M277.852 25H197.852" stroke="url(#paint2_linear_269_3660)" stroke-opacity="0.8"/>
<g filter="url(#filter1_b_269_3660)">
<rect x="277.852" width="48" height="48" rx="8" fill="#F6F5F6"/>
<rect x="278.602" y="0.75" width="46.5" height="46.5" rx="7.25" stroke="url(#paint3_linear_269_3660)" stroke-opacity="0.8" stroke-width="1.5"/>
</g>
<g clip-path="url(#clip1_269_3660)">
<path d="M302.851 33C301.424 31.974 299.261 29.146 298.851 27C298.365 27.77 297.35 29 296.851 29C295.352 28.112 296.277 25.027 296.851 23C295.255 21.567 294.383 20.542 294.351 19C291.001 15.56 293.907 13.73 296.851 16H297.851C306.333 16.5 304.272 24.07 306.851 27.5C309.146 28.022 310.516 29.754 311.851 31C309.765 30.8 309.067 30.656 308.351 31C308.829 32.64 310.474 33.2 311.851 34" stroke="#FF6B43" stroke-width="1.5" stroke-linecap="round" stroke-linejoin="round"/>
<path d="M298.852 19H298.862" stroke="#E8FEFF" stroke-linecap="round" stroke-linejoin="round"/>
</g>
<path d="M231 254H311" stroke="#000080" stroke-opacity="0.25"/>
<path d="M183 254H103" stroke="url(#paint4_linear_269_3660)" stroke-opacity="0.8"/>
<g filter="url(#filter2_b_269_3660)">
<rect x="183" y="229" width="48" height="48" rx="8" fill="#F6F5F6"/>
<rect x="183.75" y="229.75" width="46.5" height="46.5" rx="7.25" stroke="url(#paint5_linear_269_3660)" stroke-opacity="0.8" stroke-width="1.5"/>
</g>
<g clip-path="url(#clip2_269_3660)">
<path d="M216 255L207 262L198 255L201 244L204 251H210L213 244L216 255Z" stroke="#B0B0B0" stroke-width="1.5" stroke-linecap="round" stroke-linejoin="round"/>
</g>
<path d="M323 338.55H403" stroke="#000080" stroke-opacity="0.25"/>
<path d="M275 338.55H195" stroke="url(#paint6_linear_269_3660)" stroke-opacity="0.8"/>
<g filter="url(#filter3_b_269_3660)">
<rect x="275" y="313.55" width="48" height="48" rx="8" fill="#F6F5F6"/>
<rect x="275.75" y="314.3" width="46.5" height="46.5" rx="7.25" stroke="url(#paint7_linear_269_3660)" stroke-opacity="0.8" stroke-width="1.5"/>
</g>
<g clip-path="url(#clip3_269_3660)">
<path d="M296 344.55C291.7 345.95 291.7 342.05 290 341.55M302 346.55V343.05C302 342.05 302.1 341.65 301.5 341.05C304.3 340.75 307 339.65 307 335.05C306.999 333.855 306.533 332.707 305.7 331.85C306.09 330.812 306.055 329.661 305.6 328.65C305.6 328.65 304.5 328.35 302.1 329.95C300.067 329.42 297.933 329.42 295.9 329.95C293.5 328.35 292.4 328.65 292.4 328.65C291.945 329.661 291.91 330.812 292.3 331.85C291.467 332.707 291.001 333.855 291 335.05C291 339.65 293.7 340.75 296.5 341.05C295.9 341.65 295.9 342.25 296 343.05V346.55" stroke="#08DEF5" stroke-width="1.5" stroke-linecap="round" stroke-linejoin="round"/>
</g>
<path d="M256.048 195.201L156.312 194.555C151.872 194.526 148.263 190.87 148.292 186.43C148.321 181.99 151.977 178.381 156.417 178.41L256.153 179.057C260.593 179.086 264.202 182.742 264.173 187.181C264.144 191.621 260.488 195.23 256.048 195.201Z" fill="#312231"/>
<path d="M246.726 106.164L167.863 105.652C149.1 105.531 133.649 120.783 133.527 139.546L133.324 170.783C133.279 177.855 139.027 183.679 146.1 183.725L267.476 184.512C274.548 184.558 280.372 178.809 280.418 171.737L280.62 140.5C280.742 121.737 265.49 106.285 246.726 106.164Z" fill="#000080"/>
<path d="M262.209 188.783L151.311 188.064C141.357 187.999 133.16 196.09 133.096 206.044L133.002 220.594C132.739 261.045 165.383 330.949 205.834 331.211C246.284 331.474 279.832 261.998 280.095 221.548L280.189 206.998C280.254 197.044 272.163 188.848 262.209 188.783Z" fill="#000080"/>
<path d="M260.179 150.996C260.144 156.455 255.97 161.009 250.532 161.486C221.1 164.064 190.587 163.949 159.192 160.865C153.745 160.33 149.601 155.72 149.636 150.246L149.673 144.508C149.708 139.067 153.861 134.526 159.279 134.023C189.824 131.188 220.366 130.855 250.904 134.47C256.248 135.103 260.252 139.68 260.217 145.062L260.179 150.996Z" fill="#312231"/>
<path d="M181.81 147.618C181.785 151.326 178.76 154.313 175.051 154.289C171.343 154.265 168.356 151.239 168.38 147.531C168.404 143.823 171.43 140.836 175.138 140.86C178.847 140.884 181.834 143.91 181.81 147.618Z" fill="#E5E0EF"/>
<path d="M241.472 148.005C241.447 151.713 238.422 154.7 234.713 154.676C231.005 154.652 228.018 151.626 228.042 147.918C228.066 144.209 231.092 141.222 234.8 141.246C238.509 141.27 241.496 144.296 241.472 148.005Z" fill="#E5E0EF"/>
<path d="M175.237 156.914C175.224 156.691 175.39 156.506 175.606 156.493C175.828 156.48 176.013 156.646 176.026 156.869C176.039 157.084 175.873 157.27 175.651 157.283C175.643 157.283 175.636 157.283 175.629 157.283C175.421 157.281 175.243 157.122 175.237 156.914ZM173.219 157.123C173.004 157.079 172.869 156.87 172.906 156.655C172.951 156.44 173.16 156.298 173.375 156.342C173.59 156.387 173.725 156.588 173.688 156.811C173.65 156.997 173.484 157.132 173.298 157.131C173.269 157.131 173.248 157.124 173.219 157.123ZM177.549 156.585C177.486 156.376 177.595 156.154 177.811 156.091C178.02 156.021 178.241 156.137 178.304 156.346C178.375 156.554 178.259 156.776 178.05 156.846C178.007 156.86 177.964 156.86 177.928 156.86C177.756 156.858 177.606 156.757 177.549 156.585ZM170.906 156.355C170.706 156.26 170.629 156.023 170.723 155.83C170.811 155.629 171.048 155.545 171.248 155.64C171.448 155.734 171.526 155.971 171.431 156.165C171.366 156.315 171.222 156.393 171.071 156.392C171.021 156.392 170.963 156.384 170.906 156.355ZM179.715 155.694C179.594 155.507 179.653 155.264 179.841 155.143C180.021 155.029 180.264 155.088 180.385 155.268C180.499 155.455 180.447 155.699 180.26 155.82C180.195 155.863 180.116 155.877 180.044 155.876C179.915 155.875 179.786 155.81 179.715 155.694ZM168.856 155.036C168.691 154.898 168.664 154.647 168.809 154.476C168.946 154.311 169.198 154.291 169.369 154.429C169.533 154.567 169.553 154.818 169.416 154.989C169.336 155.082 169.221 155.131 169.106 155.13C169.02 155.13 168.927 155.101 168.856 155.036ZM181.583 154.293C181.426 154.141 181.42 153.89 181.572 153.726C181.724 153.569 181.975 153.564 182.132 153.715C182.289 153.867 182.294 154.118 182.142 154.275C182.063 154.361 181.962 154.396 181.855 154.395C181.754 154.395 181.661 154.358 181.583 154.293ZM167.195 153.253C167.067 153.072 167.112 152.828 167.285 152.701C167.465 152.572 167.716 152.61 167.844 152.79C167.972 152.97 167.928 153.214 167.747 153.342C167.682 153.392 167.596 153.42 167.517 153.42C167.395 153.419 167.273 153.361 167.195 153.253ZM183.051 152.465C182.858 152.357 182.795 152.119 182.896 151.926C183.006 151.733 183.25 151.67 183.436 151.772C183.629 151.881 183.699 152.125 183.59 152.311C183.518 152.447 183.381 152.518 183.237 152.517C183.18 152.517 183.108 152.502 183.051 152.465ZM166.032 151.114C165.955 150.913 166.056 150.676 166.258 150.599C166.459 150.521 166.688 150.623 166.773 150.824C166.851 151.026 166.749 151.262 166.548 151.34C166.497 151.354 166.447 151.368 166.396 151.367C166.246 151.366 166.096 151.272 166.032 151.114ZM184.019 150.333C183.804 150.282 183.677 150.066 183.735 149.851C183.794 149.643 184.01 149.515 184.218 149.567C184.433 149.626 184.561 149.842 184.502 150.05C184.502 150.05 184.502 150.05 184.502 150.057C184.457 150.229 184.292 150.35 184.112 150.348C184.084 150.348 184.048 150.341 184.019 150.333ZM165.438 148.749C165.41 148.534 165.57 148.334 165.785 148.306C166.001 148.279 166.2 148.438 166.228 148.654C166.255 148.869 166.096 149.069 165.88 149.096C165.866 149.096 165.844 149.096 165.83 149.096C165.636 149.095 165.465 148.95 165.438 148.749ZM184.029 147.636C184.029 147.628 184.029 147.628 184.029 147.621C184.03 147.614 184.03 147.607 184.03 147.593C184.031 147.377 184.204 147.199 184.427 147.2C184.642 147.202 184.82 147.382 184.819 147.598C184.819 147.605 184.819 147.612 184.819 147.619C184.819 147.626 184.819 147.633 184.819 147.641C184.817 147.856 184.644 148.034 184.422 148.033C184.206 148.031 184.028 147.851 184.029 147.636ZM184.03 147.593V147.6C184.03 147.593 184.03 147.6 184.03 147.593ZM165.795 146.757C165.573 146.727 165.423 146.532 165.446 146.317C165.476 146.095 165.678 145.945 165.893 145.975C166.108 145.998 166.265 146.2 166.235 146.415C166.212 146.616 166.039 146.765 165.838 146.764C165.824 146.764 165.809 146.757 165.795 146.757ZM183.757 145.373C183.701 145.165 183.832 144.944 184.04 144.894C184.256 144.838 184.47 144.969 184.527 145.177C184.575 145.393 184.452 145.608 184.236 145.664C184.2 145.67 184.172 145.67 184.136 145.67C183.963 145.669 183.799 145.553 183.757 145.373ZM166.283 144.471C166.083 144.39 165.984 144.16 166.064 143.953C166.144 143.753 166.375 143.654 166.582 143.734C166.783 143.814 166.882 144.044 166.801 144.252C166.736 144.402 166.585 144.502 166.426 144.501C166.384 144.5 166.333 144.486 166.283 144.471ZM182.938 143.295C182.832 143.1 182.905 142.856 183.093 142.757C183.287 142.651 183.523 142.717 183.63 142.912C183.736 143.106 183.67 143.342 183.475 143.449C183.411 143.484 183.346 143.498 183.282 143.498C183.145 143.497 183.009 143.424 182.938 143.295ZM167.337 142.382C167.159 142.245 167.118 142.001 167.248 141.822C167.378 141.651 167.63 141.609 167.801 141.74C167.979 141.87 168.021 142.114 167.89 142.293C167.811 142.4 167.689 142.456 167.567 142.456C167.488 142.455 167.402 142.433 167.337 142.382ZM181.623 141.478C181.473 141.319 181.482 141.068 181.641 140.918C181.807 140.768 182.058 140.777 182.208 140.936C182.357 141.095 182.348 141.346 182.189 141.496C182.11 141.567 182.009 141.602 181.916 141.602C181.808 141.601 181.701 141.564 181.623 141.478ZM168.87 140.613C168.735 140.447 168.758 140.196 168.924 140.053C169.097 139.918 169.341 139.941 169.483 140.107C169.618 140.28 169.595 140.531 169.43 140.667C169.35 140.731 169.264 140.759 169.17 140.758C169.063 140.758 168.949 140.707 168.87 140.613ZM179.903 140.046C179.717 139.93 179.668 139.678 179.784 139.499C179.9 139.314 180.152 139.258 180.33 139.374C180.516 139.497 180.572 139.741 180.456 139.928C180.376 140.042 180.247 140.105 180.117 140.105C180.046 140.104 179.974 140.089 179.903 140.046ZM170.794 139.284C170.703 139.082 170.79 138.845 170.985 138.754C171.186 138.662 171.422 138.749 171.514 138.951C171.606 139.145 171.519 139.381 171.317 139.473C171.267 139.502 171.209 139.516 171.152 139.515C171.001 139.514 170.858 139.427 170.794 139.284ZM177.886 139.085C177.678 139.012 177.564 138.789 177.63 138.582C177.696 138.374 177.92 138.26 178.134 138.334C178.134 138.334 178.134 138.334 178.127 138.334C178.342 138.399 178.455 138.623 178.382 138.83C178.331 139.002 178.172 139.109 178.007 139.108C177.964 139.107 177.921 139.1 177.886 139.085ZM172.989 138.472C172.947 138.257 173.092 138.05 173.307 138.015C173.522 137.974 173.73 138.111 173.771 138.327C173.806 138.542 173.668 138.75 173.453 138.791C173.424 138.798 173.403 138.798 173.374 138.798C173.194 138.797 173.023 138.666 172.989 138.472ZM175.685 138.662C175.47 138.646 175.299 138.459 175.315 138.237C175.33 138.021 175.518 137.857 175.741 137.866C175.956 137.882 176.119 138.069 176.111 138.292C176.095 138.5 175.915 138.664 175.714 138.662C175.7 138.662 175.692 138.662 175.685 138.662Z" fill="#E5E0EF"/>
<path d="M234.866 157.3C234.853 157.078 235.019 156.893 235.234 156.88C235.457 156.867 235.642 157.033 235.655 157.255C235.668 157.471 235.502 157.656 235.279 157.669C235.272 157.669 235.265 157.669 235.258 157.669C235.05 157.668 234.872 157.509 234.866 157.3ZM232.848 157.51C232.633 157.465 232.498 157.256 232.535 157.041C232.58 156.826 232.789 156.684 233.004 156.729C233.219 156.773 233.354 156.975 233.317 157.197C233.279 157.383 233.113 157.519 232.927 157.517C232.898 157.517 232.877 157.51 232.848 157.51ZM237.178 156.971C237.115 156.762 237.224 156.541 237.44 156.478C237.648 156.407 237.87 156.523 237.933 156.732C238.004 156.941 237.887 157.162 237.679 157.232C237.636 157.247 237.593 157.246 237.557 157.246C237.385 157.245 237.235 157.144 237.178 156.971ZM230.535 156.742C230.335 156.647 230.258 156.41 230.352 156.217C230.44 156.016 230.677 155.931 230.877 156.026C231.077 156.121 231.155 156.358 231.06 156.551C230.995 156.702 230.851 156.779 230.7 156.778C230.65 156.778 230.592 156.771 230.535 156.742ZM239.344 156.081C239.223 155.894 239.282 155.65 239.469 155.529C239.65 155.416 239.893 155.475 240.014 155.655C240.128 155.842 240.076 156.086 239.889 156.207C239.823 156.249 239.744 156.263 239.673 156.263C239.544 156.262 239.415 156.196 239.344 156.081ZM228.485 155.422C228.32 155.285 228.293 155.033 228.438 154.862C228.575 154.698 228.827 154.678 228.998 154.815C229.162 154.953 229.182 155.204 229.045 155.376C228.965 155.468 228.85 155.518 228.735 155.517C228.649 155.516 228.556 155.487 228.485 155.422ZM241.212 154.68C241.055 154.528 241.049 154.277 241.201 154.113C241.353 153.956 241.604 153.95 241.761 154.102C241.918 154.254 241.923 154.505 241.771 154.662C241.692 154.747 241.591 154.783 241.484 154.782C241.383 154.781 241.29 154.745 241.212 154.68ZM226.824 153.639C226.696 153.459 226.741 153.215 226.914 153.087C227.094 152.959 227.345 152.996 227.473 153.177C227.601 153.357 227.557 153.601 227.376 153.729C227.311 153.779 227.225 153.807 227.146 153.806C227.024 153.805 226.902 153.747 226.824 153.639ZM242.68 152.852C242.487 152.743 242.424 152.506 242.526 152.313C242.635 152.12 242.879 152.057 243.065 152.159C243.258 152.267 243.328 152.512 243.219 152.698C243.147 152.834 243.01 152.905 242.866 152.904C242.809 152.903 242.737 152.889 242.68 152.852ZM225.661 151.5C225.584 151.299 225.685 151.063 225.887 150.985C226.088 150.907 226.317 151.009 226.402 151.211C226.48 151.412 226.378 151.649 226.177 151.726C226.126 151.74 226.076 151.754 226.025 151.754C225.875 151.753 225.725 151.659 225.661 151.5ZM243.648 150.72C243.433 150.668 243.306 150.452 243.364 150.237C243.423 150.03 243.639 149.902 243.847 149.954C244.062 150.012 244.19 150.229 244.131 150.436C244.131 150.436 244.131 150.436 244.131 150.443C244.087 150.615 243.921 150.736 243.741 150.735C243.713 150.735 243.677 150.728 243.648 150.72ZM225.067 149.136C225.039 148.92 225.198 148.72 225.414 148.693C225.63 148.666 225.829 148.825 225.857 149.04C225.884 149.256 225.725 149.456 225.509 149.483C225.495 149.483 225.474 149.483 225.459 149.483C225.265 149.481 225.094 149.337 225.067 149.136ZM243.658 148.022C243.659 148.015 243.659 148.015 243.659 148.008C243.659 148.001 243.659 147.994 243.659 147.979C243.66 147.764 243.834 147.585 244.056 147.587C244.271 147.588 244.45 147.769 244.448 147.984C244.448 147.991 244.448 147.999 244.448 148.006C244.448 148.013 244.448 148.02 244.448 148.027C244.446 148.242 244.273 148.421 244.051 148.419C243.835 148.418 243.657 148.237 243.658 148.022ZM243.659 147.979L243.659 147.986C243.659 147.979 243.659 147.986 243.659 147.979ZM225.424 147.143C225.202 147.113 225.052 146.918 225.075 146.703C225.105 146.481 225.307 146.332 225.522 146.361C225.737 146.385 225.894 146.586 225.864 146.802C225.841 147.002 225.668 147.152 225.467 147.15C225.452 147.15 225.438 147.143 225.424 147.143ZM243.386 145.76C243.33 145.552 243.461 145.33 243.669 145.281C243.885 145.225 244.099 145.356 244.155 145.564C244.204 145.779 244.081 145.994 243.865 146.05C243.829 146.057 243.8 146.057 243.765 146.057C243.592 146.056 243.428 145.94 243.386 145.76ZM225.912 144.858C225.712 144.777 225.613 144.547 225.693 144.339C225.773 144.139 226.004 144.04 226.212 144.12C226.412 144.2 226.511 144.431 226.43 144.638C226.365 144.789 226.214 144.888 226.056 144.887C226.013 144.887 225.962 144.872 225.912 144.858ZM242.567 143.681C242.461 143.487 242.534 143.243 242.722 143.144C242.916 143.038 243.152 143.104 243.259 143.298C243.365 143.492 243.299 143.729 243.104 143.835C243.04 143.87 242.975 143.884 242.911 143.884C242.774 143.883 242.638 143.81 242.567 143.681ZM226.966 142.769C226.788 142.631 226.747 142.387 226.877 142.209C227.007 142.038 227.258 141.996 227.43 142.126C227.608 142.256 227.65 142.501 227.519 142.679C227.44 142.786 227.317 142.843 227.196 142.842C227.117 142.842 227.031 142.82 226.966 142.769ZM241.252 141.864C241.102 141.705 241.111 141.454 241.27 141.304C241.436 141.155 241.686 141.164 241.836 141.322C241.986 141.482 241.977 141.733 241.818 141.882C241.739 141.954 241.638 141.989 241.545 141.988C241.437 141.987 241.33 141.951 241.252 141.864ZM228.499 140.999C228.364 140.833 228.387 140.583 228.553 140.44C228.726 140.305 228.97 140.328 229.112 140.494C229.248 140.667 229.225 140.918 229.059 141.053C228.979 141.117 228.893 141.145 228.8 141.145C228.692 141.144 228.578 141.093 228.499 140.999ZM239.532 140.432C239.346 140.316 239.297 140.065 239.413 139.886C239.529 139.7 239.781 139.644 239.959 139.761C240.145 139.884 240.201 140.128 240.085 140.314C240.005 140.428 239.876 140.492 239.746 140.491C239.675 140.491 239.603 140.476 239.532 140.432ZM230.423 139.67C230.332 139.468 230.419 139.232 230.614 139.14C230.815 139.048 231.051 139.136 231.143 139.337C231.235 139.532 231.148 139.768 230.946 139.86C230.896 139.888 230.838 139.902 230.781 139.902C230.63 139.901 230.487 139.814 230.423 139.67ZM237.514 139.472C237.307 139.399 237.193 139.176 237.259 138.968C237.325 138.761 237.549 138.647 237.763 138.72C237.763 138.72 237.763 138.72 237.756 138.72C237.971 138.786 238.084 139.009 238.011 139.217C237.96 139.389 237.801 139.495 237.636 139.494C237.593 139.494 237.55 139.487 237.514 139.472ZM232.617 138.859C232.576 138.644 232.721 138.436 232.936 138.402C233.151 138.36 233.359 138.498 233.4 138.713C233.435 138.929 233.297 139.136 233.082 139.178C233.053 139.185 233.031 139.185 233.003 139.185C232.823 139.183 232.652 139.053 232.617 138.859ZM235.314 139.049C235.099 139.033 234.928 138.846 234.944 138.623C234.959 138.408 235.147 138.244 235.37 138.253C235.585 138.268 235.748 138.456 235.74 138.678C235.724 138.886 235.544 139.05 235.343 139.049C235.328 139.049 235.321 139.049 235.314 139.049Z" fill="#E5E0EF"/>
<path d="M144.044 89.85C144.031 91.908 142.352 93.5654 140.294 93.552C138.236 93.5387 136.579 91.8597 136.592 89.8017C136.605 87.7438 138.284 86.0864 140.342 86.0997C142.4 86.1131 144.058 87.7922 144.044 89.85Z" fill="#000080"/>
<path d="M140.118 120.616C140.118 120.616 149.009 121.812 153.951 110.227L151.617 105.336C150.823 103.671 148.821 102.976 147.166 103.79L142.041 106.311C140.916 106.865 140.2 108.007 140.192 109.261L140.118 120.616Z" fill="url(#paint8_linear_269_3660)"/>
<path d="M141.045 91.5534C140.949 91.326 140.607 91.4275 140.651 91.6702L143.612 108.044C143.679 108.417 143.929 108.731 144.277 108.88C144.625 109.029 145.024 108.994 145.341 108.786L146.292 108.16C147.084 107.64 147.391 106.63 147.024 105.757L141.045 91.5534Z" fill="#000080"/>
<path d="M270.734 90.6716C270.721 92.7295 272.379 94.4087 274.437 94.4219C276.494 94.4353 278.174 92.7778 278.187 90.7199C278.2 88.6621 276.543 86.9829 274.485 86.9696C272.427 86.9562 270.748 88.6136 270.734 90.6716Z" fill="#000080"/>
<path d="M274.261 121.485C274.261 121.485 265.355 122.567 260.564 110.918L262.961 106.058C263.777 104.404 265.787 103.735 267.432 104.57L272.524 107.157C273.642 107.726 274.343 108.877 274.335 110.131L274.261 121.485Z" fill="#685D69"/>
<path d="M274.103 92.5355L270.945 108.799C270.869 109.186 270.605 109.51 270.24 109.661C269.875 109.812 269.459 109.77 269.132 109.549L268.249 108.951C267.465 108.421 267.17 107.406 267.549 106.539L273.711 92.4135C273.81 92.1874 274.15 92.2934 274.103 92.5355Z" fill="#000080"/>
<path d="M165.52 124.666C163.498 124.653 161.786 123.096 161.617 121.043C161.438 118.87 163.055 116.965 165.227 116.786C193.928 114.426 220.145 114.513 245.373 117.053C247.542 117.271 249.123 119.206 248.904 121.375C248.686 123.543 246.758 125.126 244.583 124.906C219.838 122.416 194.092 122.332 165.874 124.652C165.755 124.662 165.637 124.667 165.52 124.666Z" fill="#E5E0EF"/>
<path d="M205.385 165.461C189.437 165.357 173.368 164.463 157.281 162.778C151.383 162.16 146.966 156.915 147.007 150.578L147.049 144.183C147.089 137.895 151.533 132.712 157.386 132.128C191.904 128.683 223.124 128.832 252.833 132.584C258.582 133.31 262.887 138.541 262.846 144.752L262.803 151.366C262.762 157.687 258.299 162.872 252.421 163.426C236.941 164.885 221.223 165.563 205.385 165.461ZM207.62 130.403C191.593 130.299 174.951 131.121 157.46 132.867C151.986 133.413 147.83 138.28 147.791 144.188L147.75 150.583C147.711 156.536 151.842 161.461 157.358 162.04C189.373 165.392 221.333 165.61 252.352 162.687C257.848 162.169 262.022 157.3 262.061 151.361L262.104 144.747C262.141 138.912 258.116 133.999 252.74 133.32C238.138 131.476 223.168 130.504 207.62 130.403Z" fill="#E5E0EF"/>
<path d="M231.944 233.075L180.282 232.74C175.337 232.708 171.339 228.659 171.371 223.713L171.467 209.004C171.499 204.058 175.548 200.061 180.494 200.093L232.156 200.428C237.101 200.46 241.099 204.51 241.067 209.455L240.971 224.164C240.939 229.11 236.89 233.108 231.944 233.075ZM180.489 200.811C175.939 200.781 172.214 204.458 172.184 209.009L172.089 223.718C172.059 228.268 175.737 231.994 180.287 232.023L231.949 232.358C236.499 232.388 240.225 228.71 240.254 224.16L240.349 209.451C240.379 204.901 236.701 201.175 232.151 201.146L180.489 200.811Z" fill="#F6F5F6"/>
<path d="M185.336 209.094C185.242 209.093 185.149 209.085 185.056 209.063C184.963 209.048 184.877 209.019 184.791 208.983C184.705 208.946 184.62 208.902 184.541 208.844C184.462 208.794 184.391 208.736 184.327 208.664C184.063 208.397 183.908 208.023 183.91 207.65C183.913 207.269 184.073 206.904 184.34 206.633C184.874 206.106 185.836 206.112 186.371 206.647C186.435 206.719 186.492 206.791 186.549 206.87C186.598 206.95 186.641 207.029 186.676 207.115C186.711 207.209 186.74 207.295 186.753 207.388C186.774 207.482 186.78 207.575 186.78 207.668C186.779 207.761 186.772 207.855 186.75 207.948C186.735 208.041 186.706 208.127 186.669 208.213C186.633 208.306 186.589 208.385 186.538 208.463C186.48 208.542 186.422 208.613 186.357 208.677C186.292 208.748 186.213 208.805 186.134 208.855C186.054 208.912 185.975 208.955 185.889 208.99C185.803 209.025 185.709 209.053 185.616 209.067C185.529 209.088 185.429 209.094 185.336 209.094Z" fill="#F6F5F6"/>
<path d="M217.799 207.869C217.804 207.08 218.447 206.438 219.236 206.443C220.032 206.448 220.674 207.098 220.669 207.888C220.664 208.677 220.014 209.318 219.217 209.313C218.428 209.308 217.794 208.658 217.799 207.869ZM211.018 207.825C211.023 207.036 211.673 206.394 212.462 206.399C213.259 206.404 213.893 207.054 213.888 207.844C213.883 208.633 213.24 209.275 212.444 209.269C211.654 209.264 211.013 208.614 211.018 207.825ZM204.245 207.781C204.25 206.992 204.893 206.35 205.689 206.356C206.478 206.361 207.12 207.01 207.115 207.8C207.11 208.589 206.46 209.231 205.67 209.226C204.874 209.22 204.24 208.57 204.245 207.781ZM197.464 207.737C197.469 206.948 198.119 206.306 198.908 206.312C199.705 206.317 200.339 206.966 200.334 207.756C200.329 208.545 199.686 209.187 198.89 209.182C198.1 209.176 197.459 208.526 197.464 207.737ZM190.69 207.693C190.696 206.904 191.338 206.262 192.135 206.268C192.924 206.273 193.566 206.923 193.56 207.712C193.555 208.501 192.906 209.143 192.116 209.138C191.32 209.132 190.685 208.483 190.69 207.693Z" fill="#F6F5F6"/>
<path d="M225.998 209.357C225.618 209.355 225.253 209.202 224.989 208.927C224.918 208.862 224.861 208.79 224.811 208.711C224.761 208.632 224.711 208.552 224.676 208.466C224.641 208.372 224.613 208.286 224.599 208.193C224.578 208.099 224.572 208.006 224.572 207.913C224.575 207.533 224.728 207.168 225.002 206.904C225.067 206.832 225.139 206.775 225.218 206.726C225.298 206.669 225.377 206.626 225.471 206.591C225.557 206.556 225.643 206.528 225.737 206.514C226.204 206.423 226.698 206.578 227.033 206.917C227.297 207.184 227.445 207.551 227.442 207.932C227.442 208.025 227.434 208.118 227.412 208.211C227.397 208.304 227.368 208.39 227.331 208.483C227.295 208.569 227.251 208.648 227.193 208.726C227.143 208.805 227.085 208.876 227.02 208.94C226.948 209.012 226.875 209.069 226.796 209.118C226.717 209.175 226.638 209.218 226.551 209.253C226.458 209.288 226.372 209.317 226.278 209.33C226.185 209.351 226.091 209.358 225.998 209.357Z" fill="#F6F5F6"/>
<defs>
<filter id="filter0_b_269_3660" x="78" y="45" width="64" height="64" filterUnits="userSpaceOnUse" color-interpolation-filters="sRGB">
<feFlood flood-opacity="0" result="BackgroundImageFix"/>
<feGaussianBlur in="BackgroundImageFix" stdDeviation="4"/>
<feComposite in2="SourceAlpha" operator="in" result="effect1_backgroundBlur_269_3660"/>
<feBlend mode="normal" in="SourceGraphic" in2="effect1_backgroundBlur_269_3660" result="shape"/>
</filter>
<filter id="filter1_b_269_3660" x="269.852" y="-8" width="64" height="64" filterUnits="userSpaceOnUse" color-interpolation-filters="sRGB">
<feFlood flood-opacity="0" result="BackgroundImageFix"/>
<feGaussianBlur in="BackgroundImageFix" stdDeviation="4"/>
<feComposite in2="SourceAlpha" operator="in" result="effect1_backgroundBlur_269_3660"/>
<feBlend mode="normal" in="SourceGraphic" in2="effect1_backgroundBlur_269_3660" result="shape"/>
</filter>
<filter id="filter2_b_269_3660" x="175" y="221" width="64" height="64" filterUnits="userSpaceOnUse" color-interpolation-filters="sRGB">
<feFlood flood-opacity="0" result="BackgroundImageFix"/>
<feGaussianBlur in="BackgroundImageFix" stdDeviation="4"/>
<feComposite in2="SourceAlpha" operator="in" result="effect1_backgroundBlur_269_3660"/>
<feBlend mode="normal" in="SourceGraphic" in2="effect1_backgroundBlur_269_3660" result="shape"/>
</filter>
<filter id="filter3_b_269_3660" x="267" y="305.55" width="64" height="64" filterUnits="userSpaceOnUse" color-interpolation-filters="sRGB">
<feFlood flood-opacity="0" result="BackgroundImageFix"/>
<feGaussianBlur in="BackgroundImageFix" stdDeviation="4"/>
<feComposite in2="SourceAlpha" operator="in" result="effect1_backgroundBlur_269_3660"/>
<feBlend mode="normal" in="SourceGraphic" in2="effect1_backgroundBlur_269_3660" result="shape"/>
</filter>
<linearGradient id="paint0_linear_269_3660" x1="86" y1="78.5" x2="6" y2="78.5" gradientUnits="userSpaceOnUse">
<stop stop-color="#BFAE97"/>
<stop offset="1" stop-color="#4CCD99" stop-opacity="0"/>
</linearGradient>
<linearGradient id="paint1_linear_269_3660" x1="86" y1="77" x2="134" y2="77" gradientUnits="userSpaceOnUse">
<stop stop-color="#BB96BA" stop-opacity="0.3"/>
<stop offset="1" stop-color="#AF78AD"/>
</linearGradient>
<linearGradient id="paint2_linear_269_3660" x1="277.852" y1="25.5" x2="197.852" y2="25.5" gradientUnits="userSpaceOnUse">
<stop stop-color="#BFAE97"/>
<stop offset="1" stop-color="#4CCD99" stop-opacity="0"/>
</linearGradient>
<linearGradient id="paint3_linear_269_3660" x1="277.852" y1="24" x2="325.852" y2="24" gradientUnits="userSpaceOnUse">
<stop stop-color="#BB96BA" stop-opacity="0.3"/>
<stop offset="1" stop-color="#AF78AD"/>
</linearGradient>
<linearGradient id="paint4_linear_269_3660" x1="183" y1="254.5" x2="103" y2="254.5" gradientUnits="userSpaceOnUse">
<stop stop-color="#BFAE97"/>
<stop offset="1" stop-color="#4CCD99" stop-opacity="0"/>
</linearGradient>
<linearGradient id="paint5_linear_269_3660" x1="183" y1="253" x2="231" y2="253" gradientUnits="userSpaceOnUse">
<stop stop-color="#B57DB3"/>
<stop offset="1" stop-color="#BFAE97"/>
</linearGradient>
<linearGradient id="paint6_linear_269_3660" x1="275" y1="339.05" x2="195" y2="339.05" gradientUnits="userSpaceOnUse">
<stop stop-color="#BFAE97"/>
<stop offset="1" stop-color="#4CCD99" stop-opacity="0"/>
</linearGradient>
<linearGradient id="paint7_linear_269_3660" x1="275" y1="337.55" x2="323" y2="337.55" gradientUnits="userSpaceOnUse">
<stop stop-color="#BB96BA" stop-opacity="0.3"/>
<stop offset="1" stop-color="#AF78AD"/>
</linearGradient>
<linearGradient id="paint8_linear_269_3660" x1="140.174" y1="112.021" x2="153.939" y2="112.11" gradientUnits="userSpaceOnUse">
<stop stop-color="#09005D"/>
<stop offset="1" stop-color="#1A0F91"/>
</linearGradient>
<clipPath id="clip0_269_3660">
<rect width="24" height="24" fill="white" transform="translate(99 65)"/>
</clipPath>
<clipPath id="clip1_269_3660">
<rect width="24" height="24" fill="white" transform="translate(289.852 12)"/>
</clipPath>
<clipPath id="clip2_269_3660">
<rect width="24" height="24" fill="white" transform="translate(195 241)"/>
</clipPath>
<clipPath id="clip3_269_3660">
<rect width="24" height="24" fill="white" transform="translate(287 325.55)"/>
</clipPath>
</defs>
</svg>
