<svg width="52" height="44" viewBox="0 0 52 44" fill="none" xmlns="http://www.w3.org/2000/svg">
<path d="M12.2298 31.5613V9.93458H28.4496V15.3416H36.0196L41.4254 9.93458H47.3735C48.0903 9.93458 48.7778 10.2193 49.2847 10.7262C49.7916 11.2331 50.0763 11.9206 50.0763 12.6374V39.6712C50.0763 40.388 49.7916 41.0755 49.2847 41.5824C48.7778 42.0893 48.0903 42.3741 47.3735 42.3741H6.82412C6.10709 42.3852 5.39503 42.2535 4.72936 41.9868C4.0637 41.7201 3.45773 41.3237 2.94675 40.8205C2.43577 40.3174 2.02997 39.7176 1.75298 39.0562C1.47599 38.3947 1.33334 37.6848 1.33334 36.9677C1.33334 36.2506 1.47599 35.5406 1.75298 34.8792C2.02997 34.2177 2.43577 33.618 2.94675 33.1149C3.45773 32.6117 4.0637 32.2153 4.72936 31.9486C5.39503 31.6819 6.10709 31.5502 6.82412 31.5613M12.2298 31.5613H6.82412M12.2298 31.5613V1.82471H6.82412C5.39009 1.82471 4.01479 2.39437 3.00078 3.40838C1.98677 4.4224 1.4171 5.79769 1.4171 7.23172V36.967C1.41745 35.5332 1.98726 34.1583 3.00124 33.1445C4.01521 32.1308 5.39031 31.5613 6.82412 31.5613" stroke="#312231" stroke-width="2.59516" stroke-linecap="round" stroke-linejoin="round"/>
<g clip-path="url(#clip0_52_214)">
<path d="M48.4337 23.5619C47.9469 22.8926 47.1575 22.3331 46.1683 21.9563L33.5332 16.9387C32.6065 16.5699 31.5379 16.3745 30.4477 16.3745C29.3575 16.3745 28.2889 16.5699 27.3622 16.9387L14.7271 21.9563C13.7693 22.3481 13.0094 22.9103 12.5398 23.5745C12.0545 24.2391 11.8912 24.982 12.0712 25.7069L15.352 38.2509C15.5624 39.1256 16.2555 39.9226 17.3049 40.4962C18.3459 41.0563 19.6575 41.3667 21.0153 41.3743H39.802C41.2235 41.3833 42.6051 41.0726 43.7077 40.4962C44.7571 39.9226 45.4502 39.1256 45.6606 38.2509L48.9414 25.7069C49.1037 24.9754 48.9271 24.2294 48.4337 23.5619ZM39.1966 34.2117C39.184 34.5313 39.0726 34.8461 38.8687 35.1378C38.6648 35.4294 38.3726 35.692 38.009 35.9104C37.6455 36.1287 37.2179 36.2984 36.7512 36.4095C36.2845 36.5206 35.7881 36.5709 35.2908 36.5574H25.5265C25.0293 36.5707 24.5329 36.5203 24.0663 36.4091C23.5998 36.298 23.1723 36.1283 22.8088 35.91C22.4453 35.6917 22.1531 35.4291 21.9491 35.1375C21.7451 34.846 21.6335 34.5313 21.6207 34.2117V29.8214C21.635 29.3001 21.9163 28.7965 22.4211 28.3883C22.9259 27.9801 23.6261 27.6902 24.4133 27.5634V26.9362C24.4114 26.4371 24.5641 25.9427 24.8625 25.4819C25.1609 25.021 25.599 24.6029 26.1514 24.2518C27.2696 23.5567 28.7647 23.1681 30.3208 23.1681C31.8768 23.1681 33.372 23.5567 34.4901 24.2518C35.0425 24.6029 35.4807 25.021 35.7791 25.4819C36.0774 25.9427 36.2301 26.4371 36.2282 26.9362V27.5634C37.0154 27.6902 37.7156 27.9801 38.2204 28.3883C38.7252 28.7965 39.0065 29.3001 39.0208 29.8214L39.1966 34.2117Z" fill="#685D69"/>
<path fill-rule="evenodd" clip-rule="evenodd" d="M30.5038 31.6345C30.6147 31.613 30.7272 31.6023 30.8398 31.6023C31.0768 31.6023 31.3035 31.6493 31.5124 31.735L32.3433 30.469L32.3751 30.4882C32.067 30.1194 31.897 29.6417 31.8976 29.1467C31.8976 28.0339 32.7396 27.1318 33.7782 27.1318C34.8168 27.1318 35.6587 28.0339 35.6587 29.1467C35.6587 30.2595 34.8168 31.1616 33.7782 31.1616C33.5624 31.1616 33.3551 31.1226 33.162 31.051L32.3211 32.3756C32.5804 32.7298 32.721 33.1671 32.7204 33.6172C32.7204 34.73 31.8784 35.6321 30.8398 35.6321C29.8012 35.6321 28.9593 34.73 28.9593 33.6172C28.9593 33.0022 29.2164 32.4516 29.6218 32.082L28.4016 29.4828C28.2757 29.5106 28.1475 29.5246 28.019 29.5245C27.8572 29.5246 27.696 29.5024 27.5395 29.4584L26.6746 31.0911C27.0323 31.4578 27.255 31.9745 27.255 32.5468C27.255 33.6596 26.4131 34.5617 25.3745 34.5617C24.3359 34.5617 23.4939 33.6596 23.4939 32.5468C23.4939 31.434 24.3359 30.5319 25.3745 30.5319C25.5305 30.5319 25.6821 30.5523 25.827 30.5906L26.6973 28.9428C26.3523 28.5777 26.1385 28.0705 26.1385 27.5096C26.1385 26.3968 26.9804 25.4948 28.019 25.4948C29.0576 25.4948 29.8996 26.3968 29.8996 27.5096C29.8996 28.1118 29.653 28.6522 29.2623 29.0214L30.5038 31.6345ZM33.7782 30.1541C34.2975 30.1541 34.7185 29.7031 34.7185 29.1467C34.7185 28.5903 34.2975 28.1393 33.7782 28.1393C33.2589 28.1393 32.8379 28.5903 32.8379 29.1467C32.8379 29.7031 33.2589 30.1541 33.7782 30.1541ZM25.3745 33.5542C25.8938 33.5542 26.3148 33.1032 26.3148 32.5468C26.3148 31.9904 25.8938 31.5394 25.3745 31.5394C24.8552 31.5394 24.4342 31.9904 24.4342 32.5468C24.4342 33.1032 24.8552 33.5542 25.3745 33.5542ZM28.019 28.5171C28.5383 28.5171 28.9593 28.066 28.9593 27.5096C28.9593 26.9532 28.5383 26.5022 28.019 26.5022C27.4997 26.5022 27.0787 26.9532 27.0787 27.5096C27.0787 28.066 27.4997 28.5171 28.019 28.5171ZM30.8398 34.6247C31.3592 34.6247 31.7801 34.1736 31.7801 33.6172C31.7801 33.0608 31.3592 32.6098 30.8398 32.6098C30.3205 32.6098 29.8996 33.0608 29.8996 33.6172C29.8996 34.1736 30.3205 34.6247 30.8398 34.6247Z" fill="#312231"/>
<path d="M30.5357 27.426V27.8619H27.3019V27.426C27.3017 27.2131 27.3437 27.0022 27.4255 26.8056C27.5073 26.609 27.6272 26.4305 27.7784 26.2805C28.0857 25.9874 28.4941 25.8239 28.9188 25.8239C29.3435 25.8239 29.7519 25.9874 30.0593 26.2805C30.2104 26.4305 30.3303 26.609 30.4121 26.8056C30.4939 27.0022 30.5359 27.2131 30.5357 27.426Z" fill="#685D69"/>
</g>
<defs>
<clipPath id="clip0_52_214">
<rect width="24.3296" height="24.3296" fill="white" transform="translate(16.7357 16.8275)"/>
</clipPath>
</defs>
</svg>
