<svg width="24" height="20" viewBox="0 0 24 20" fill="none" xmlns="http://www.w3.org/2000/svg">
<path d="M20.9053 5.32984C20.9205 5.53401 20.9205 5.73701 20.9205 5.94001C20.9205 12.1525 16.192 19.3112 7.5505 19.3112C4.88816 19.3112 2.41483 18.54 0.333496 17.2007C0.711496 17.2438 1.0755 17.259 1.46866 17.259C3.58382 17.2641 5.63908 16.5568 7.30316 15.2512C6.32249 15.2334 5.37184 14.9099 4.58394 14.3257C3.79605 13.7415 3.21024 12.9259 2.90833 11.9927C3.19883 12.0358 3.4905 12.065 3.79616 12.065C4.21733 12.065 4.64083 12.0067 5.034 11.9052C3.96972 11.6903 3.01272 11.1134 2.32572 10.2726C1.63872 9.43187 1.26414 8.3791 1.26566 7.29334V7.23501C1.89216 7.58384 2.619 7.80201 3.389 7.83118C2.74393 7.40253 2.215 6.82087 1.84939 6.1381C1.48378 5.45533 1.29286 4.69267 1.29366 3.91818C1.29366 3.04551 1.52583 2.24518 1.933 1.54751C3.11382 3.00003 4.58658 4.18833 6.25589 5.03544C7.92519 5.88256 9.75382 6.36959 11.6233 6.46501C11.551 6.11501 11.5067 5.75218 11.5067 5.38818C11.5064 4.77096 11.6277 4.15974 11.8638 3.58946C12.0998 3.01917 12.4459 2.501 12.8824 2.06456C13.3188 1.62813 13.837 1.28199 14.4073 1.04593C14.9776 0.809879 15.5888 0.688537 16.206 0.688843C17.5593 0.688843 18.7808 1.25584 19.6395 2.17284C20.6916 1.9694 21.7005 1.58534 22.6215 1.03768C22.2708 2.12363 21.5362 3.04446 20.5553 3.62768C21.4884 3.52125 22.4003 3.27587 23.2608 2.89968C22.6182 3.83662 21.8218 4.65824 20.9053 5.32984Z" fill="#000080"/>
</svg>
