<svg width="24" height="19" viewBox="0 0 24 19" fill="none" xmlns="http://www.w3.org/2000/svg">
<path d="M20.9052 4.87953C20.9203 5.08369 20.9203 5.28669 20.9203 5.48969C20.9203 11.7022 16.1918 18.8609 7.55034 18.8609C4.88801 18.8609 2.41468 18.0897 0.333344 16.7504C0.711344 16.7935 1.07534 16.8087 1.46851 16.8087C3.58367 16.8138 5.63893 16.1065 7.30301 14.8009C6.32234 14.7831 5.37168 14.4596 4.58379 13.8754C3.79589 13.2912 3.21009 12.4756 2.90818 11.5424C3.19868 11.5855 3.49034 11.6147 3.79601 11.6147C4.21718 11.6147 4.64068 11.5564 5.03384 11.4549C3.96956 11.24 3.01256 10.6631 2.32557 9.82232C1.63857 8.98155 1.26399 7.92878 1.26551 6.84303V6.78469C1.89201 7.13352 2.61884 7.35169 3.38884 7.38086C2.74378 6.95221 2.21485 6.37055 1.84924 5.68778C1.48363 5.00501 1.29271 4.24236 1.29351 3.46786C1.29351 2.59519 1.52568 1.79486 1.93284 1.09719C3.11367 2.54972 4.58643 3.73801 6.25574 4.58513C7.92504 5.43224 9.75367 5.91928 11.6232 6.01469C11.5508 5.66469 11.5065 5.30186 11.5065 4.93786C11.5062 4.32065 11.6275 3.70943 11.8636 3.13914C12.0997 2.56885 12.4458 2.05068 12.8822 1.61424C13.3187 1.17781 13.8368 0.831672 14.4071 0.595617C14.9774 0.359562 15.5886 0.238219 16.2058 0.238526C17.5592 0.238526 18.7807 0.805526 19.6393 1.72253C20.6914 1.51908 21.7003 1.13502 22.6213 0.587359C22.2707 1.67331 21.5361 2.59415 20.5552 3.17736C21.4883 3.07093 22.4002 2.82555 23.2607 2.44936C22.618 3.38631 21.8216 4.20793 20.9052 4.87953Z" fill="#C0C0C0"/>
</svg>
